<svg xmlns="http://www.w3.org/2000/svg" xmlns:xlink="http://www.w3.org/1999/xlink" width="736.925" height="736.925" viewBox="0 0 736.925 736.925">
  <defs>
    <linearGradient id="linear-gradient" x1="0.5" y1="1" x2="0.5" gradientUnits="objectBoundingBox">
      <stop offset="0" stop-color="#cce4fc"/>
      <stop offset="1" stop-color="#f6f9fe"/>
    </linearGradient>
  </defs>
  <g id="Group_739" data-name="Group 739" transform="translate(-1007.438 -131.665)">
    <g id="Group_69" data-name="Group 69" transform="translate(1009.066 130.045)">
      <g id="Group_2" data-name="Group 2" transform="translate(0)">
        <path id="Path_1350" data-name="Path 1350" d="M260.54-1.148A257.785,257.785,0,0,1,519.931,258.243C519.3,402.135,402.135,519.3,258.243,519.931A257.785,257.785,0,0,1-1.148,260.54C-.514,116.648,116.648-.514,260.54-1.148Z" transform="translate(0 370.083) rotate(-45)" fill="url(#linear-gradient)"/>
        <g id="Group_1" data-name="Group 1" transform="translate(96.88 216.432)">
          <path id="Rectangle_6" data-name="Rectangle 6" d="M3.726,0h74.9a3.727,3.727,0,0,1,3.727,3.727V42.608a3.727,3.727,0,0,1-3.727,3.727H3.728A3.728,3.728,0,0,1,0,42.606V3.726A3.726,3.726,0,0,1,3.726,0Z" transform="translate(428.368 1.776)" fill="#ebf3fe" style="mix-blend-mode: multiply;isolation: isolate"/>
          <path id="Rectangle_7" data-name="Rectangle 7" d="M7.453,0H89.687a7.452,7.452,0,0,1,7.452,7.452V51.481a7.454,7.454,0,0,1-7.454,7.454H7.453A7.453,7.453,0,0,1,0,51.482V7.453A7.453,7.453,0,0,1,7.453,0Z" transform="translate(28.174)" fill="#ebf3fe" style="mix-blend-mode: multiply;isolation: isolate"/>
          <path id="Rectangle_8" data-name="Rectangle 8" d="M6.17,0H67.723A6.172,6.172,0,0,1,73.9,6.172V40.921a6.169,6.169,0,0,1-6.169,6.169H6.17A6.17,6.17,0,0,1,0,40.92V6.17A6.17,6.17,0,0,1,6.17,0Z" transform="translate(473.767 24.567)" fill="#ebf3fe" style="mix-blend-mode: multiply;isolation: isolate"/>
          <path id="Rectangle_9" data-name="Rectangle 9" d="M4.152,0H45.576a4.152,4.152,0,0,1,4.152,4.152V27.537a4.153,4.153,0,0,1-4.153,4.153H4.154A4.154,4.154,0,0,1,0,27.536V4.152A4.152,4.152,0,0,1,4.152,0Z" transform="translate(0 44.235)" fill="#ebf3fe" style="mix-blend-mode: multiply;isolation: isolate"/>
        </g>
      </g>
      <g id="Group_68" data-name="Group 68" transform="translate(120.934 161.941)">
        <g id="Group_59" data-name="Group 59" transform="translate(117.932)">
          <g id="Group_3" data-name="Group 3" transform="translate(19.366)">
            <path id="Path_1" data-name="Path 1" d="M397.533,489.128a12,12,0,0,1-11.945,12.051H179.453c-6.6,0-20.3-6.721-20.3-17.754l8.357-386.976A12,12,0,0,1,179.453,84.4l198.479-7.092c11.16,0,19.6,12.487,19.6,19.143Z" transform="translate(-159.066 -77.272)" fill="#393280"/>
            <rect id="Rectangle_10" data-name="Rectangle 10" width="230.026" height="416.782" rx="10" fill="#9c93ee"/>
            <rect id="Rectangle_11" data-name="Rectangle 11" width="207.705" height="362.9" rx="9.03" transform="translate(11.161 12.638)" fill="url(#linear-gradient)"/>
            <path id="Path_1351" data-name="Path 1351" d="M14.113-.02a14,14,0,1,1-.039,27.991A14,14,0,1,1,14.113-.02Z" transform="translate(98.118 407.874) rotate(-80.748)" fill="#adafec" style="mix-blend-mode: screen;isolation: isolate"/>
            <path id="Path_2" data-name="Path 2" d="M364.433,263.21a7.684,7.684,0,0,0,3.661-1.551c2.29-2.556-.326-10.3-5.588-18.758V225.2a25.307,25.307,0,0,0-25.2-25.417h-1.826l-.086-.027c-.141-.043-.281-.084-.418-.123-.1-.03-.2-.061-.3-.089-.158-.042-.309-.078-.46-.114-.076-.019-.155-.041-.231-.058-.226-.052-.447-.1-.658-.136A4.792,4.792,0,0,1,332.5,199c-.066-.023-.129-.049-.191-.076a4.134,4.134,0,0,1-.682-.36l-.018-.011a4.1,4.1,0,0,1-.594-.5c-.044-.045-.09-.092-.133-.139a4.955,4.955,0,0,1-.469-.6l-.023-.031a6.318,6.318,0,0,1-.407-.747c-.029-.061-.056-.125-.086-.19-.111-.254-.215-.519-.308-.8-.007-.02-.013-.036-.019-.057-.1-.3-.186-.628-.265-.963-.019-.078-.037-.158-.055-.237-.068-.31-.133-.627-.19-.959-.006-.035-.014-.069-.02-.106-.06-.363-.113-.744-.164-1.132-.013-.1-.026-.212-.039-.318q-.059-.5-.111-1.018c-.007-.075-.016-.146-.023-.221-.038-.4-.072-.8-.106-1.217-.016-.2-.032-.4-.049-.611-.013-.18-.027-.364-.042-.547-.128-1.717-.254-3.565-.453-5.5l-.007-.064a47.184,47.184,0,0,0-2.568-11.855c-5.038-13.416-27.78-11.866-37.358-8.948-13.443,4.095-14.142,17.147-8.179,19.845.977,3.547.969,14.931-3.023,22.383s-13.018,16.717-3.5,30.414a15.48,15.48,0,0,0,4.276,4c-1.518,1.435-3.02,2.819-4.416,4.044-5.585,4.906-15.371,12.659-20.1,16.374H238.839a2.98,2.98,0,0,0-2.67-1.68c-7.677,0-9.177.518-9.177-2.439V248.4H257.7a9.587,9.587,0,0,0,9.544-9.628V159.217a9.587,9.587,0,0,0-9.544-9.63H168.424V248.4h24.4v6.341a8.471,8.471,0,0,0,4.868,7.679,2.956,2.956,0,0,0,2.006.793H185.013V413.993h66.194a8.436,8.436,0,0,0,8.4-8.472V335.464c6.038,15.644,16.785,38.581,27.113,52.112a16.648,16.648,0,0,0,2.815-.293c.078.1.152.193.229.29l.232.294c.111.14.22.28.331.421l.241.311c.121.153.241.309.361.463.066.084.131.169.2.253q.219.282.435.565c.047.058.091.117.136.176q.288.378.572.753c.569.752,1.115,1.492,1.62,2.194a5.5,5.5,0,0,0-3.546,5.819c-1.328.666-2.216,1.628-1.959,2.9a.48.48,0,0,0,.381.337c-.26.446-.544.934-.84,1.451a5.8,5.8,0,0,0-2.726,2.378.931.931,0,0,0,.19,1.117q.075.06.154.112l.037.025a.726.726,0,0,0,.282.1c-2.314,4.36-4.584,9.406-4.338,12.24a1.858,1.858,0,0,0-.1,1.562,1.835,1.835,0,0,0,2.393,1.044,102,102,0,0,0,13.144-6.664c.761-.453,1.538-.93,2.326-1.428h33.866a4.514,4.514,0,0,0,2.56-8.2c.745-.363,1.49-.727,2.217-1.122a1.868,1.868,0,0,0,.747-2.52,1.842,1.842,0,0,0-1.8-.968c.272-3.255-2.047-8.026-3.257-7.674-.4.117-.934.313-1.537.525l-.837-14.149c.413-.262.825-.507,1.241-.8,0,0-1.067-22.06-1.556-34.044l-.01-.262c-.017-.4-.033-.789-.047-1.165-.006-.135-.011-.263-.017-.394-.012-.307-.024-.61-.033-.9-.008-.206-.016-.4-.023-.592s-.016-.409-.023-.6c-.008-.265-.017-.509-.025-.75H349.8a5.651,5.651,0,0,0,4.319-2.029c3.155-.693,5.114-2.59,2.722-6.058a18.432,18.432,0,0,1-2.385-6.6c.194-.182.4-.353.586-.541.222-.223.424-.463.639-.693.312-.336.626-.669.92-1.021.214-.259.411-.531.616-.8.268-.348.535-.7.784-1.058.195-.282.374-.571.555-.86.235-.371.463-.742.678-1.127.167-.3.325-.6.48-.906.2-.4.393-.794.575-1.2.137-.31.271-.622.4-.94.167-.423.32-.853.466-1.287.106-.316.214-.63.307-.951.135-.462.248-.933.358-1.405.072-.307.151-.611.211-.923.1-.528.173-1.066.242-1.605.033-.269.082-.531.109-.8.078-.815.123-1.638.123-2.474V272.34h13.622v-9.13Zm-79.456,34.972c-4.133,1.71-9.693,3.725-13.234,5.3-.442.2-.84.393-1.215.586-.107.055-.205.11-.308.164-.259.141-.5.277-.724.412-.092.055-.184.111-.271.166-.232.147-.441.29-.631.429-.042.033-.092.064-.131.094a6.6,6.6,0,0,0-.585.5c-.016.016-.026.03-.043.046a3.163,3.163,0,0,0-.34.4c-.02.027-.035.052-.051.077a1.363,1.363,0,0,0-.16.331.221.221,0,0,0-.011.037.43.43,0,0,0,.216.521l0,0h0c.442.243,1.481.141,3.026-.477l-.348.157c-.272.121-.545.243-.815.368q-.36.163-.716.33c-.444.21-.886.422-1.321.64-.2.1-.4.206-.6.31s-.386.2-.575.3l.019,0a39.036,39.036,0,0,0-6.555,4.251V272.34h25.37Zm0-39.325h-4.189c1.455-.551,2.866-1.1,4.189-1.614Zm23.829,131.994a.648.648,0,0,0-.473.076c-.143.107-.3.239-.475.381L301.6,379.462c.082-.13.173-.246.256-.381,0,0-8.806-26.421-14.459-38.7h17.672c.9,8.638,2.223,18.327,3.734,27.562Zm5.466,2.813V383.409c.485.083,1.038.154,1.627.212.2.876.4,1.779.595,2.678.333,1.527.653,3.037.923,4.378A5.134,5.134,0,0,0,314.271,393.664Z" transform="translate(-157.263 -62.449)" fill="#ebf5ff" style="mix-blend-mode: multiply;isolation: isolate"/>
          </g>
          <g id="Group_58" data-name="Group 58" transform="translate(0 95.363)">
            <g id="Group_51" data-name="Group 51" transform="translate(95.994 10.217)">
              <g id="Group_6" data-name="Group 6" transform="translate(22.56 39.978)">
                <g id="Group_4" data-name="Group 4" transform="translate(13.913 134.833)">
                  <path id="Path_3" data-name="Path 3" d="M272.071,383.443A2.744,2.744,0,0,0,274.8,386.2h0a2.746,2.746,0,0,0,2.734-2.757v-70.73a2.746,2.746,0,0,0-2.734-2.758h0a2.745,2.745,0,0,0-2.732,2.758Z" transform="translate(-250.206 -309.954)" fill="#8bced1"/>
                  <path id="Path_4" data-name="Path 4" d="M304.453,372.848a4.492,4.492,0,0,1-4.472,4.513H258.238a4.492,4.492,0,0,1-4.472-4.513h0a4.492,4.492,0,0,1,4.472-4.512h41.743a4.493,4.493,0,0,1,4.472,4.512Z" transform="translate(-253.766 -297.982)" fill="#fff"/>
                  <path id="Path_5" data-name="Path 5" d="M272.071,317.648v64.217a2.733,2.733,0,1,0,5.466,0V319C275.718,318.514,273.9,318.052,272.071,317.648Z" transform="translate(-250.206 -308.376)" fill="#fff"/>
                </g>
                <g id="Group_5" data-name="Group 5" transform="translate(11.95)">
                  <path id="Rectangle_12" data-name="Rectangle 12" d="M21.093,0H56.438A21.092,21.092,0,0,1,77.53,21.092v90.554a21.093,21.093,0,0,1-21.093,21.093H21.093A21.093,21.093,0,0,1,0,111.646V21.093A21.093,21.093,0,0,1,21.093,0Z" fill="#adafec"/>
                  <path id="Path_6" data-name="Path 6" d="M303.032,198.066h-27.14a24.962,24.962,0,0,0-16.449,6.172,25.287,25.287,0,0,1,4.246-.366h27.14a25.306,25.306,0,0,1,25.2,25.417v81.9a25.448,25.448,0,0,1-8.746,19.245,25.355,25.355,0,0,0,20.949-25.051v-81.9A25.307,25.307,0,0,0,303.032,198.066Z" transform="translate(-250.698 -198.066)" fill="#393280" opacity="0.5" style="mix-blend-mode: multiply;isolation: isolate"/>
                </g>
                <path id="Path_7" data-name="Path 7" d="M324.608,310.935a5.74,5.74,0,0,1-5.716,5.765h-71.06a5.739,5.739,0,0,1-5.714-5.765h0a5.74,5.74,0,0,1,5.714-5.766h71.06a5.741,5.741,0,0,1,5.716,5.766Z" transform="translate(-242.118 -176.102)" fill="#adafec"/>
              </g>
              <g id="Group_50" data-name="Group 50">
                <g id="Group_24" data-name="Group 24" transform="translate(4.252 138.174)">
                  <g id="Group_15" data-name="Group 15" transform="translate(0 1.126)">
                    <g id="Group_13" data-name="Group 13" transform="translate(26.577 77.45)">
                      <g id="Group_7" data-name="Group 7" transform="translate(3.983)">
                        <path id="Path_8" data-name="Path 8" d="M252.375,350.236s10.807,12.944,11.288,15.45c0,0,6,1.405,12.239-4.38l-8.738-16.549Z" transform="translate(-252.375 -344.757)" fill="#ffd5cf"/>
                        <path id="Path_9" data-name="Path 9" d="M271.479,352.93l-4.314-8.173-14.789,5.479s3.8,4.548,6.989,8.774a37.575,37.575,0,0,0,10.408-4.966C270.221,353.743,270.825,353.368,271.479,352.93Z" transform="translate(-252.375 -344.757)" fill="#ffbdae"/>
                      </g>
                      <g id="Group_12" data-name="Group 12" transform="translate(0 14.269)">
                        <g id="Group_8" data-name="Group 8" transform="translate(0.204)">
                          <path id="Path_10" data-name="Path 10" d="M281.111,365.893C268.144,377.51,249.652,386.6,249.652,386.6c-2.692-4,7.818-20.18,8.455-21.6-1.274-7,9.405-9.048,10.681-4.264,2.986.059,5.851-2.977,7.257-4.036S284.395,363.114,281.111,365.893Z" transform="translate(-249.211 -356.598)" fill="#30393e"/>
                          <path id="Path_11" data-name="Path 11" d="M273.8,356.7c-.619.466-1.519,1.315-2.587,2.114-1,4.291-4.037,8.46-6.429,11.865a26.281,26.281,0,0,0-4.052,8.431,131.187,131.187,0,0,0,18.135-13.217C282.153,363.114,275.206,355.64,273.8,356.7Z" transform="translate(-246.97 -356.598)" fill="#1a1f21"/>
                        </g>
                        <g id="Group_9" data-name="Group 9" transform="translate(0 5.922)">
                          <path id="Path_12" data-name="Path 12" d="M264.708,380.187a102,102,0,0,1-13.144,6.664,1.835,1.835,0,0,1-2.393-1.044,1.865,1.865,0,0,1,1.031-2.415c.2-.078,19.657-7.978,31.035-21.239a1.836,1.836,0,0,1,2.6-.187,1.873,1.873,0,0,1,.186,2.623C278.367,371.183,271,376.44,264.708,380.187Z" transform="translate(-249.04 -361.512)" fill="#fff"/>
                        </g>
                        <g id="Group_10" data-name="Group 10" transform="translate(7.042 6.876)">
                          <path id="Path_13" data-name="Path 13" d="M255.611,366.654c.592-.249.948-.762,1.544-1.034a9.04,9.04,0,0,1,2.347-.662c1.544-.236,3.336.3,4.8-.12a1.176,1.176,0,0,0,.19-2.133c-2.09-1.107-10.228.068-9.512,3.621a.5.5,0,0,0,.631.328Z" transform="translate(-254.936 -362.304)" fill="#fff"/>
                        </g>
                        <g id="Group_11" data-name="Group 11" transform="translate(3.797 11.656)">
                          <path id="Path_14" data-name="Path 14" d="M252.668,370.909l.037.024a.9.9,0,0,0,.928-.037,13.615,13.615,0,0,1,9.56-1.961.988.988,0,0,0,.68-1.826c-3.159-1.688-9.726-.827-11.548,2.569a.932.932,0,0,0,.19,1.117c.05.04.1.077.154.113Z" transform="translate(-252.219 -366.271)" fill="#fff"/>
                        </g>
                      </g>
                    </g>
                    <g id="Group_14" data-name="Group 14">
                      <path id="Path_15" data-name="Path 15" d="M268.143,280.579s-34.976,6.154-41.265,19.751c-1.469,3.177,15.747,47.446,31.913,68.627,0,0,9.913.17,15.139-8.495,0,0-10.652-31.962-16.046-41.918,0,0,20.586-.635,25.654-1.905S310.461,278.408,268.143,280.579Z" transform="translate(-226.79 -280.487)" fill="#9b68c4"/>
                      <path id="Path_16" data-name="Path 16" d="M266.283,280.579s-17.462,3.075-29.928,9.674c7.537-1.694,15.224-2.444,22.256-.552,10.918,2.543,6.3,8.9.42,14.4-6.3,5.931-13.018,10.167-9.239,19.487,3.36,9.32,8.819,16.1,10.919,26.264,1.118,5.87,1.762,11.86,2.562,17.842a17.106,17.106,0,0,0,8.8-7.235s-10.652-31.962-16.046-41.918c0,0,20.586-.635,25.654-1.905S308.6,278.408,266.283,280.579Z" transform="translate(-224.93 -280.487)" fill="#633870"/>
                      <path id="Path_17" data-name="Path 17" d="M268.86,299.221c.113-8.023,7.331-10.32,11.354-15.665a17.757,17.757,0,0,0-2-1.063c-5.569,1.773-10.931,4-13.038,9.2-1.393,3.442-.669,10.6-.49,14.235.178,3.691,2.7,11.351,3.556,11.284.836-.066,1.645-.136,2.416-.208C271.329,311.184,268.775,305.082,268.86,299.221Z" transform="translate(-219.489 -280.075)" fill="#4b2b56"/>
                    </g>
                  </g>
                  <g id="Group_23" data-name="Group 23" transform="translate(43.167)">
                    <g id="Group_21" data-name="Group 21" transform="translate(0 74.702)">
                      <g id="Group_16" data-name="Group 16" transform="translate(16.386)">
                        <path id="Path_18" data-name="Path 18" d="M276.647,345.416s3.769,15.89,3.859,18.441c0,0,7.137,7.693,14.187,2.951l-1.5-25.267Z" transform="translate(-276.647 -341.542)" fill="#ffd5cf"/>
                        <path id="Path_19" data-name="Path 19" d="M294.09,356.629l-.893-15.087-16.55,3.874s1.169,4.934,2.222,9.743A51.6,51.6,0,0,0,294.09,356.629Z" transform="translate(-276.647 -341.542)" fill="#ffbdae"/>
                      </g>
                      <g id="Group_20" data-name="Group 20" transform="translate(0 17.595)">
                        <path id="Path_20" data-name="Path 20" d="M300.1,369.781c-16.207,6.228-36.692,8.12-36.692,8.12-1.112-4.7,14.4-16.074,15.493-17.177,1.267-7,11.972-5.1,11.487-.17,2.772,1.127,6.515-.689,8.2-1.18S304.141,368.358,300.1,369.781Z" transform="translate(-262.848 -356.143)" fill="#30393e"/>
                        <g id="Group_17" data-name="Group 17" transform="translate(0 10.897)">
                          <path id="Path_21" data-name="Path 21" d="M279.432,376.362A101.658,101.658,0,0,1,264.8,377.9a1.861,1.861,0,0,1-.059-3.721c.213,0,21.182-.433,36.48-8.767a1.838,1.838,0,0,1,2.5.754,1.866,1.866,0,0,1-.747,2.519C295.369,372.825,286.63,375.106,279.432,376.362Z" transform="translate(-262.929 -365.185)" fill="#fff"/>
                        </g>
                        <g id="Group_18" data-name="Group 18" transform="translate(13.285 4.138)">
                          <path id="Path_22" data-name="Path 22" d="M274.53,362.169c.641-.023,1.155-.376,1.806-.417a8.945,8.945,0,0,1,2.428.222c1.53.33,3.013,1.476,4.532,1.6a1.172,1.172,0,0,0,.926-1.927c-1.564-1.782-9.589-3.592-10.168-.012a.5.5,0,0,0,.475.533Z" transform="translate(-274.05 -359.577)" fill="#fff"/>
                        </g>
                        <g id="Group_19" data-name="Group 19" transform="translate(8.531 7.674)">
                          <path id="Path_23" data-name="Path 23" d="M270.279,365.063c.008.013.017.024.026.037a.9.9,0,0,0,.88.3,13.607,13.607,0,0,1,9.629,1.583.984.984,0,0,0,1.276-1.464c-2.36-2.709-8.806-4.249-11.7-1.724a.923.923,0,0,0-.216,1.111c.031.054.068.108.1.16Z" transform="translate(-270.071 -362.511)" fill="#fff"/>
                        </g>
                      </g>
                    </g>
                    <g id="Group_22" data-name="Group 22" transform="translate(5.944)">
                      <path id="Path_24" data-name="Path 24" d="M281.845,282.094s-11.257,5.719-13.385,13.979,2.225,43.846,7.083,68.2a23.579,23.579,0,0,0,21.022-3.622s-1.905-39.376-1.792-41.494,13.928-1.059,16.363-4.872,4.282-24.782,0-34.736Z" transform="translate(-267.905 -279.552)" fill="#9b68c4"/>
                      <path id="Path_25" data-name="Path 25" d="M311.115,279.552l-29.291,2.542s-11.257,5.719-13.386,13.979a17.84,17.84,0,0,0-.426,2.942c2.9,1.369,9.5.622,10.9.622,5.458,0,16.8,3.813,14.278,11.439-.841,2.542-3.781,3.389-4.2,5.507-.84,2.966,1.678,5.933,2.518,8.473,2.453,5.657,2.864,11.313,4.15,16.724-.478-10.437-.96-21.521-.9-22.618.112-2.119,13.928-1.059,16.363-4.872S315.4,289.506,311.115,279.552Z" transform="translate(-267.884 -279.552)" fill="#633870"/>
                    </g>
                  </g>
                </g>
                <g id="Group_30" data-name="Group 30" transform="translate(18.742)">
                  <path id="Path_26" data-name="Path 26" d="M249.658,186.724c-5.963-2.7-5.264-15.75,8.179-19.845,9.577-2.917,32.319-4.468,37.358,8.948s.708,27.186,7.845,28.5,22.817,9.782,6.72,28.845-57.107,20.052-66.625,6.354-.492-22.959,3.5-30.414S250.635,190.272,249.658,186.724Z" transform="translate(-238.922 -164.891)" fill="#633870"/>
                  <path id="Path_27" data-name="Path 27" d="M293.321,213.957a11.247,11.247,0,0,0-5.932-6.04c-7.469-.537-13.461-22.624-13.461-22.624-3.919-1.412-21.686-5.072-21.686-5.072-3.5,3.107-2.872,10.015-2.872,14.11,0,6.777-2.8,14.544-.419,21.039,1.539,4.237,8.677,7.059,6.156,12-1.959,3.954-5.458,7.062-7.558,11.016a22.834,22.834,0,0,0-1.108,2.321c9.8,6.046,28.464,6.659,43.824,1.105C291.83,233.581,294.667,217.3,293.321,213.957Z" transform="translate(-237.459 -161.747)" fill="#4b2b56"/>
                  <path id="Path_28" data-name="Path 28" d="M294.3,200.737c-5.314-.975-4.272-8.863-5.474-18.366-1.082,2.933-2.437,5.816-3.342,8.978-1.26,4.235-3.5,11.3,1.541,13.838,4.9,2.4,10.076,2.966,14.275,6.777,3.827,3.469,4.586,7.6,3.853,11.816C313.807,208.781,300.665,201.905,294.3,200.737Z" transform="translate(-230.178 -161.306)" fill="#4b2b56"/>
                  <g id="Group_29" data-name="Group 29" transform="translate(3.109 2.584)">
                    <g id="Group_25" data-name="Group 25" transform="translate(7.582)">
                      <path id="Path_29" data-name="Path 29" d="M249.112,182.818c-.941-5.377,2.432-9.788,6.941-12.293,3.339-1.856,7.529-2.081,11.195-2.844a.33.33,0,0,0-.086-.645c-5.063.392-10.249.827-14.5,3.9-3.9,2.817-5.934,7.552-4.122,12.042a.3.3,0,0,0,.571-.158Z" transform="translate(-247.872 -167.035)" fill="#8a41b6"/>
                    </g>
                    <g id="Group_26" data-name="Group 26" transform="translate(0 44.232)">
                      <path id="Path_30" data-name="Path 30" d="M247.781,203.753c-2.164,3.9-6.026,7.815-6.24,12.536-.174,3.81,1.013,7.831,4.459,9.831.428.247,1.069-.287.727-.734-2.719-3.553-4.582-6.676-3.488-11.369.84-3.6,3.389-6.73,4.6-10.239a.031.031,0,0,0-.055-.025Z" transform="translate(-241.524 -203.74)" fill="#8a41b6"/>
                    </g>
                    <g id="Group_27" data-name="Group 27" transform="translate(34.176 0.286)">
                      <path id="Path_31" data-name="Path 31" d="M270.331,167.315c-1.371,6.705,4.748,13.34,10.207,16.332a.417.417,0,0,0,.5-.654c-4.577-4.492-10.835-8.338-10.592-15.662a.058.058,0,0,0-.115-.016Z" transform="translate(-270.136 -167.273)" fill="#8a41b6"/>
                    </g>
                    <g id="Group_28" data-name="Group 28" transform="translate(22.272 0.726)">
                      <path id="Path_32" data-name="Path 32" d="M268.913,167.64a11.06,11.06,0,0,0-6.337,3.865c-1.408,1.929-2.861,4.787-2.271,7.236a.533.533,0,0,0,.971.128c.939-2.044.974-4.243,2.144-6.253a12.341,12.341,0,0,1,5.559-4.812c.1-.043.025-.188-.067-.164Z" transform="translate(-260.17 -167.638)" fill="#8a41b6"/>
                    </g>
                  </g>
                </g>
                <g id="Group_40" data-name="Group 40" transform="translate(0 53.882)">
                  <path id="Path_33" data-name="Path 33" d="M263.1,224.406c-.452,5.212-2.8,66.086-3.778,70.04s40.311,5.224,44.51,0-5.04-79.48-14-82.456S264.085,213.11,263.1,224.406Z" transform="translate(-216.214 -209.307)" fill="#30393e"/>
                  <g id="Group_31" data-name="Group 31" transform="translate(0 4.226)">
                    <path id="Path_34" data-name="Path 34" d="M277.146,231.609c-.115-8.755-1.286-18.5-1.286-18.5-3.359,1.412-11.336,5.366-12.413,6.756a2.726,2.726,0,0,0-.418,1.267c-3,3.108-10.964,11.264-16.981,16.548-7.558,6.638-22.816,18.5-22.816,18.5a24.081,24.081,0,0,0,10.778,3.672c4.967.243,25.525-8.073,30.973-10.317-.125,16.232-1.355,39.838-1.857,40.959-.7,1.553-12.6,5.506-18.617,8.19s-5.6,5.082-1.12,3.248,26.315-5.084,28.391-10.168S277.26,240.365,277.146,231.609Z" transform="translate(-223.231 -213.111)" fill="#fff9f3"/>
                    <path id="Path_35" data-name="Path 35" d="M266.8,278.79c1.209-8.235,1.411-16.573,2.519-24.809.6-4.272-1.085-17.387-3.427-16.981-5.366.933-11.185,3.457-15.822,5.9-7.246,3.492-14.235,7.439-21.224,11.373a18.738,18.738,0,0,0,4.066.683c4.967.243,25.525-8.073,30.973-10.317-.125,16.232-1.355,39.838-1.857,40.959-.7,1.553-12.6,5.506-18.617,8.19-3.861,1.721-5.062,3.318-4.252,3.765,6.339-2.548,12.732-4.913,18.874-7.779C263.076,287.333,266,284.385,266.8,278.79Z" transform="translate(-222.138 -208.214)" fill="#eadfd3"/>
                  </g>
                  <g id="Group_32" data-name="Group 32" transform="translate(53.02 0.697)">
                    <path id="Path_36" data-name="Path 36" d="M282.092,210.182s-.73,34.737-.8,45.045-2.449,38.55-5.808,41.374-8.285,8.344-7.838,15.535c.141,2.258,2.66.422,4.62-2.26s13.016-6.356,20.294-.284,11.478,21.745,16.8,23.864,16.095,1.13,11.616-5.365-2.659-24.146-8.538-32.479c-3.951-5.6-2.938-38.126-4.618-50.976S296.654,210.732,282.092,210.182Z" transform="translate(-267.618 -210.182)" fill="#fff9f3"/>
                    <path id="Path_37" data-name="Path 37" d="M296.979,261.922c3.261.39,6.505.832,9.753,1.238-.259-7.394-.517-14.391-1.11-18.928-1.358-10.389-7.823-26.138-17.942-32.078,2.679,4.411,5.39,8.9,7.788,13.467,1.814,3.561,3.93,7.424,4.334,11.492.7,6.913-6.652,9.15-11.892,10.879-2.893.912-5.823,1.715-8.768,2.517-.02,1.69-.037,3.157-.045,4.314-.011,1.569-.074,3.557-.188,5.8,2.049.03,4.068.076,6.076.076A95.85,95.85,0,0,1,296.979,261.922Z" transform="translate(-265.422 -209.778)" fill="#f4ebe4"/>
                    <path id="Path_38" data-name="Path 38" d="M307.2,263.118c-.08-1.879-.153-3.785-.221-5.687-4.9,0-9.806.171-14.7.2-3.967.028-9.392-.774-13.666.308-.092,1.2-.192,2.428-.3,3.666,3.783,1.358,8.691,1.048,12.314,1.168C296.131,262.959,301.671,263.14,307.2,263.118Z" transform="translate(-265.54 -200.504)" fill="#eadfd3"/>
                    <path id="Path_39" data-name="Path 39" d="M305.95,278.824c-.69-.163-1.43-.168-2.119-.4-3.384-1.135-19.285-.393-23.221-2.125a.387.387,0,0,0-.465.607,9.116,9.116,0,0,0,6.167,2.948,44.582,44.582,0,0,0-4.439,1.509c-6.4,2.573-10.859,6.846-12.626,13.6-.072.268.3.535.493.29,3.931-5.017,8.271-9.1,14.255-11.437a43.579,43.579,0,0,1,10.631-2.356c3.748-.448,7.657-.04,11.323-.91A.9.9,0,0,0,305.95,278.824Z" transform="translate(-267.303 -196.631)" fill="#eadfd3"/>
                  </g>
                  <g id="Group_34" data-name="Group 34" transform="translate(64.768)">
                    <g id="Group_33" data-name="Group 33" transform="translate(1.532 1.114)">
                      <path id="Path_40" data-name="Path 40" d="M284.344,210.654c-1.215,4.46.42,9.343-.3,13.946-.333,2.114-.9,4.117-1.064,6.259-.229,2.926.747,6.065.914,9,.35,6.127-1.746,12.365-2.819,18.35-.862,4.824-1.958,9.621-2.335,14.516a.236.236,0,0,0,.463.064c1.994-10.714,7.345-20.377,8.1-31.454a44.616,44.616,0,0,0-.362-7.435c-.306-3.067.211-5.794.485-8.842.43-4.794-1.134-9.926-2.734-14.407a.179.179,0,0,0-.342,0Z" transform="translate(-278.735 -210.528)" fill="#f4ebe4"/>
                    </g>
                    <path id="Path_41" data-name="Path 41" d="M279.38,210.3s-.565,58.934-1.927,70.628c0,0,5.637-22.758,7.037-32.926a65.529,65.529,0,0,0,0-18.215,21.9,21.9,0,0,0,2.136-7.765c.283-3.651-1.156-11.016-2.415-11.722A4.576,4.576,0,0,0,279.38,210.3Z" transform="translate(-277.453 -209.604)" fill="#fff9f3"/>
                  </g>
                  <g id="Group_36" data-name="Group 36" transform="translate(44.246 3.56)">
                    <g id="Group_35" data-name="Group 35" transform="translate(0 2.448)">
                      <path id="Path_42" data-name="Path 42" d="M263.805,214.741c-2.1,2.673-2.666,5.861-3.355,9.146-.788,3.749,1.258,7.006,2.237,10.529,1.394,5.018.827,10.665,1.063,15.82a128.632,128.632,0,0,0,1.625,14.205c.05.315.505.216.522-.071a102.911,102.911,0,0,0-.518-12.575c-.294-4.486.362-8.918.466-13.4a21.078,21.078,0,0,0-1.953-9.114c-2.1-4.729-.3-9.285.653-14.108.078-.392-.438-.818-.739-.434Z" transform="translate(-260.273 -214.59)" fill="#f4ebe4"/>
                    </g>
                    <path id="Path_43" data-name="Path 43" d="M268.745,212.885s1.989,52.023-2.774,68.95l-1.979-48.559a21.882,21.882,0,0,1-2.136-7.767c-.283-3.648,1.425-10.664,2.415-11.72A4.08,4.08,0,0,1,268.745,212.885Z" transform="translate(-259.971 -212.558)" fill="#fff9f3"/>
                  </g>
                  <g id="Group_38" data-name="Group 38" transform="translate(45.332 39.896)">
                    <g id="Group_37" data-name="Group 37" transform="translate(0 3.046)">
                      <path id="Path_44" data-name="Path 44" d="M261.279,251.786c.874,1.711,11.584,1.4,17.469,1.4,4.589,0,4.961-7.339-1.359-7.9S260.035,249.352,261.279,251.786Z" transform="translate(-261.182 -245.239)" fill="#5b6d75"/>
                      <path id="Path_45" data-name="Path 45" d="M276.913,245.286c-3.972-.354-9.806,1.342-13.283,3.259,1.249,1.817,6.178.665,7.824.609a6.1,6.1,0,0,1,4.122,1.567,4.775,4.775,0,0,1,1.492,2.473c.417,0,.822,0,1.2,0C282.861,253.188,283.233,245.849,276.913,245.286Z" transform="translate(-260.706 -245.239)" fill="#5b6d75" opacity="0.3" style="mix-blend-mode: multiply;isolation: isolate"/>
                    </g>
                    <path id="Path_46" data-name="Path 46" d="M284.163,243.575s-9.927-1.075-11.937-.827-7.424,4.1-7.507,5.337,1.558,1.242,2.42.788,3.815-2.692,5.169-2.732,5.387,5.354,12.109,3.008C285.928,248.625,286.583,244.651,284.163,243.575Z" transform="translate(-260.495 -242.711)" fill="#ffd5cf"/>
                    <path id="Path_47" data-name="Path 47" d="M281.506,243.482s-1.334-.143-3.121-.316c-.01.785,0,1.564,0,2.32,0,1.4-.014,2.786.106,4.153a10.024,10.024,0,0,0,3.272-.582C283.27,248.532,283.926,244.558,281.506,243.482Z" transform="translate(-257.837 -242.618)" fill="#ffbdae"/>
                  </g>
                  <g id="Group_39" data-name="Group 39" transform="translate(67.302 1.425)">
                    <path id="Path_48" data-name="Path 48" d="M286.25,211.107c-2.813.6,23.591,32.52,21.525,33.918s-27.269,2.337-28.009,3.644.983,9.6,0,10.9S325.715,262,329.9,257.334C336.017,250.506,307.128,206.627,286.25,211.107Z" transform="translate(-279.574 -210.786)" fill="#fff9f3"/>
                    <path id="Path_49" data-name="Path 49" d="M288.486,250.408c5.743-2.441,12.195-2.137,18.341-2.543,3.428-.2,9.576-.61,7.056-5.594a37.76,37.76,0,0,0-5.947-7.321c-2.82-2.948-5.744-5.9-8.364-9.05-4-4.632-6.7-9.271-7.93-14.945a15.51,15.51,0,0,0-5.392.151c-2.813.6,23.591,32.52,21.525,33.918s-27.269,2.337-28.009,3.644c-.612,1.076.447,6.866.293,9.616C282.162,254.941,284.658,252.062,288.486,250.408Z" transform="translate(-279.574 -210.785)" fill="#fff"/>
                  </g>
                  <path id="Path_50" data-name="Path 50" d="M303.4,307.033c1.917,1.524,6.049,2.948,8.064,1.218" transform="translate(-207.638 -189.624)" fill="none" stroke="#eadfd3" stroke-miterlimit="10" stroke-width="0.703"/>
                </g>
                <g id="Group_49" data-name="Group 49" transform="translate(29.66 17.954)">
                  <g id="Group_41" data-name="Group 41" transform="translate(23.523 30.314)">
                    <path id="Path_51" data-name="Path 51" d="M267.755,208.29s1.313,10.167,1.286,12.286,11.59.564,11.731-2.823-4.058-12.807-4.058-12.807Z" transform="translate(-267.755 -204.945)" fill="#ffd5cf"/>
                    <path id="Path_52" data-name="Path 52" d="M278.716,209.863c-1.006-2.684-2-4.918-2-4.918l-8.96,3.345s.52,4.025.9,7.538a28.175,28.175,0,0,0,7.43-3.832C277.005,211.311,277.866,210.592,278.716,209.863Z" transform="translate(-267.755 -204.945)" fill="#ffbdae"/>
                  </g>
                  <g id="Group_42" data-name="Group 42" transform="translate(0.746)">
                    <path id="Path_53" data-name="Path 53" d="M251.806,180.309s-7.712,19.2,1.114,31.733,29.57,2.593,32.054-3.2c0,0-3.087-2.508-3.856-10.289S277.689,176.938,251.806,180.309Z" transform="translate(-248.686 -179.79)" fill="#ffd5cf"/>
                    <path id="Path_54" data-name="Path 54" d="M269.161,185.806a23.963,23.963,0,0,1,6.4,5.648c2.344,3.036,4.924,10.036,5.744,10.658-.1-.6-.509-2.88-.575-3.557-.772-7.781-3.429-21.617-29.313-18.245,0,0-.327.823-.769,2.221C257.045,182,263.676,182.42,269.161,185.806Z" transform="translate(-248.304 -179.79)" fill="#ffbdae"/>
                  </g>
                  <g id="Group_47" data-name="Group 47" transform="translate(0 10.603)">
                    <path id="Path_55" data-name="Path 55" d="M261.255,202.18a8.587,8.587,0,0,0-.2,1.734,4.161,4.161,0,0,1-1.072,2.209c-.948,1.01-2.831,1.1-4.117,1.233a.061.061,0,0,0-.017.118,4.746,4.746,0,0,0,4.823-.448c1.353-1.024,2.173-3.392,1.177-4.922A.326.326,0,0,0,261.255,202.18Z" transform="translate(-246.556 -185.849)" fill="#ff8f8f"/>
                    <g id="Group_43" data-name="Group 43" transform="translate(2.816 6.388)">
                      <path id="Path_56" data-name="Path 56" d="M265.547,194.379a.386.386,0,0,0-.7-.3,3.983,3.983,0,0,1-2.373,2.193c-.36.1-.954.283-1.13-.163a7.283,7.283,0,0,1-.442-1.307.149.149,0,0,0-.271-.035,2.434,2.434,0,0,0-.338,1.984,1.689,1.689,0,0,0,1.617,1.033C263.6,197.9,265.266,195.9,265.547,194.379Z" transform="translate(-248.519 -193.889)" fill="#4b2b56"/>
                      <path id="Path_57" data-name="Path 57" d="M253.743,194.374a3.163,3.163,0,0,1-2.031,1.769c-.758.211-.8-1.035-.8-1.518a.029.029,0,0,0-.055-.013c-.53.858-.78,2.067.419,2.46,1.507.493,2.672-1.1,3.179-2.275C254.663,194.315,254,193.892,253.743,194.374Z" transform="translate(-250.419 -193.833)" fill="#4b2b56"/>
                    </g>
                    <path id="Path_58" data-name="Path 58" d="M266.935,196.175a8.04,8.04,0,0,0-1.788.913,5.131,5.131,0,0,0-1.1.718,2.145,2.145,0,0,0,.743,3.673c1.1.407,2.5-.219,3.478-.686,1.163-.558,2.352-1.483,2.383-2.9C270.69,195.977,268.26,195.7,266.935,196.175Z" transform="translate(-245.101 -187.074)" fill="#ff8f8f"/>
                    <path id="Path_59" data-name="Path 59" d="M249.663,195.832a1.664,1.664,0,0,0-1.59,1.874c0,.034.012.07.017.1s-.014.071-.018.1a2.442,2.442,0,0,0,1.12,2.057,2.163,2.163,0,0,0,1.15.339,1.812,1.812,0,0,0,1.482-.868,2.093,2.093,0,0,0-.27-2.374A2.653,2.653,0,0,0,249.663,195.832Z" transform="translate(-248.062 -187.104)" fill="#ff8f8f"/>
                    <path id="Path_60" data-name="Path 60" d="M262.139,189.063a2.478,2.478,0,0,1,1.568.049,2.885,2.885,0,0,1,1.177,1.01.268.268,0,0,0,.444-.26c-.466-1.224-2.19-1.517-3.268-1.086C261.887,188.843,261.952,189.118,262.139,189.063Z" transform="translate(-245.359 -188.588)" fill="#4b2b56"/>
                    <path id="Path_61" data-name="Path 61" d="M253.909,189.731a2.487,2.487,0,0,0-1.568.049,2.874,2.874,0,0,0-1.175,1.01c-.172.193-.542-.008-.444-.26.463-1.223,2.191-1.518,3.268-1.086C254.161,189.511,254.1,189.786,253.909,189.731Z" transform="translate(-247.548 -188.451)" fill="#4b2b56"/>
                    <g id="Group_46" data-name="Group 46" transform="translate(5.438 9.105)">
                      <path id="Path_62" data-name="Path 62" d="M255.962,196.463c-.137.716-.884,3.93-2.33,4.619a1.834,1.834,0,0,0,.481,3.444c1.89.527,3.7-1.336,3.617-3.809S256.217,195.132,255.962,196.463Z" transform="translate(-252.615 -196.144)" fill="#ff8f8f"/>
                      <path id="Path_63" data-name="Path 63" d="M256.084,196.208c.389,2.908-.258,6.28-2.166,8.319,1.867.472,3.637-1.375,3.558-3.822A8.535,8.535,0,0,0,256.084,196.208Z" transform="translate(-252.361 -196.131)" fill="#ea8686"/>
                      <g id="Group_44" data-name="Group 44" transform="translate(0.195 5.341)">
                        <path id="Path_64" data-name="Path 64" d="M253.593,201.852c.111-.377.373-.6.278-1.035a.3.3,0,0,0-.207-.208c-.782-.225-1.046.78-.793,1.339.148.331.632.206.721-.1Z" transform="translate(-252.778 -200.576)" fill="#ffa4a4"/>
                      </g>
                      <g id="Group_45" data-name="Group 45" transform="translate(1.433 4.42)">
                        <path id="Path_65" data-name="Path 65" d="M254.639,200.537a.594.594,0,0,0,.135-.31.331.331,0,0,0-.313-.416.963.963,0,0,0-.425.118c-.584.27.117,1.253.6.607Z" transform="translate(-253.815 -199.812)" fill="#ffa4a4"/>
                      </g>
                    </g>
                  </g>
                  <g id="Group_48" data-name="Group 48" transform="translate(30.034 21.566)">
                    <path id="Path_66" data-name="Path 66" d="M285.115,203.693a5.955,5.955,0,1,1-5.955-6.007A5.983,5.983,0,0,1,285.115,203.693Z" transform="translate(-273.206 -197.686)" fill="#ffd5cf"/>
                    <path id="Path_67" data-name="Path 67" d="M278,202.531a2.54,2.54,0,0,0-.913.389,6.136,6.136,0,0,1,.317-.6,4.493,4.493,0,0,1,3.721-1.779c.094-.007.128-.154.024-.176a4.039,4.039,0,0,0-4.142,1.194,4.88,4.88,0,0,0-.779,5.628.416.416,0,0,0,.756-.321c-.017-.092-.033-.172-.049-.259a10.089,10.089,0,0,0,.221-1.071,1.878,1.878,0,0,1,1.049-1.517c1.022-.424,2.451-.155,2.66,1.082.11.646,1.1.469,1.1-.151C282,202.826,279.743,202.165,278,202.531Z" transform="translate(-272.731 -197.163)" fill="#ffbdae"/>
                  </g>
                </g>
              </g>
            </g>
            <g id="Group_57" data-name="Group 57">
              <g id="Group_55" data-name="Group 55">
                <g id="Group_53" data-name="Group 53">
                  <path id="Rectangle_13" data-name="Rectangle 13" d="M7.99,0h96.788a7.991,7.991,0,0,1,7.991,7.991V90.82a7.991,7.991,0,0,1-7.991,7.991H7.99A7.99,7.99,0,0,1,0,90.821V7.99A7.99,7.99,0,0,1,7.99,0Z" fill="#5b6d75"/>
                  <path id="Path_68" data-name="Path 68" d="M240.629,170.509a9.586,9.586,0,0,0-9.544-9.63h-87.23a9.654,9.654,0,0,0-.988,4.247v79.553a9.587,9.587,0,0,0,9.545,9.63h87.23a9.67,9.67,0,0,0,.987-4.247Z" transform="translate(-142.867 -155.497)" fill="#5b6d75" opacity="0.3" style="mix-blend-mode: multiply;isolation: isolate"/>
                  <g id="Group_52" data-name="Group 52" transform="translate(29.74 29.755)">
                    <path id="Path_69" data-name="Path 69" d="M206.046,200.413A19.141,19.141,0,1,1,186.907,181.1,19.224,19.224,0,0,1,206.046,200.413Z" transform="translate(-167.765 -181.104)" fill="#6d8189"/>
                    <path id="Path_70" data-name="Path 70" d="M196.238,194.683h-5.909v-5.961a1.934,1.934,0,0,0-1.926-1.944h-5.2a1.934,1.934,0,0,0-1.927,1.944v5.961h-5.909a1.935,1.935,0,0,0-1.927,1.944v5.246a1.935,1.935,0,0,0,1.927,1.944h5.909v5.961a1.933,1.933,0,0,0,1.927,1.941h5.2a1.933,1.933,0,0,0,1.926-1.941v-5.961h5.909a1.934,1.934,0,0,0,1.927-1.944v-5.246A1.934,1.934,0,0,0,196.238,194.683Z" transform="translate(-166.661 -179.94)" fill="#5b6d75" opacity="0.3" style="mix-blend-mode: multiply;isolation: isolate"/>
                  </g>
                </g>
                <g id="Group_54" data-name="Group 54" transform="translate(71.401 109.27)">
                  <path id="Path_71" data-name="Path 71" d="M270.107,249.266a2.168,2.168,0,0,1-2.157,2.176H204.8a2.168,2.168,0,0,1-2.157-2.176h0a2.168,2.168,0,0,1,2.157-2.178h63.15a2.168,2.168,0,0,1,2.157,2.178Z" transform="translate(-202.642 -247.088)" fill="#5b6d75"/>
                  <path id="Path_72" data-name="Path 72" d="M229.353,248.663h40.659a2.153,2.153,0,0,0-2.063-1.575H204.8a2.177,2.177,0,0,0,0,4.354h22.489a2.226,2.226,0,0,1-.092-.6A2.168,2.168,0,0,1,229.353,248.663Z" transform="translate(-202.642 -247.088)" fill="#5b6d75" opacity="0.3" style="mix-blend-mode: multiply;isolation: isolate"/>
                </g>
                <path id="Path_73" data-name="Path 73" d="M218.319,248.871c-7.677,0-9.177.518-9.177-2.439v-7.755a8.436,8.436,0,0,0-8.4-8.473H183.377a8.436,8.436,0,0,0-8.4,8.473v7.755a8.469,8.469,0,0,0,4.868,7.679,2.952,2.952,0,0,0,2.006.794h36.469a3.017,3.017,0,0,0,0-6.034Z" transform="translate(-136.622 -141.28)" fill="#5b6d75"/>
                <path id="Path_74" data-name="Path 74" d="M198.695,248.689v-7.755a8.438,8.438,0,0,0-8.4-8.473H177.221a8.474,8.474,0,0,0-2.244,5.752v7.755a8.469,8.469,0,0,0,4.868,7.679,2.952,2.952,0,0,0,2.006.794h28.983C210.844,254.344,198.695,252.989,198.695,248.689Z" transform="translate(-136.622 -140.817)" fill="#5b6d75" opacity="0.3" style="mix-blend-mode: multiply;isolation: isolate"/>
              </g>
              <g id="Group_56" data-name="Group 56" transform="translate(30.541 113.624)">
                <path id="Path_75" data-name="Path 75" d="M168.435,253.141h74.594v139.37a8.437,8.437,0,0,1-8.4,8.473H168.435Z" transform="translate(-168.435 -250.2)" fill="#adafec"/>
                <path id="Path_76" data-name="Path 76" d="M168.435,253.141h74.594v139.37a8.437,8.437,0,0,1-8.4,8.473H218.878a8.475,8.475,0,0,0,4.612-7.555V265.68H168.435Z" transform="translate(-168.435 -250.2)" fill="#393280" opacity="0.5" style="mix-blend-mode: multiply;isolation: isolate"/>
                <rect id="Rectangle_14" data-name="Rectangle 14" width="207.691" height="9.129" transform="translate(0)" fill="#adafec"/>
              </g>
            </g>
          </g>
        </g>
        <g id="Group_67" data-name="Group 67" transform="translate(0 196.982)">
          <g id="Group_61" data-name="Group 61">
            <path id="Rectangle_15" data-name="Rectangle 15" d="M8.654,0h95.487A8.655,8.655,0,0,1,112.8,8.655V59.779a8.655,8.655,0,0,1-8.655,8.655H8.654A8.654,8.654,0,0,1,0,59.78V8.654A8.654,8.654,0,0,1,8.654,0Z" fill="#fff" opacity="0.8"/>
            <g id="Group_60" data-name="Group 60" transform="translate(15.813 11.356)">
              <path id="Path_77" data-name="Path 77" d="M89.14,295.883h0a1.558,1.558,0,0,1-1.522-1.248l-2.637-12.947H58.925a1.564,1.564,0,0,1,0-3.128H86.242a1.557,1.557,0,0,1,1.522,1.25l1.376,6.753,7.177-35.152a1.552,1.552,0,0,1,1.518-1.248h.05a1.554,1.554,0,0,1,1.484,1.353l3.724,27.645,5.7-15.453a1.548,1.548,0,0,1,2.991.342l1.866,14.508H137a1.564,1.564,0,0,1,0,3.128H112.289a1.558,1.558,0,0,1-1.537-1.363l-1.235-9.608L103.842,286.1a1.573,1.573,0,0,1-1.627,1.01,1.557,1.557,0,0,1-1.363-1.344L97.52,261.016l-6.866,33.62A1.55,1.55,0,0,1,89.14,295.883Z" transform="translate(-57.376 -250.162)" fill="#393280"/>
            </g>
          </g>
          <g id="Group_62" data-name="Group 62" transform="translate(364.686 13.87)">
            <path id="Rectangle_16" data-name="Rectangle 16" d="M6.191,0h107.66a6.189,6.189,0,0,1,6.189,6.189V70.771a6.191,6.191,0,0,1-6.191,6.191H6.191A6.191,6.191,0,0,1,0,70.77V6.191A6.191,6.191,0,0,1,6.191,0Z" fill="#fff" opacity="0.8"/>
            <path id="Path_78" data-name="Path 78" d="M380.943,259.864a18.448,18.448,0,0,1,15.6,8.515,18.464,18.464,0,0,1,15.611-8.515,18.737,18.737,0,0,1,18.635,18.8,18.23,18.23,0,0,1-2.4,8.255h23.45a1.909,1.909,0,0,1,0,3.818H419.612a1.878,1.878,0,0,1-1.677-1.029l-3.607-7-3.954,14.752a1.9,1.9,0,0,1-1.681,1.405c-.049,0-.1,0-.147,0a1.887,1.887,0,0,1-1.726-1.128l-4.267-9.591-1.071,1.7a1.883,1.883,0,0,1-1.6.884H388.753a1.909,1.909,0,0,1,0-3.818h10.092l2.4-3.806a1.885,1.885,0,0,1,3.322.242L408.1,291.3l3.838-14.32a1.888,1.888,0,0,1,3.507-.384l5.312,10.317h3.273c1.967-3.218,2.974-6,2.974-8.255a14.933,14.933,0,0,0-14.849-14.983,14.768,14.768,0,0,0-13.847,9.562,1.883,1.883,0,0,1-3.525,0,14.765,14.765,0,0,0-13.844-9.562A14.931,14.931,0,0,0,366.1,278.662c0,10.509,21,28.452,30.45,35.534,2.237-1.7,7.568-5.845,13.144-10.978a1.883,1.883,0,0,1,2.674.125,1.922,1.922,0,0,1-.124,2.7,187.875,187.875,0,0,1-14.584,12.072,1.881,1.881,0,0,1-2.211,0c-1.358-.989-33.134-24.323-33.134-39.453A18.734,18.734,0,0,1,380.943,259.864Z" transform="translate(-346.942 -250.687)" fill="#393280"/>
          </g>
          <g id="Group_64" data-name="Group 64" transform="translate(56.398 57.14)">
            <path id="Rectangle_17" data-name="Rectangle 17" d="M10.25,0H112.492a10.251,10.251,0,0,1,10.251,10.251V67.968a10.25,10.25,0,0,1-10.25,10.25H10.251A10.251,10.251,0,0,1,0,67.967V10.25A10.25,10.25,0,0,1,10.25,0Z" fill="#fff" opacity="0.8"/>
            <g id="Group_63" data-name="Group 63" transform="translate(35.906 13.42)">
              <path id="Path_79" data-name="Path 79" d="M172.343,324.982a25.466,25.466,0,1,1-25.467-25.691A25.578,25.578,0,0,1,172.343,324.982Z" transform="translate(-121.412 -299.291)" fill="#393280"/>
              <path id="Path_80" data-name="Path 80" d="M161.641,317.657H152.98v-8.738a6.667,6.667,0,1,0-13.334,0v8.738h-8.664a6.729,6.729,0,0,0,0,13.457h8.664v8.739a6.667,6.667,0,1,0,13.334,0v-8.739h8.661a6.729,6.729,0,0,0,0-13.457Z" transform="translate(-120.848 -298.696)" fill="#fff"/>
            </g>
          </g>
          <g id="Group_66" data-name="Group 66" transform="translate(329.141 78.504)">
            <rect id="Rectangle_18" data-name="Rectangle 18" width="57.743" height="36.797" rx="4.822" fill="#fff" opacity="0.8"/>
            <g id="Group_65" data-name="Group 65" transform="translate(16.809 15.002)">
              <path id="Path_81" data-name="Path 81" d="M340.489,321.729a3.366,3.366,0,1,1-3.366-3.4A3.38,3.38,0,0,1,340.489,321.729Z" transform="translate(-333.758 -318.332)" fill="#393280"/>
              <path id="Path_82" data-name="Path 82" d="M347.773,321.729a3.367,3.367,0,1,1-3.366-3.4A3.381,3.381,0,0,1,347.773,321.729Z" transform="translate(-332.342 -318.332)" fill="#393280"/>
              <path id="Path_83" data-name="Path 83" d="M355.054,321.729a3.367,3.367,0,1,1-3.367-3.4A3.383,3.383,0,0,1,355.054,321.729Z" transform="translate(-330.926 -318.332)" fill="#393280"/>
            </g>
          </g>
        </g>
      </g>
    </g>
  </g>
</svg>
