<svg xmlns="http://www.w3.org/2000/svg" width="291.691" height="160.185" viewBox="0 0 291.691 160.185">
  <g id="Group_56" data-name="Group 56" transform="translate(-141.578 -165.517)">
    <path id="Path_4" data-name="Path 4" d="M213.7,325.282s-21.732-62.953-6.818-99.825c17.441-43.118,74.839-71.661,112.65-55.235,59.105,25.677,59.232,21.44,97.751,15.989,44.985-6.366,85.76,65.41,52.215,138.889Z" transform="translate(-54.172 0)" fill="#edf4ff"/>
    <g id="Group_2" data-name="Group 2" transform="translate(271.438 201.113)" opacity="0.5">
      <rect id="Rectangle_7" data-name="Rectangle 7" width="48.851" height="48.084" transform="translate(0.266 0.266)" fill="#d2e0ff"/>
      <g id="Group_1" data-name="Group 1" transform="translate(0 0)">
        <path id="Path_5" data-name="Path 5" d="M1512.053,576.256h-49.383V527.641h49.383Zm-48.851-.531h48.32V528.172H1463.2Z" transform="translate(-1462.671 -527.641)" fill="#88a6ea"/>
      </g>
    </g>
    <g id="Group_3" data-name="Group 3" transform="translate(279.551 210.248)">
      <rect id="Rectangle_8" data-name="Rectangle 8" width="33.827" height="24.988" transform="translate(33.827 24.988) rotate(180)" fill="#2b478b"/>
      <path id="Path_6" data-name="Path 6" d="M1599.519,658l5.519,8.42a1.988,1.988,0,0,0,2.234.806,12.451,12.451,0,0,1,6.557-.115,2.035,2.035,0,0,0,2.253-.909c1.952-3.216,4.094-6.663,5.778-9.164a1.79,1.79,0,0,0-.057-2.069,14.489,14.489,0,0,0-22.233.2A2.519,2.519,0,0,0,1599.519,658Z" transform="translate(-1593.808 -646.992)" fill="#699dee"/>
      <rect id="Rectangle_9" data-name="Rectangle 9" width="2.996" height="0.446" transform="translate(32.261 23.431) rotate(180)" fill="#699dee"/>
      <rect id="Rectangle_10" data-name="Rectangle 10" width="2.996" height="0.446" transform="translate(32.261 22.517) rotate(180)" fill="#699dee"/>
      <rect id="Rectangle_11" data-name="Rectangle 11" width="2.996" height="0.446" transform="translate(4.597 1.38) rotate(180)" fill="#699dee"/>
      <rect id="Rectangle_12" data-name="Rectangle 12" width="2.996" height="0.446" transform="translate(4.597 2.527) rotate(180)" fill="#699dee"/>
      <path id="Path_7" data-name="Path 7" d="M1666.554,684.852s.248-1.754.6-2.023,2.931-2.872.445-4.25-4.256-.6-4.919.271-.675,1.281-.33,1.975-.206.726-.082,1.363-.058,1.311.512,1.471.066.806-.306.434-.549-1.431-.859-1.844-.852-.15-.77.373.458,1.4.24,1.763-1.016-.055-1.828.415-.361-.411-1.019-1.1-1.891-.686-2.121-.081.9,1.1.946,1.777-.136,2.219,2.346,3.308S1666.947,687.315,1666.554,684.852Z" transform="translate(-1645.187 -672.2)" fill="#ebf4ff" opacity="0.5"/>
    </g>
    <g id="Group_8" data-name="Group 8" transform="translate(374.876 282.771)">
      <path id="Path_8" data-name="Path 8" d="M2514.963,1359.027v1.047c0,.367.119.666.263.666h38.208c.145,0,.263-.3.263-.666v-1.047c0-.366-.119-.666-.263-.666h-38.208C2515.082,1358.361,2514.963,1358.661,2514.963,1359.027Z" transform="translate(-2514.963 -1358.361)" fill="#8fadef"/>
      <path id="Path_9" data-name="Path 9" d="M2514.963,1359.027v1.047c0,.367.109.666.242.666h30.333c.133,0,.242-.3.242-.666v-1.047c0-.366-.109-.666-.242-.666H2515.2C2515.072,1358.361,2514.963,1358.661,2514.963,1359.027Z" transform="translate(-2514.963 -1358.361)" fill="#bbd0ff"/>
      <rect id="Rectangle_13" data-name="Rectangle 13" width="27.125" height="39.537" transform="translate(36.796 41.916) rotate(180)" fill="#aec3ff"/>
      <rect id="Rectangle_14" data-name="Rectangle 14" width="27.125" height="39.537" transform="translate(29.194 41.916) rotate(180)" fill="#d2e0ff"/>
      <g id="Group_7" data-name="Group 7" transform="translate(3.526 3.496)">
        <g id="Group_4" data-name="Group 4">
          <path id="Path_10" data-name="Path 10" d="M2550.835,1393.927h24.21v36.237h-24.21Zm23.949.261H2551.1V1429.9h23.688Z" transform="translate(-2550.835 -1393.927)" fill="#aec3ff"/>
        </g>
        <g id="Group_5" data-name="Group 5" transform="translate(0.131 11.987)">
          <rect id="Rectangle_15" data-name="Rectangle 15" width="23.949" height="0.261" fill="#aec3ff"/>
        </g>
        <g id="Group_6" data-name="Group 6" transform="translate(0.131 24.208)">
          <rect id="Rectangle_16" data-name="Rectangle 16" width="23.949" height="0.261" fill="#aec3ff"/>
        </g>
        <path id="Path_11" data-name="Path 11" d="M2645.42,1410.507h4.444a.393.393,0,0,0,.392-.392h0a.393.393,0,0,0-.392-.392h-4.444a.393.393,0,0,0-.392.392h0A.393.393,0,0,0,2645.42,1410.507Z" transform="translate(-2635.769 -1408.17)" fill="#aec3ff"/>
        <path id="Path_12" data-name="Path 12" d="M2645.42,1532.086h4.444a.393.393,0,0,0,.392-.392h0a.393.393,0,0,0-.392-.392h-4.444a.393.393,0,0,0-.392.392h0A.393.393,0,0,0,2645.42,1532.086Z" transform="translate(-2635.769 -1517.798)" fill="#aec3ff"/>
        <path id="Path_13" data-name="Path 13" d="M2645.42,1658.822h4.444a.393.393,0,0,0,.392-.392h0a.393.393,0,0,0-.392-.392h-4.444a.393.393,0,0,0-.392.392h0A.393.393,0,0,0,2645.42,1658.822Z" transform="translate(-2635.769 -1632.076)" fill="#aec3ff"/>
      </g>
    </g>
    <g id="Group_15" data-name="Group 15" transform="translate(370.821 238.758)">
      <g id="Group_10" data-name="Group 10" transform="translate(3.666 17.495)">
        <path id="Path_14" data-name="Path 14" d="M2527.959,1096s3.066-3.576.189-5.848a8.161,8.161,0,0,0-3.814-1.169s2.427,4.071,1.642,4.476-2.378-4.731-2.378-4.731-4.782-.464-6.32.276c0,0,4.087,3.345,3.227,3.544s-5.276-3.084-5.276-3.084-4.45.757-4.213,3.472,1.771,3.553,2.445,3.481,4.616-1.577,4.7-1.025-2.287,2.357-3.949,2.441c0,0,3.137,3.46,5.223,2.462s2.263-2.582,3.563-3.175,2.409-.592,1.873.013-2.889,1.194-3.632,2.509-1.41,2.2.747,1.877,5.664-1.9,5.818-3.711Z" transform="translate(-2511.007 -1088.585)" fill="#aec3ff"/>
        <g id="Group_9" data-name="Group 9" transform="translate(2.196 4.404)">
          <path id="Path_15" data-name="Path 15" d="M2533.346,1133.407s12.087-.466,14.757,2.991a8.738,8.738,0,0,0,2.407,3.378l.283.772s-2.095-2.208-2.844-2.342C2547.948,1138.206,2549.12,1133.923,2533.346,1133.407Z" transform="translate(-2533.346 -1133.386)" fill="#aec3ff"/>
          <path id="Path_16" data-name="Path 16" d="M2701.691,1195.6a7.59,7.59,0,0,1,2.775,5.347l-.471.042s-.829-3.545-2.326-4.931S2701.691,1195.6,2701.691,1195.6Z" transform="translate(-2684.528 -1189.211)" fill="#aec3ff"/>
        </g>
      </g>
      <g id="Group_12" data-name="Group 12" transform="translate(28.131 7.784)">
        <path id="Path_17" data-name="Path 17" d="M2763.1,1002.43s-4.876-2.731-2.6-6.437a9.683,9.683,0,0,1,3.771-2.861s-1.041,5.527,0,5.657.715-6.242.715-6.242,5.136-2.471,7.152-2.276c0,0-3.186,5.4-2.146,5.267s4.616-5.592,4.616-5.592,5.267-.975,6.112,2.146-.52,4.682-1.3,4.877-5.787.13-5.657.78,3.511,1.69,5.4,1.105c0,0-2.081,5.137-4.812,4.876s-3.576-1.951-5.267-2.081-2.926.325-2.081.78,3.706.149,5.072,1.31,2.471,1.876-.065,2.4-7.087.2-8-1.756Z" transform="translate(-2759.89 -989.802)" fill="#d4e4f8"/>
        <g id="Group_11" data-name="Group 11" transform="translate(0.63 3.265)">
          <path id="Path_18" data-name="Path 18" d="M2795.789,1023.02s-13.654,4.421-15.215,9.363a10.37,10.37,0,0,1-1.3,4.746v.975s1.43-3.316,2.211-3.771C2781.485,1034.333,2778.429,1030.042,2795.789,1023.02Z" transform="translate(-2777.999 -1023.02)" fill="#d4e4f8"/>
          <path id="Path_19" data-name="Path 19" d="M2767.577,1160.99a9.005,9.005,0,0,0-.905,7.09l.542-.145s-.526-4.287.576-6.444S2767.577,1160.99,2767.577,1160.99Z" transform="translate(-2766.302 -1146.88)" fill="#d4e4f8"/>
        </g>
      </g>
      <g id="Group_14" data-name="Group 14" transform="translate(0 0)">
        <path id="Path_20" data-name="Path 20" d="M2497.287,927.256s6.428-3.6,3.429-8.485c0,0-2.4-3-4.971-3.771,0,0,1.371,7.285,0,7.457s-.943-8.228-.943-8.228-6.771-3.257-9.428-3c0,0,4.2,7.114,2.828,6.942s-6.085-7.371-6.085-7.371-6.942-1.286-8.056,2.828.686,6.171,1.714,6.428,7.628.171,7.457,1.029-4.628,2.228-7.114,1.457c0,0,2.743,6.771,6.343,6.428s4.714-2.571,6.942-2.743,3.857.429,2.743,1.028-4.885.2-6.685,1.727-3.257,2.473.086,3.159,9.342.257,10.542-2.314Z" transform="translate(-2473.708 -910.61)" fill="#d2e0ff"/>
        <g id="Group_13" data-name="Group 13" transform="translate(3.523 4.304)">
          <path id="Path_21" data-name="Path 21" d="M2509.547,954.4s18,5.828,20.056,12.342a13.674,13.674,0,0,0,1.714,6.257v1.286s-1.885-4.371-2.914-4.971C2528.4,969.311,2532.431,963.654,2509.547,954.4Z" transform="translate(-2509.547 -954.398)" fill="#d4e4f8"/>
          <path id="Path_22" data-name="Path 22" d="M2723.129,1136.267a11.873,11.873,0,0,1,1.193,9.346l-.714-.192s.693-5.651-.759-8.494S2723.129,1136.267,2723.129,1136.267Z" transform="translate(-2701.359 -1117.668)" fill="#d4e4f8"/>
        </g>
      </g>
      <path id="Path_23" data-name="Path 23" d="M2600.276,1236.373a12.592,12.592,0,0,1-12.592-12.592h25.184A12.592,12.592,0,0,1,2600.276,1236.373Z" transform="translate(-2576.48 -1192.997)" fill="#aec3ff"/>
      <path id="Path_24" data-name="Path 24" d="M2585.915,1344.147h25.531a1.553,1.553,0,0,0-1.553-1.553h-22.425a1.553,1.553,0,0,0-1.553,1.553Z" transform="translate(-2574.885 -1300.131)" fill="#aec3ff"/>
      <rect id="Rectangle_17" data-name="Rectangle 17" width="25.884" height="0.386" transform="translate(36.801 31.17) rotate(180)" fill="#bbd0ff"/>
    </g>
    <g id="Group_22" data-name="Group 22" transform="translate(159.287 280.726)">
      <g id="Group_17" data-name="Group 17" transform="translate(23.4 17.477)">
        <path id="Path_25" data-name="Path 25" d="M599.436,1522.751s-3.062-3.573-.189-5.842a8.152,8.152,0,0,1,3.811-1.167s-2.425,4.067-1.641,4.471,2.376-4.726,2.376-4.726,4.777-.463,6.313.276c0,0-4.083,3.342-3.223,3.541s5.271-3.081,5.271-3.081,4.446.757,4.209,3.469-1.769,3.549-2.442,3.477-4.612-1.575-4.7-1.024,2.285,2.354,3.945,2.439c0,0-3.134,3.457-5.217,2.459s-2.261-2.579-3.559-3.172-2.407-.592-1.871.013,2.886,1.193,3.629,2.506,1.409,2.2-.746,1.875-5.658-1.9-5.812-3.707Z" transform="translate(-594.26 -1515.343)" fill="#aec3ff"/>
        <g id="Group_16" data-name="Group 16" transform="translate(0 4.399)">
          <path id="Path_26" data-name="Path 26" d="M602.541,1560.118s-12.075-.465-14.741,2.988a8.732,8.732,0,0,1-2.4,3.375l-.283.771s2.092-2.206,2.841-2.34C587.954,1564.911,586.783,1560.633,602.541,1560.118Z" transform="translate(-582.624 -1560.097)" fill="#aec3ff"/>
          <path id="Path_27" data-name="Path 27" d="M562.565,1622.249a7.581,7.581,0,0,0-2.772,5.341l.47.042s.828-3.541,2.324-4.926S562.565,1622.249,562.565,1622.249Z" transform="translate(-559.793 -1615.866)" fill="#aec3ff"/>
        </g>
      </g>
      <g id="Group_19" data-name="Group 19" transform="translate(0 7.776)">
        <path id="Path_28" data-name="Path 28" d="M339.609,1429.276s4.872-2.728,2.6-6.43a9.673,9.673,0,0,0-3.767-2.858s1.039,5.521,0,5.651-.715-6.236-.715-6.236-5.131-2.468-7.145-2.273c0,0,3.183,5.391,2.143,5.261s-4.612-5.586-4.612-5.586-5.261-.974-6.106,2.144.52,4.677,1.3,4.871,5.781.13,5.651.78-3.507,1.689-5.391,1.1c0,0,2.078,5.131,4.807,4.871s3.572-1.949,5.261-2.079,2.923.325,2.079.78-3.7.149-5.066,1.308-2.468,1.874.065,2.394,7.08.195,7.989-1.754Z" transform="translate(-321.74 -1416.661)" fill="#d4e4f8"/>
        <g id="Group_18" data-name="Group 18" transform="translate(2.67 3.262)">
          <path id="Path_29" data-name="Path 29" d="M348.9,1449.845s13.64,4.417,15.2,9.353a10.362,10.362,0,0,0,1.3,4.742v.974s-1.429-3.313-2.208-3.767C363.19,1461.147,366.243,1456.86,348.9,1449.845Z" transform="translate(-348.9 -1449.845)" fill="#d4e4f8"/>
          <path id="Path_30" data-name="Path 30" d="M510.762,1587.673a9,9,0,0,1,.9,7.083l-.541-.146s.525-4.283-.575-6.437S510.762,1587.673,510.762,1587.673Z" transform="translate(-494.263 -1573.578)" fill="#d4e4f8"/>
        </g>
      </g>
      <g id="Group_21" data-name="Group 21" transform="translate(21.397)">
        <path id="Path_31" data-name="Path 31" d="M543.642,1354.18s-6.422-3.6-3.425-8.477c0,0,2.4-3,4.966-3.767,0,0-1.37,7.278,0,7.449s.942-8.22.942-8.22,6.764-3.254,9.418-3c0,0-4.2,7.107-2.826,6.935s6.079-7.363,6.079-7.363,6.935-1.284,8.048,2.826-.685,6.165-1.712,6.422-7.62.171-7.449,1.027,4.624,2.226,7.107,1.456c0,0-2.74,6.764-6.336,6.422s-4.709-2.569-6.935-2.74-3.853.428-2.74,1.027,4.88.2,6.678,1.725,3.254,2.47-.086,3.155-9.333.257-10.531-2.312Z" transform="translate(-539.421 -1337.55)" fill="#d2e0ff"/>
        <g id="Group_20" data-name="Group 20" transform="translate(0.83 4.3)">
          <path id="Path_32" data-name="Path 32" d="M586.695,1381.293s-17.98,5.822-20.035,12.329a13.66,13.66,0,0,1-1.712,6.25v1.284s1.884-4.367,2.911-4.966C567.858,1396.191,563.834,1390.54,586.695,1381.293Z" transform="translate(-563.268 -1381.293)" fill="#d4e4f8"/>
          <path id="Path_33" data-name="Path 33" d="M549.544,1562.977a11.859,11.859,0,0,0-1.192,9.336l.713-.192s-.693-5.646.758-8.485S549.544,1562.977,549.544,1562.977Z" transform="translate(-547.865 -1544.397)" fill="#d4e4f8"/>
        </g>
      </g>
      <path id="Path_34" data-name="Path 34" d="M464.779,1662.979a12.579,12.579,0,0,0,12.579-12.579H452.2A12.579,12.579,0,0,0,464.779,1662.979Z" transform="translate(-439.376 -1619.647)" fill="#aec3ff"/>
      <path id="Path_35" data-name="Path 35" d="M475.938,1770.643H450.433a1.552,1.552,0,0,1,1.552-1.552h22.4a1.552,1.552,0,0,1,1.552,1.552Z" transform="translate(-437.783 -1726.671)" fill="#aec3ff"/>
      <rect id="Rectangle_18" data-name="Rectangle 18" width="25.857" height="0.386" transform="translate(12.41 30.752)" fill="#bbd0ff"/>
    </g>
    <g id="Group_29" data-name="Group 29" transform="translate(189.358 197.255)">
      <rect id="Rectangle_19" data-name="Rectangle 19" width="22.078" height="21.419" rx="10.709" transform="translate(0 0)" fill="#c0d8fb"/>
      <rect id="Rectangle_20" data-name="Rectangle 20" width="20.165" height="19.563" rx="9.782" transform="translate(0.956 0.928)" fill="#dfebfd"/>
      <g id="Group_25" data-name="Group 25" transform="translate(2.607 2.425)">
        <g id="Group_23" data-name="Group 23" transform="translate(7.975)">
          <path id="Path_36" data-name="Path 36" d="M735.3,513.518a.457.457,0,1,1,.457.457A.457.457,0,0,1,735.3,513.518Z" transform="translate(-735.3 -513.061)" fill="#b7d3f3"/>
          <path id="Path_37" data-name="Path 37" d="M772.313,522.132a.457.457,0,1,1,.178.622A.457.457,0,0,1,772.313,522.132Z" transform="translate(-768.623 -521.028)" fill="#b7d3f3"/>
          <path id="Path_38" data-name="Path 38" d="M803.084,549.171a.457.457,0,1,1-.136.632A.457.457,0,0,1,803.084,549.171Z" transform="translate(-796.232 -545.556)" fill="#b7d3f3"/>
          <path id="Path_39" data-name="Path 39" d="M816.741,589.392a.457.457,0,1,1-.457.457A.457.457,0,0,1,816.741,589.392Z" transform="translate(-808.323 -581.889)" fill="#b7d3f3"/>
          <path id="Path_40" data-name="Path 40" d="M805.64,634.061a.457.457,0,1,1-.647,0A.457.457,0,0,1,805.64,634.061Z" transform="translate(-798.022 -622.046)" fill="#b7d3f3"/>
          <path id="Path_41" data-name="Path 41" d="M776.424,663.353a.457.457,0,1,1-.647,0A.457.457,0,0,1,776.424,663.353Z" transform="translate(-771.678 -648.459)" fill="#b7d3f3"/>
          <path id="Path_42" data-name="Path 42" d="M735.3,675.485a.457.457,0,1,1,.457.457A.457.457,0,0,1,735.3,675.485Z" transform="translate(-735.3 -659.107)" fill="#b7d3f3"/>
        </g>
        <g id="Group_24" data-name="Group 24" transform="translate(0 0.868)">
          <path id="Path_43" data-name="Path 43" d="M699.053,522.132a.457.457,0,1,0-.178.622A.457.457,0,0,0,699.053,522.132Z" transform="translate(-693.868 -521.896)" fill="#b7d3f3"/>
          <path id="Path_44" data-name="Path 44" d="M668.283,549.171a.457.457,0,1,0,.136.632A.457.457,0,0,0,668.283,549.171Z" transform="translate(-666.259 -546.424)" fill="#b7d3f3"/>
          <path id="Path_45" data-name="Path 45" d="M654.626,589.392a.457.457,0,1,0,.457.457A.457.457,0,0,0,654.626,589.392Z" transform="translate(-654.169 -582.757)" fill="#b7d3f3"/>
          <path id="Path_46" data-name="Path 46" d="M665.727,634.061a.457.457,0,1,0,.647,0A.457.457,0,0,0,665.727,634.061Z" transform="translate(-664.47 -622.915)" fill="#b7d3f3"/>
          <circle id="Ellipse_7" data-name="Ellipse 7" cx="0.457" cy="0.457" r="0.457" transform="translate(3.995 13.892)" fill="#b7d3f3"/>
        </g>
      </g>
      <g id="Group_28" data-name="Group 28" transform="translate(10.916 4.673)">
        <path id="Path_47" data-name="Path 47" d="M738.7,589.849a.457.457,0,1,1,.457.457A.457.457,0,0,1,738.7,589.849Z" transform="translate(-738.698 -584.136)" fill="#b7d3f3"/>
        <g id="Group_26" data-name="Group 26" transform="translate(0.395)">
          <rect id="Rectangle_21" data-name="Rectangle 21" width="0.125" height="5.713" fill="#b7d3f3"/>
        </g>
        <g id="Group_27" data-name="Group 27" transform="translate(0.284 3.18)">
          <rect id="Rectangle_22" data-name="Rectangle 22" width="3.851" height="0.375" transform="matrix(0.787, -0.617, 0.617, 0.787, 0, 2.378)" fill="#b7d3f3"/>
        </g>
      </g>
    </g>
    <g id="Group_30" data-name="Group 30" transform="translate(288.967 237.942)">
      <rect id="Rectangle_23" data-name="Rectangle 23" width="4.183" height="3.924" transform="matrix(0.983, -0.185, 0.185, 0.983, 0, 0.774)" fill="#abddda"/>
      <rect id="Rectangle_24" data-name="Rectangle 24" width="4.183" height="0.721" transform="matrix(0.983, -0.185, 0.185, 0.983, 0.004, 0.795)" fill="#91cecf"/>
    </g>
    <g id="Group_31" data-name="Group 31" transform="translate(310.765 237.882)">
      <rect id="Rectangle_25" data-name="Rectangle 25" width="4.183" height="3.924" transform="translate(0 0.774) rotate(-10.66)" fill="#abddda"/>
      <rect id="Rectangle_26" data-name="Rectangle 26" width="4.183" height="0.721" transform="translate(0.004 0.795) rotate(-10.659)" fill="#91cecf"/>
    </g>
    <g id="Group_32" data-name="Group 32" transform="translate(296.605 241.191)">
      <rect id="Rectangle_27" data-name="Rectangle 27" width="5.346" height="5.015" transform="translate(1.262 0) rotate(14.571)" fill="#f99746"/>
      <rect id="Rectangle_28" data-name="Rectangle 28" width="5.346" height="0.921" transform="translate(1.255 0.027) rotate(14.571)" fill="#ed7d2b"/>
    </g>
    <g id="Group_36" data-name="Group 36" transform="translate(317.184 245.587)">
      <g id="Group_33" data-name="Group 33" transform="translate(30.427 40.962)">
        <path id="Path_48" data-name="Path 48" d="M2240.776,1434.883h.062a.611.611,0,0,0,.651-.579l-.987-37.212-2.907-.3,2.479,37.51A.669.669,0,0,0,2240.776,1434.883Z" transform="translate(-2237.595 -1396.796)" fill="#91b0f2"/>
      </g>
      <g id="Group_34" data-name="Group 34" transform="translate(45.43 40.962)">
        <path id="Path_49" data-name="Path 49" d="M2393.4,1434.883h.062a.611.611,0,0,0,.651-.579l-.987-37.212-2.907-.3,2.479,37.51A.669.669,0,0,0,2393.4,1434.883Z" transform="translate(-2390.215 -1396.796)" fill="#91b0f2"/>
      </g>
      <g id="Group_35" data-name="Group 35" transform="translate(1.153 40.962)">
        <path id="Path_50" data-name="Path 50" d="M1940.49,1434.883h-.062a.611.611,0,0,1-.651-.579l.987-37.212,2.907-.3-2.479,37.51A.669.669,0,0,1,1940.49,1434.883Z" transform="translate(-1939.777 -1396.796)" fill="#91b0f2"/>
      </g>
      <path id="Path_51" data-name="Path 51" d="M2077.135,1018.727v-29.31a9.338,9.338,0,0,0-9.338-9.338h-21.117a9.338,9.338,0,0,0-9.338,9.338v30.43Z" transform="translate(-2026.598 -980.078)" fill="#91b0f2"/>
      <path id="Rectangle_29" data-name="Rectangle 29" d="M4.627,0h38.95a0,0,0,0,1,0,0V4.627a0,0,0,0,1,0,0H0a0,0,0,0,1,0,0v0A4.627,4.627,0,0,1,4.627,0Z" transform="translate(50.537 43.276) rotate(180)" fill="#91b0f2"/>
      <path id="Rectangle_30" data-name="Rectangle 30" d="M2.314,0H32.68a2.314,2.314,0,0,1,2.314,2.314v0A2.314,2.314,0,0,1,32.68,4.627H2.314A2.314,2.314,0,0,1,0,2.314v0A2.314,2.314,0,0,1,2.314,0Z" transform="translate(34.993 43.276) rotate(180)" fill="#aec3ff"/>
    </g>
    <g id="Group_37" data-name="Group 37" transform="translate(174.936 245.477)">
      <path id="Path_52" data-name="Path 52" d="M495.391,999.328l30.847.052L521.7,979.028l-30.847-.052Z" transform="translate(-489.874 -978.974)" fill="#42669b"/>
      <path id="Path_53" data-name="Path 53" d="M485.479,999.337l30.847.052-4.541-20.378-30.847-.052Z" transform="translate(-480.938 -978.959)" fill="#6284bf"/>
      <path id="Path_54" data-name="Path 54" d="M625.52,1113.854l6.408.059-4.436-13.522-6.408-.058Z" transform="translate(-607.308 -1088.401)" fill="#42669b"/>
      <rect id="Rectangle_31" data-name="Rectangle 31" width="10.358" height="0.645" transform="translate(24.378 25.511) rotate(180)" fill="#42669b"/>
    </g>
    <g id="Group_43" data-name="Group 43" transform="translate(164.118 229.308)">
      <g id="Group_41" data-name="Group 41">
        <g id="Group_39" data-name="Group 39">
          <g id="Group_38" data-name="Group 38" transform="translate(0.512 0.942)">
            <path id="Path_55" data-name="Path 55" d="M383.1,863.148h.671V851.6L376.9,834.084l12.254-9.5-.411-.53-12.651,9.8,7,17.862Z" transform="translate(-376.096 -824.058)" fill="#42669b"/>
          </g>
          <path id="Path_56" data-name="Path 56" d="M503.8,817.157h0a.684.684,0,0,0,.163-.954l-1.021-1.44a.684.684,0,0,0-.954-.163h0a.684.684,0,0,0-.162.954l1.021,1.44A.684.684,0,0,0,503.8,817.157Z" transform="translate(-488.837 -814.475)" fill="#42669b"/>
          <circle id="Ellipse_8" data-name="Ellipse 8" cx="0.888" cy="0.888" r="0.888" transform="translate(0 10.107) rotate(-13.335)" fill="#42669b"/>
        </g>
        <g id="Group_40" data-name="Group 40" transform="translate(4.591 29.299)">
          <path id="Rectangle_32" data-name="Rectangle 32" d="M0,0H6.75a0,0,0,0,1,0,0V0A1.922,1.922,0,0,1,4.829,1.922H1.847A1.847,1.847,0,0,1,0,.074V0A0,0,0,0,1,0,0Z" transform="translate(6.75 12.322) rotate(180)" fill="#42669b"/>
          <rect id="Rectangle_33" data-name="Rectangle 33" width="1.418" height="10.733" transform="translate(3.969 10.733) rotate(180)" fill="#42669b"/>
        </g>
      </g>
      <g id="Group_42" data-name="Group 42" transform="translate(11.577 0.451)">
        <path id="Path_57" data-name="Path 57" d="M490.522,831.259c.032.036.064.072.1.105l.007.008c.031.035.063.068.095.1.917.8,3.955-.63,6.894-3.259s4.694-5.489,4.006-6.488c-.029-.036-.058-.07-.09-.105l-.007-.008c-.03-.036-.062-.072-.094-.108a7.317,7.317,0,0,0-10.908,9.754Z" transform="translate(-488.659 -819.065)" fill="#f99746"/>
        <path id="Path_58" data-name="Path 58" d="M507.053,852.518l.007.007c.01.013.02.025.03.037a.586.586,0,0,0,.065.064c.916.795,3.955-.629,6.893-3.259s4.694-5.488,4.007-6.487a.808.808,0,0,0-.057-.072.213.213,0,0,0-.034-.034l-.007-.008c-.624-.59-2.318-.064-4.3,1.218A21.626,21.626,0,0,0,511.04,846a22.886,22.886,0,0,0-1.87,1.875C507.387,849.9,506.488,851.77,507.053,852.518Z" transform="translate(-505.094 -840.218)" fill="#f9ddbf"/>
        <path id="Path_59" data-name="Path 59" d="M530.127,861.258a3.016,3.016,0,0,0,4.491-3.894A21.631,21.631,0,0,0,532,859.383,22.9,22.9,0,0,0,530.127,861.258Z" transform="translate(-526.051 -853.599)" fill="#ffefe1"/>
      </g>
    </g>
    <g id="Group_50" data-name="Group 50" transform="translate(217.534 204.77)">
      <g id="Group_45" data-name="Group 45" transform="translate(0 39.508)">
        <g id="Group_44" data-name="Group 44" transform="translate(6.411 44.531)">
          <path id="Path_60" data-name="Path 60" d="M1121.841,1454.224h-2.706l-.759-34.438h4.134Z" transform="translate(-1104.725 -1419.786)" fill="#aec3ff"/>
          <path id="Path_61" data-name="Path 61" d="M1031.845,1737.222h-26.32v-2.377l13.415-1.21,12.905,1.21Z" transform="translate(-1002.968 -1702.784)" fill="#aec3ff"/>
          <path id="Path_62" data-name="Path 62" d="M979.513,1746.471a2.165,2.165,0,1,1,2.165,2.165A2.165,2.165,0,0,1,979.513,1746.471Z" transform="translate(-979.513 -1712.406)" fill="#aec3ff"/>
          <circle id="Ellipse_9" data-name="Ellipse 9" cx="2.165" cy="2.165" r="2.165" transform="translate(25.656 32.893) rotate(-22.5)" fill="#aec3ff"/>
          <path id="Path_63" data-name="Path 63" d="M1018.83,1422.045H994.4a2.259,2.259,0,0,1-2.259-2.259h28.952A2.259,2.259,0,0,1,1018.83,1422.045Z" transform="translate(-990.896 -1419.786)" fill="#aec3ff"/>
        </g>
        <path id="Path_64" data-name="Path 64" d="M918.891,1011.294a3.757,3.757,0,0,1-3.757-3.757V977.523c0-5.942,3.885-10.76,8.678-10.76h19.623c4.793,0,8.678,4.817,8.678,10.76v33.771Z" transform="translate(-915.051 -966.763)" fill="#f99746"/>
        <path id="Path_65" data-name="Path 65" d="M938.4,1011.294a2.06,2.06,0,0,1-2.06-2.06V977.523c0-5.942,3.885-10.76,8.678-10.76h19.623c4.793,0,8.678,4.817,8.678,10.76v33.771Z" transform="translate(-934.176 -966.763)" fill="#ed7d2b"/>
        <path id="Path_66" data-name="Path 66" d="M964,1376.109H916.675a2.381,2.381,0,0,1-2.381-2.381h0a2.381,2.381,0,0,1,2.381-2.381H964a2.381,2.381,0,0,1,2.381,2.381h0A2.381,2.381,0,0,1,964,1376.109Z" transform="translate(-914.294 -1331.577)" fill="#f99746"/>
      </g>
      <g id="Group_49" data-name="Group 49" transform="translate(10.23)">
        <path id="Path_67" data-name="Path 67" d="M1033.256,567.1c-.127-.3-1.612-3.476-6.653-1.742,0,0,2.558-.645,3.393.269,0,0-2.175-.691-3.368.255s-1.08,3.629-.789,4.414,2.01,3.017,2.953,2.9a2.813,2.813,0,0,0,1.043-.4,12.594,12.594,0,0,0-.212,1.449c-.425,4.836,3.147,8.035,4.659,6.952.97-.695,1.979,1.028,1.979,1.028l7.228-12.487S1036.6,563.255,1033.256,567.1Z" transform="translate(-1024.93 -564.845)" fill="#2c3a64"/>
        <path id="Path_68" data-name="Path 68" d="M1134.843,746.167c-6.846,3.06-11.992-7.74-11.545-7.85.684-.774,1.39-3.533.889-7.5l.355.024,5.953.441s.093,1.847.3,3.569a10.22,10.22,0,0,0,.564,2.683,5.644,5.644,0,0,0,1.364.329C1132.822,737.97,1136.669,745.352,1134.843,746.167Z" transform="translate(-1112.959 -714.5)" fill="#ffb27d"/>
        <path id="Path_69" data-name="Path 69" d="M1574.9,1727.42h-12a6.586,6.586,0,0,1,.339-3.216c.6-1.331.984-1.7.332-3.235.762.785,2.989,1.352,4.723,1.119a13.168,13.168,0,0,0,2.082,2.7C1571.162,1725.351,1574.657,1725.15,1574.9,1727.42Z" transform="translate(-1509.316 -1607.326)" fill="#233862"/>
        <path id="Path_70" data-name="Path 70" d="M1360,1721.582h-12a6.588,6.588,0,0,1,.339-3.216c.6-1.331,1.77-2.221,2.114-3.757.762.785,1.206,1.874,2.941,1.641a13.164,13.164,0,0,0,2.082,2.7C1356.261,1719.512,1359.757,1719.312,1360,1721.582Z" transform="translate(-1315.539 -1601.591)" fill="#233862"/>
        <g id="Group_46" data-name="Group 46" transform="translate(17.966 24.052)">
          <path id="Path_71" data-name="Path 71" d="M1241.621,811.319l1.4,1.94s-.611.526-1.586,1.362c-.295.248-.473.383-.473.383-.788.661-1.756,1.43-2.809,2.273l-.012.015c-1.836,1.413-3.926,2.968-5.824,4.169q-.258.16-.509.311a17.274,17.274,0,0,1-3.078,1.519,2.249,2.249,0,0,1-.3.084c-2.517.677-7.6-.205-12.579-1.726-.688-.208-1.366-.431-2.029-.643a49.245,49.245,0,0,1-6.621-2.705,19.429,19.429,0,0,1-2.844-1.672,7.867,7.867,0,0,1-.726-.564c-4.044-3.312-2.142-6.527-1.374-6.532a16.431,16.431,0,0,1,3.862.641c2.453.662,5.475,1.713,8.437,2.807,1.628.6,3.244,1.206,4.761,1.737.908.339,1.773.643,2.571.918a24.918,24.918,0,0,0,3.686,1.031,8.735,8.735,0,0,0,2.951-.468c.347-.094.714-.2,1.094-.314,2.109-.64,4.641-1.579,6.841-2.453,1.083-.423,2.091-.837,2.926-1.183C1240.737,811.694,1241.621,811.319,1241.621,811.319Z" transform="translate(-1201.135 -809.531)" fill="#ffb27d"/>
        </g>
        <path id="Path_72" data-name="Path 72" d="M1043.3,1182.184s-2.692,8.39,3.315,12.369c8.048,5.332,30.363.787,32.91,3.511.645.69-1.306,1.039-2.406,10.9-1.582,14.18-2.864,22.112-2.864,22.112a3.659,3.659,0,0,0,1.965,2.458,4.227,4.227,0,0,0,2.514.21s16.39-35.986,14.758-40.978c-2.827-8.646-18.481-7.8-36.625-12.907C1045.79,1176.737,1043.3,1182.184,1043.3,1182.184Z" transform="translate(-1040.31 -1118.533)" fill="#93312c"/>
        <path id="Path_73" data-name="Path 73" d="M1047.111,1196.967c7.968-.737,29.71-1.112,34.412,2.119,5.787,3.976,13.653,49.444,13.653,49.444a3.857,3.857,0,0,1-1.92.61,15.183,15.183,0,0,1-3.881-.664s-12.929-20.478-13.706-25.6-.377-9.68-2.564-9.833-32.235,3.31-34.8-4.914a21.283,21.283,0,0,1,.4-12.639S1039.761,1197.647,1047.111,1196.967Z" transform="translate(-1035.624 -1133.498)" fill="#b5453c"/>
        <path id="Path_74" data-name="Path 74" d="M1046.417,816.287c.493,1.806.9,3.423,1.1,4.514.917,5.024,1.9,20.9,1.9,20.9-8.138,12.563-30.968,8.235-30.968,8.235-.5-4.762,1.413-15.354,2.574-24.779.285-2.31.524-4.548.673-6.614a41.593,41.593,0,0,1,.614-4.823c1.931-10.073,6.9-11.179,6.9-11.179,2.322,4.51,9.651,5.725,9.651,5.725a24.8,24.8,0,0,0-.731-5.772,38.169,38.169,0,0,1,4.9.9c1.044.383,9.72,4.34,9.72,4.34A8.892,8.892,0,0,1,1046.417,816.287Z" transform="translate(-1018.363 -779.137)" fill="#aec3ff"/>
        <path id="Path_75" data-name="Path 75" d="M1142.154,731.516s.091,1.846.3,3.569c-3.264.306-5.346-2.451-6.252-4.01Z" transform="translate(-1124.617 -714.735)" fill="#ed985f"/>
        <path id="Path_76" data-name="Path 76" d="M1128.061,633.98s-7.681,1.068-8.272-3.726-1.981-7.884,2.9-8.768,6.059.827,6.646,2.379S1130.043,633.579,1128.061,633.98Z" transform="translate(-1109.238 -615.7)" fill="#ffb27d"/>
        <path id="Path_77" data-name="Path 77" d="M1108.965,613.155c-1.366-1.3-2.226-.87-2.677-.375a5.419,5.419,0,0,0-6.782,1.952,9.226,9.226,0,0,1-2.334,5.776s1.509.7,4.641-.532a5.539,5.539,0,0,0,2.4-2.128,18.087,18.087,0,0,1-2.629,4.152c3.645-2.258,4.539-7.82,4.624-8.407a6.073,6.073,0,0,1,1.952,2.032c.533,1.174,1.013,3.666,1.735,3.491C1109.893,619.116,1111.013,615.1,1108.965,613.155Z" transform="translate(-1089.425 -607.628)" fill="#2c3a64"/>
        <path id="Path_78" data-name="Path 78" d="M1613,786.491a7.386,7.386,0,0,0,1.061-1.18,4.634,4.634,0,0,1,1.291-1.682c.743-.509,1.565-1.839,1.682-1.6s-.391,1.682-.352,1.839a5.9,5.9,0,0,0,2.9.381c.782-.224,2.739-.85,2.7-.459a12.081,12.081,0,0,1-2.778,2.974c-.665.391-2.661.274-3.443.548a5.781,5.781,0,0,0-1.659,1.125Z" transform="translate(-1554.553 -760.652)" fill="#ffb27d"/>
        <path id="Path_79" data-name="Path 79" d="M1665.2,794.291s2.035-1.643,2.921-1.435l-1.461,1.435Z" transform="translate(-1601.615 -770.427)" fill="#ffb27d"/>
        <path id="Path_80" data-name="Path 80" d="M1683.241,805.352l3.078-2.061a1.919,1.919,0,0,0-1.193,0C1684.5,803.507,1683.241,805.352,1683.241,805.352Z" transform="translate(-1617.885 -779.767)" fill="#ffb27d"/>
        <path id="Path_81" data-name="Path 81" d="M1063.049,944.068c-.131-.074-15.742,1.632-17.667-16.121.285-2.31.524-4.548.673-6.614a41.606,41.606,0,0,1,.614-4.823c1.405-.218,3.091,1.294,3.847,3.539C1052.071,924.669,1063.008,943.876,1063.049,944.068Z" transform="translate(-1042.726 -881.924)" fill="#88a6ea"/>
        <g id="Group_47" data-name="Group 47" transform="translate(5.28 28.604)">
          <path id="Path_82" data-name="Path 82" d="M1096.867,890.074,1096,892.3s-.774-.225-2.006-.587c-.369-.112-.579-.187-.579-.187-.984-.3-2.157-.692-3.436-1.115l-.019,0c-2.186-.769-4.629-1.673-6.671-2.609-.183-.086-.363-.172-.538-.257a17.291,17.291,0,0,1-2.952-1.752,2.25,2.25,0,0,1-.233-.2c-1.94-1.741-3.97-6.479-5.412-11.485-.2-.69-.384-1.38-.567-2.051a49.267,49.267,0,0,1-1.342-7.025,19.422,19.422,0,0,1-.149-3.295,7.8,7.8,0,0,1,.077-.916c.571-5.2,4.3-5.355,4.726-4.714a16.427,16.427,0,0,1,1.569,3.587c.783,2.417,1.55,5.524,2.247,8.6.388,1.689.758,3.377,1.14,4.938.211.945.428,1.837.632,2.656a24.915,24.915,0,0,0,1.145,3.652,8.73,8.73,0,0,0,2,2.219c.268.24.557.489.86.745,1.687,1.419,3.854,3.03,5.786,4.4.945.678,1.842,1.3,2.587,1.807C1096.071,889.538,1096.867,890.074,1096.867,890.074Z" transform="translate(-1072.078 -855.838)" fill="#ffb27d"/>
        </g>
        <g id="Group_48" data-name="Group 48" transform="translate(28.058 61.333)">
          <path id="Path_83" data-name="Path 83" d="M1305.607,1196.773s3.893-1.1,4.82-.844,4.1,2.361,3.657,2.932-3.245-.342-4.533-.169-2.284.808-3.211.671a16.309,16.309,0,0,1-2.541-.761Z" transform="translate(-1303.799 -1195.193)" fill="#ffb27d"/>
          <path id="Path_84" data-name="Path 84" d="M1322.193,1190.378a14.591,14.591,0,0,0,2.446-1.535.152.152,0,0,1,.237.027c.145.229.281.671-.387,1.11A3.592,3.592,0,0,1,1322.193,1190.378Z" transform="translate(-1320.385 -1188.798)" fill="#ffb27d"/>
        </g>
        <path id="Path_85" data-name="Path 85" d="M1062.819,840.9s-3.63,1.763-4.9,4.176-1.422,10.118.539,20.134a14.5,14.5,0,0,0,9.781-5.516S1066.806,839.456,1062.819,840.9Z" transform="translate(-1053.181 -813.701)" fill="#aec3ff"/>
        <path id="Path_86" data-name="Path 86" d="M1119.389,786.863a2.841,2.841,0,0,0-1.326,2.045s1.563,4.272,10.692,5.264C1128.755,794.172,1120.353,790.039,1119.389,786.863Z" transform="translate(-1108.263 -765.039)" fill="#88a6ea"/>
        <path id="Path_87" data-name="Path 87" d="M1202.235,787.879s2.3,4.231,2.237,6.292a37.087,37.087,0,0,0-.17-5.772c-.326-1.088-2.268-1.537-2.268-1.537Z" transform="translate(-1183.979 -765.039)" fill="#88a6ea"/>
        <path id="Path_88" data-name="Path 88" d="M1186.855,720.1a2.571,2.571,0,0,0,1.774.47c.965-.183.956-.939.956-.939a4.313,4.313,0,0,0-1.238,0A10.134,10.134,0,0,0,1186.855,720.1Z" transform="translate(-1170.293 -704.37)" fill="#fff"/>
      </g>
    </g>
    <g id="Group_53" data-name="Group 53" transform="translate(161.93 270.958)">
      <g id="Group_51" data-name="Group 51" transform="translate(4.875 1.733)">
        <path id="Path_89" data-name="Path 89" d="M398.759,1307.97h-.046c-.273,0-.493-.358-.487-.793l.738-50.962,2.174-.4-1.854,51.369C399.268,1307.624,399.038,1307.97,398.759,1307.97Z" transform="translate(-398.226 -1255.811)" fill="#739be0"/>
      </g>
      <g id="Group_52" data-name="Group 52" transform="translate(71.113 1.733)">
        <path id="Path_90" data-name="Path 90" d="M1074.456,1307.97h.046c.273,0,.493-.358.487-.793l-.738-50.962-2.174-.4,1.854,51.369C1073.946,1307.624,1074.177,1307.97,1074.456,1307.97Z" transform="translate(-1072.076 -1255.811)" fill="#739be0"/>
      </g>
      <rect id="Rectangle_34" data-name="Rectangle 34" width="78.572" height="3.075" rx="1.537" transform="translate(0 0)" fill="#739be0"/>
    </g>
    <g id="Group_55" data-name="Group 55" transform="translate(300.737 212.036)">
      <g id="Group_54" data-name="Group 54" transform="translate(0 0)">
        <path id="Path_91" data-name="Path 91" d="M2058.79,665.612c5.125,4.634,17.628,12.854,17.7,12.825,0,0,4,2.692,6.885,1.625,4.8-1.778,9.629-9.14,3.54-17.321-3.037-4.08-6.5-5.046-5.6-10.212.979-5.6-1.194-12.812-7.662-13.449a17.919,17.919,0,0,0-6.182-.051C2061.4,640.591,2050.217,665.768,2058.79,665.612Z" transform="translate(-2026.681 -638.758)" fill="#233862"/>
        <path id="Path_92" data-name="Path 92" d="M1774.632,1653.453c.163,1.462-1.87,1.857-4.229,2.02s-1.637.633-4.863,1.281-4.54-.213-4.783-.646c-.216-.384,1.278-1.02,2.868-1.736.2-.089.4-.182.6-.274,1.79-.828,2.772-2.466,4.151-3.994,1.306-1.447,2.485-6.023,2.485-6.023l4.381-1.023s-1.157,4.121-1.552,5.878a5.421,5.421,0,0,0,.509,3.046A5.752,5.752,0,0,1,1774.632,1653.453Z" transform="translate(-1760.736 -1544.337)" fill="#ffb27d"/>
        <path id="Path_93" data-name="Path 93" d="M2059.353,867.146s-7.394,1.249-8.254,4.4-3.955,18.722-3.955,18.722,3.363,5.326,5.084,3.606,4.38-17.644,4.38-17.644Z" transform="translate(-2018.99 -844.696)" fill="#f9ddbf"/>
        <path id="Path_94" data-name="Path 94" d="M1984.929,1092.93c.008,0-6.939,11.637-6.939,11.637s.155.563,2.019,1.13c0,0,8.034-1.07,11.426-6.238.839-1.278.625-5.152.625-5.152Z" transform="translate(-1956.634 -1048.286)" fill="#f9ddbf"/>
        <path id="Path_95" data-name="Path 95" d="M2034.031,947.221s-2.342,3.23-2.422,6.379-3.391,8.155-3.876,11.385-2.1,9.286-2.1,9.286l7.671,1.615,5.814-12.273,1.211-10.335Z" transform="translate(-1999.595 -916.9)" fill="#eac3a0"/>
        <path id="Path_96" data-name="Path 96" d="M1770.4,1737.328c-2.36.163-1.637.633-4.863,1.281s-4.54-.213-4.783-.646c-.216-.384,1.278-1.02,2.868-1.736l.025.027a9.22,9.22,0,0,0,4.9-.035c2.13-.622,4.176-1.941,5.644-2.383a5.755,5.755,0,0,1,.433,1.472C1774.8,1736.771,1772.762,1737.166,1770.4,1737.328Z" transform="translate(-1760.736 -1626.192)" fill="#233862"/>
        <path id="Path_97" data-name="Path 97" d="M2059.2,1603.984c.983,1.095-.44,2.6-2.265,4.1s-.963,1.467-3.209,3.871-3.817,2.468-4.266,2.257c-.4-.187.446-1.572,1.323-3.081.111-.189.22-.381.329-.572.974-1.715.82-3.619,1.052-5.664.22-1.937-1.483-6.345-1.483-6.345l2.968-3.381s1.456,4.024,2.157,5.684a5.42,5.42,0,0,0,2.186,2.181A5.752,5.752,0,0,1,2059.2,1603.984Z" transform="translate(-2020.991 -1501.159)" fill="#ffb27d"/>
        <path id="Path_98" data-name="Path 98" d="M2056.939,1680.235c-1.825,1.505-.963,1.467-3.209,3.871s-3.817,2.468-4.266,2.257c-.4-.187.446-1.573,1.323-3.081l.036.007a9.22,9.22,0,0,0,3.969-2.882c1.371-1.745,2.267-4.009,3.2-5.222a5.752,5.752,0,0,1,1.208.946C2060.187,1677.226,2058.764,1678.73,2056.939,1680.235Z" transform="translate(-2020.991 -1573.308)" fill="#233862"/>
        <path id="Path_99" data-name="Path 99" d="M1859.066,1169.829s-.807,1.453-3.553,2.261-21.882,7.55-23.941,11.789c-2.029,4.178.525,38.152.525,38.152a5.148,5.148,0,0,0,5.087.242s4.32-18.046,4.078-24.466-.121-10.537-.121-10.537,28.22-3.633,29.916-7.146-2.059-9.568-2.059-9.568Z" transform="translate(-1823.903 -1117.626)" fill="#ed7d2b"/>
        <path id="Path_100" data-name="Path 100" d="M1918.788,1161.644s4.373,7.419.436,15.11c-3.4,6.638-28.051,4.881-28.826,6.237-.484.848,1.817,1.514,5.814,11.809,3.638,9.37,4.219,14.029,4.219,14.029s-2.382,3.714-5.047,3.472c0,0-18.314-27.132-18.49-31.37-.242-5.814,6.177-7.267,9.326-8.842s15.947-6.1,17.4-7.065.727-4.643.727-4.643Z" transform="translate(-1865.47 -1109.109)" fill="#f99746"/>
        <path id="Path_101" data-name="Path 101" d="M2165.994,809.324c-.03.011,2.659,1.756,4.819,1.351,2.031-.379,3.96-3.043,3.933-3.051-.828-.236-1.395-1.219-.969-6.186l-.386.044-6.5.742s-.02,2.025-.171,3.922C2166.593,807.739,2166.372,809.184,2165.994,809.324Z" transform="translate(-2126.157 -785.448)" fill="#ffb27d"/>
        <path id="Path_102" data-name="Path 102" d="M2173.542,802.626s-.02,2.025-.17,3.922c3.587.193,5.747-2.918,6.671-4.664Z" transform="translate(-2132.811 -785.849)" fill="#ed975d"/>
        <path id="Path_103" data-name="Path 103" d="M2142.142,697.5s8.457.834,8.9-4.441,1.825-8.719-3.556-9.475-6.6,1.17-7.173,2.895S2139.954,697.152,2142.142,697.5Z" transform="translate(-2102.753 -679.03)" fill="#ffb27d"/>
        <path id="Path_104" data-name="Path 104" d="M2170.669,669s1.065,6.444,5.882,7.973c3.514,1.115,5.105.38,5.105.38a14.322,14.322,0,0,1-2.293-5.361,2.578,2.578,0,0,0-1.72-1.968C2175.146,669.207,2172.121,666.961,2170.669,669Z" transform="translate(-2130.374 -665.278)" fill="#233862"/>
        <path id="Path_105" data-name="Path 105" d="M2140.881,677.1a5.6,5.6,0,0,0-3.006,2.412,10.794,10.794,0,0,0-1.513,5.211s-1.48-5.964.678-8.183C2139.329,674.186,2140.881,677.1,2140.881,677.1Z" transform="translate(-2098.992 -671.997)" fill="#233862"/>
        <path id="Path_106" data-name="Path 106" d="M2084.881,895.3c.035.74-1.914,3.93-9.275,4.2a43.087,43.087,0,0,1-11.154-1.31,8.459,8.459,0,0,1-5.087-4.279,16.128,16.128,0,0,1,4.2-16.472c.554-.572-.471-2.034-.727-2.907-1.574-5.39,6.9-13.523,6.9-13.523s.507,3.56,7.627-.665c.252-.15,3.056,4,5.754,9.118s2.281,6.575,1.558,9.412c-.077.3-.156.612-.236.946-.153.642-.242,1.24-.388,1.776C2081.429,891.242,2084.76,892.756,2084.881,895.3Z" transform="translate(-2029.37 -838.554)" fill="#f9ddbf"/>
        <path id="Path_107" data-name="Path 107" d="M1928.674,1209.72c-.2,0-2.688.428-3.457,1.441s-2.633,2.552-1.9,2.8,2.714-1.134,3.322-1.134,2.066.243,2.714-.527a9.837,9.837,0,0,1,1.505-1.395Z" transform="translate(-1907.182 -1153.596)" fill="#ffb27d"/>
        <path id="Path_108" data-name="Path 108" d="M1964.612,1236.584a14.3,14.3,0,0,0-1.914,1.215c-.258.3-.2-.3.03-.638s.5-.775.5-.775Z" transform="translate(-1942.693 -1177.641)" fill="#ffb27d"/>
        <path id="Path_109" data-name="Path 109" d="M2208.408,1039.688a7.348,7.348,0,0,1-2.473-4.863c-.061-3.149,6.843-7.812,7.207-9.992s-.242-9.023-.242-9.023l4.576,3.251c-.077.3-.156.612-.236.946-.153.642-.242,1.24-.388,1.776-2.62,9.652.711,11.166.832,13.709C2217.718,1036.232,2215.769,1039.422,2208.408,1039.688Z" transform="translate(-2162.172 -978.747)" fill="#eac3a0"/>
        <path id="Path_110" data-name="Path 110" d="M2249,860.331s6.925.427,9.323,3.77c3.375,4.707,10.07,24.767,6.233,27.442-4.321,3.013-6.289-3.952-7.5-6.384-.851-1.7-6.348-10.369-6.348-11.968S2249,860.331,2249,860.331Z" transform="translate(-2201.001 -838.551)" fill="#f9ddbf"/>
        <path id="Path_111" data-name="Path 111" d="M2149.7,1194.55a11.455,11.455,0,0,0-2.743,1.15,4.823,4.823,0,0,1-5.021-.7c-1.232-.793-1.836-1.816-.708-1.683a9.386,9.386,0,0,0,3.464-.073c.476-.256-.849-.829-.829-1.244.025-.5.129-.416.939-.025.378.183,1.086.317,1.6.61a3.573,3.573,0,0,0,1.757.049Z" transform="translate(-2103.291 -1137.305)" fill="#ffb27d"/>
        <path id="Path_112" data-name="Path 112" d="M2230.969,1105.01l-16.32,9.384s-.448.972.854,3.026c0,0,12.4-1.9,17.458-4.911C2233.729,1112.052,2230.969,1105.01,2230.969,1105.01Z" transform="translate(-2169.963 -1059.178)" fill="#f9ddbf"/>
      </g>
      <path id="Path_113" data-name="Path 113" d="M2151.416,795.8a2.946,2.946,0,0,1,.136.515c.03.227.242.363.787.363s.984.106,1.242-.076a1.979,1.979,0,0,0,.469-.7A15.317,15.317,0,0,0,2151.416,795.8Z" transform="translate(-2113.013 -780.324)" fill="#fff"/>
    </g>
    <rect id="Rectangle_35" data-name="Rectangle 35" width="291.691" height="0.763" rx="0.381" transform="translate(141.578 324.659)" fill="#2e3552"/>
  </g>
</svg>
