<svg xmlns="http://www.w3.org/2000/svg" width="680.708" height="533.566" viewBox="0 0 680.708 533.566">
  <g id="Group_55" data-name="Group 55" transform="translate(-176.292 -1046)">
    <path id="Path_142" data-name="Path 142" d="M287.216,185.21c127.578,0,251.307-16.584,251.307,110.994,0,68-192.669,163.349-383.243,157.067C27.7,453.271-66.708,350.484-66.708,222.906c0-63.151,61.968-124.6,102.617-125.653C163.657,101.441,222.789,185.21,287.216,185.21Z" transform="translate(243 1126)" fill="#b2caff" opacity="0.29"/>
    <g id="Group_48" data-name="Group 48" transform="translate(191.23 1021.877)">
      <g id="Group_1" data-name="Group 1" transform="translate(15.77 24.123)">
        <rect id="Rectangle_5" data-name="Rectangle 5" width="650" height="0.325" transform="translate(0 425.679)" fill="#ebebeb"/>
        <rect id="Rectangle_6" data-name="Rectangle 6" width="43.059" height="0.325" transform="translate(541.813 446.604)" fill="#ebebeb"/>
        <rect id="Rectangle_7" data-name="Rectangle 7" width="11.301" height="0.325" transform="translate(419.285 450.132)" fill="#ebebeb"/>
        <rect id="Rectangle_8" data-name="Rectangle 8" width="24.95" height="0.325" transform="translate(515.562 434.532)" fill="#ebebeb"/>
        <rect id="Rectangle_9" data-name="Rectangle 9" width="56.151" height="0.325" transform="translate(68.197 436.716)" fill="#ebebeb"/>
        <rect id="Rectangle_10" data-name="Rectangle 10" width="8.233" height="0.325" transform="translate(135.922 436.716)" fill="#ebebeb"/>
        <rect id="Rectangle_11" data-name="Rectangle 11" width="121.779" height="0.325" transform="translate(170.913 442.205)" fill="#ebebeb"/>
        <path id="Path_1" data-name="Path 1" d="M312.426,391.824H61.4a7.429,7.429,0,0,1-7.42-7.42V31.542a7.428,7.428,0,0,1,7.42-7.419H312.426a7.428,7.428,0,0,1,7.419,7.419V384.4A7.429,7.429,0,0,1,312.426,391.824ZM61.4,24.448a7.1,7.1,0,0,0-7.1,7.094V384.4a7.1,7.1,0,0,0,7.1,7.1H312.426a7.1,7.1,0,0,0,7.094-7.1V31.542a7.1,7.1,0,0,0-7.094-7.094Z" transform="translate(-4.308 -24.123)" fill="#ebebeb"/>
        <path id="Path_2" data-name="Path 2" d="M528.723,391.824H277.694a7.428,7.428,0,0,1-7.419-7.42V31.542a7.427,7.427,0,0,1,7.419-7.419H528.723a7.428,7.428,0,0,1,7.42,7.419V384.4A7.429,7.429,0,0,1,528.723,391.824ZM277.694,24.448a7.1,7.1,0,0,0-7.094,7.094V384.4a7.1,7.1,0,0,0,7.094,7.1H528.723a7.1,7.1,0,0,0,7.1-7.1V31.542a7.1,7.1,0,0,0-7.1-7.094Z" transform="translate(60.581 -24.123)" fill="#ebebeb"/>
      </g>
      <g id="Group_7" data-name="Group 7" transform="translate(102.594 26.549)">
        <g id="Group_2" data-name="Group 2" transform="translate(0 91.453)">
          <rect id="Rectangle_12" data-name="Rectangle 12" width="169.57" height="8.712" transform="translate(0 33.71)" fill="#e0e0e0"/>
          <rect id="Rectangle_13" data-name="Rectangle 13" width="7.47" height="32.115" transform="translate(7.805 1.594)" fill="#ebebeb"/>
          <rect id="Rectangle_14" data-name="Rectangle 14" width="7.471" height="32.115" transform="translate(43.928 1.594)" fill="#ebebeb"/>
          <rect id="Rectangle_15" data-name="Rectangle 15" width="7.471" height="32.115" transform="translate(85.044 2.061) rotate(-9.779)" fill="#ebebeb"/>
          <rect id="Rectangle_16" data-name="Rectangle 16" width="7.471" height="27.883" transform="translate(17.061 5.827)" fill="#ebebeb"/>
          <rect id="Rectangle_17" data-name="Rectangle 17" width="7.47" height="27.883" transform="translate(34.233 5.827)" fill="#ebebeb"/>
          <rect id="Rectangle_18" data-name="Rectangle 18" width="7.471" height="27.883" transform="translate(77.574 5.827)" fill="#ebebeb"/>
          <rect id="Rectangle_19" data-name="Rectangle 19" width="7.47" height="27.883" transform="translate(53.918 6.49) rotate(-12.527)" fill="#ebebeb"/>
          <rect id="Rectangle_20" data-name="Rectangle 20" width="3.735" height="33.71" transform="translate(27.256)" fill="#ebebeb"/>
          <rect id="Rectangle_21" data-name="Rectangle 21" width="3.735" height="33.71" transform="translate(71.691)" fill="#ebebeb"/>
          <rect id="Rectangle_22" data-name="Rectangle 22" width="36.4" height="25.13" transform="translate(116.899 8.291)" fill="#ebebeb"/>
        </g>
        <g id="Group_3" data-name="Group 3" transform="translate(0 156.494)">
          <rect id="Rectangle_23" data-name="Rectangle 23" width="169.57" height="8.712" transform="translate(169.57 42.422) rotate(180)" fill="#e0e0e0"/>
          <rect id="Rectangle_24" data-name="Rectangle 24" width="7.471" height="32.115" transform="translate(161.765 33.71) rotate(180)" fill="#ebebeb"/>
          <rect id="Rectangle_25" data-name="Rectangle 25" width="7.47" height="32.115" transform="translate(125.642 33.71) rotate(180)" fill="#ebebeb"/>
          <rect id="Rectangle_26" data-name="Rectangle 26" width="7.47" height="32.115" transform="matrix(-0.985, -0.17, 0.17, -0.985, 79.071, 33.71)" fill="#ebebeb"/>
          <rect id="Rectangle_27" data-name="Rectangle 27" width="7.47" height="27.883" transform="translate(152.508 33.71) rotate(180)" fill="#ebebeb"/>
          <rect id="Rectangle_28" data-name="Rectangle 28" width="7.47" height="27.883" transform="translate(135.337 33.71) rotate(180)" fill="#ebebeb"/>
          <rect id="Rectangle_29" data-name="Rectangle 29" width="7.47" height="27.883" transform="translate(91.996 33.71) rotate(180)" fill="#ebebeb"/>
          <rect id="Rectangle_30" data-name="Rectangle 30" width="7.471" height="27.883" transform="translate(109.604 33.71) rotate(-167.473)" fill="#ebebeb"/>
          <rect id="Rectangle_31" data-name="Rectangle 31" width="3.735" height="33.71" transform="translate(142.313 33.71) rotate(180)" fill="#ebebeb"/>
          <rect id="Rectangle_32" data-name="Rectangle 32" width="3.735" height="33.71" transform="translate(97.879 33.71) rotate(180)" fill="#ebebeb"/>
          <rect id="Rectangle_33" data-name="Rectangle 33" width="36.4" height="25.13" transform="translate(52.671 33.421) rotate(180)" fill="#ebebeb"/>
        </g>
        <g id="Group_5" data-name="Group 5" transform="translate(260.827 50.544)">
          <rect id="Rectangle_34" data-name="Rectangle 34" width="212.633" height="8.465" rx="2.122" transform="translate(1.446)" fill="#e0e0e0"/>
          <rect id="Rectangle_35" data-name="Rectangle 35" width="187.371" height="166.264" transform="translate(14.077 6.734)" fill="#e6e6e6"/>
          <rect id="Rectangle_36" data-name="Rectangle 36" width="177.748" height="157.238" transform="translate(18.769 11.292)" fill="#f0f0f0"/>
          <path id="Path_3" data-name="Path 3" d="M339.347,73.555l-41.715,156.9V156.727l22.025-83.172Z" transform="translate(-278.863 -62.264)" fill="#fff"/>
          <path id="Path_4" data-name="Path 4" d="M352.346,73.555,310.265,230.794h-6.716L345.63,73.555Z" transform="translate(-277.088 -62.264)" fill="#fff"/>
          <path id="Path_5" data-name="Path 5" d="M437.876,149.877V175L429.361,207.9h-6.717Z" transform="translate(-241.359 -39.367)" fill="#fff"/>
          <rect id="Rectangle_37" data-name="Rectangle 37" width="2.995" height="163.577" transform="translate(77.77 8.465)" fill="#e6e6e6"/>
          <rect id="Rectangle_38" data-name="Rectangle 38" width="2.995" height="163.577" transform="translate(135.796 8.465)" fill="#e6e6e6"/>
          <g id="Group_4" data-name="Group 4" transform="translate(0 2.705)">
            <path id="Path_6" data-name="Path 6" d="M414.664,66.95s4.31,56.252,29.1,84.921c0,0-18.057,72.392-18.043,97.635l33.556-6.193-12.1-91.023,5.785-85.34Z" transform="translate(-243.753 -66.95)" fill="#e0e0e0"/>
            <path id="Path_7" data-name="Path 7" d="M327.807,66.95s-4.308,56.252-29.1,84.921c0,0,18.056,72.392,18.043,97.635l-33.556-6.193,12.1-91.023L289.5,66.95Z" transform="translate(-283.194 -66.95)" fill="#e0e0e0"/>
          </g>
        </g>
        <g id="Group_6" data-name="Group 6" transform="translate(50.104)">
          <circle id="Ellipse_1" data-name="Ellipse 1" cx="28.829" cy="28.829" r="28.829" transform="translate(0 13.247) rotate(-13.283)" fill="#e0e0e0"/>
          <circle id="Ellipse_2" data-name="Ellipse 2" cx="24.512" cy="24.512" r="24.512" transform="matrix(0.987, -0.16, 0.16, 0.987, 6.559, 14.412)" fill="#f0f0f0"/>
          <path id="Path_8" data-name="Path 8" d="M148.666,39.732V56.868l11.355-6.426" transform="translate(-112.829 -21.866)" fill="#f0f0f0" stroke="#e0e0e0" stroke-linecap="round" stroke-linejoin="round" stroke-width="2"/>
        </g>
      </g>
      <ellipse id="_Path_" data-name="&lt;Path&gt;" cx="252.056" cy="14.72" rx="252.056" ry="14.72" transform="translate(88.714 479.073)" fill="#f5f5f5"/>
      <g id="Group_11" data-name="Group 11" transform="translate(79.398 382.411)">
        <g id="Group_8" data-name="Group 8" transform="translate(40.574 23.278)">
          <path id="Path_9" data-name="Path 9" d="M97.235,364.934c-.2-1.331-4.748-32.724,4.367-43.562a9.875,9.875,0,0,1,7.567-3.727c18.4-.432,20.916,14.347,20.939,14.5l-2.17.334c-.085-.529-2.266-13.035-18.715-12.636a7.664,7.664,0,0,0-5.942,2.944c-8.484,10.088-3.922,41.508-3.875,41.825Z" transform="translate(-95.926 -317.636)" fill="#407bff"/>
        </g>
        <g id="Group_9" data-name="Group 9" transform="translate(2.928 30.454)">
          <path id="Path_10" data-name="Path 10" d="M104.81,361.847l-2.194-.069c.009-.289.729-28.925-13.381-34.841-13.828-5.793-20.049,6.118-20.306,6.629l-1.962-.987c.072-.142,7.371-14.269,23.117-7.666C105.582,331.411,104.848,360.608,104.81,361.847Z" transform="translate(-66.967 -323.156)" fill="#407bff"/>
        </g>
        <g id="Group_10" data-name="Group 10" transform="translate(8.23 2.173)">
          <path id="Path_11" data-name="Path 11" d="M103.65,370.623c0-.458-.133-45.748-8.963-58.994-8.479-12.718-22.155-6.731-22.733-6.469l-.907-2c.159-.073,15.942-7.039,25.468,7.249,9.2,13.8,9.329,58.321,9.33,60.21Z" transform="translate(-71.046 -301.401)" fill="#407bff"/>
        </g>
        <path id="Path_12" data-name="Path 12" d="M109.543,319.984s-8.033,2.961-5.645,9.953,27.79,18.5,27.79,18.5,10.639-9.751.87-25.61S109.76,314.98,109.543,319.984Z" transform="translate(-53.093 -295.608)" fill="#407bff"/>
        <path id="Path_13" data-name="Path 13" d="M95.787,309.745s5.7-.612,5.244-4.086-22.17-12.414-34.98,2.044c0,0,8.2,14.089,20.059,14.273S95.787,309.745,95.787,309.745Z" transform="translate(-64.314 -299.73)" fill="#407bff"/>
        <path id="Path_14" data-name="Path 14" d="M90.335,326.5s3.935-3.178-.312-4.729-25.091-1.112-25.308,19.536c0,0,24.276,4.034,27.28-3.831S90.335,326.5,90.335,326.5Z" transform="translate(-64.715 -293.28)" fill="#407bff"/>
        <path id="Path_15" data-name="Path 15" d="M109.543,319.984s-8.033,2.961-5.645,9.953,27.79,18.5,27.79,18.5,10.639-9.751.87-25.61S109.76,314.98,109.543,319.984Z" transform="translate(-53.093 -295.608)" fill="#fff" opacity="0.2" style="isolation: isolate"/>
        <path id="Path_16" data-name="Path 16" d="M95.787,309.745s5.7-.612,5.244-4.086-22.17-12.414-34.98,2.044c0,0,8.2,14.089,20.059,14.273S95.787,309.745,95.787,309.745Z" transform="translate(-64.314 -299.73)" fill="#fff" opacity="0.2" style="isolation: isolate"/>
        <path id="Path_17" data-name="Path 17" d="M90.335,326.5s3.935-3.178-.312-4.729-25.091-1.112-25.308,19.536c0,0,24.276,4.034,27.28-3.831S90.335,326.5,90.335,326.5Z" transform="translate(-64.715 -293.28)" fill="#fff" opacity="0.2" style="isolation: isolate"/>
        <path id="Path_18" data-name="Path 18" d="M121.09,395.892H83.419l-4.064-41.244h45.8Z" transform="translate(-60.323 -283.254)" fill="#407bff"/>
        <path id="Path_19" data-name="Path 19" d="M121.09,395.892H83.419l-4.064-41.244h45.8Z" transform="translate(-60.323 -283.254)" fill="#fff" opacity="0.5" style="isolation: isolate"/>
        <rect id="Rectangle_39" data-name="Rectangle 39" width="49.821" height="9.101" transform="translate(17.021 66.843)" fill="#407bff"/>
        <rect id="Rectangle_40" data-name="Rectangle 40" width="49.821" height="9.101" transform="translate(17.021 66.843)" fill="#fff" opacity="0.2" style="isolation: isolate"/>
      </g>
      <g id="Group_17" data-name="Group 17" transform="translate(297.211 292.023)">
        <g id="Group_12" data-name="Group 12" transform="translate(73.791)">
          <path id="Path_20" data-name="Path 20" d="M444.12,230.2h-128a11.483,11.483,0,0,0-11.483,11.483l-15.61,99.4H439.994l15.61-99.4A11.484,11.484,0,0,0,444.12,230.2Z" transform="translate(-289.025 -230.2)" fill="#407bff"/>
          <path id="Path_21" data-name="Path 21" d="M444.12,230.2h-128a11.483,11.483,0,0,0-11.483,11.483l-15.61,99.4H439.994l15.61-99.4A11.484,11.484,0,0,0,444.12,230.2Z" transform="translate(-289.025 -230.2)" fill="#fff" opacity="0.4" style="isolation: isolate"/>
          <path id="Path_22" data-name="Path 22" d="M387.488,342.555h22.967l15.61-100.872A11.484,11.484,0,0,0,414.581,230.2h0A11.483,11.483,0,0,0,403.1,241.683Z" transform="translate(-259.486 -230.2)" opacity="0.2" style="isolation: isolate"/>
        </g>
        <g id="Group_13" data-name="Group 13" transform="translate(0 64.41)">
          <path id="Path_23" data-name="Path 23" d="M301.276,279.777H246.852c-.192-.008-.382-.03-.577-.03a14.012,14.012,0,0,0-14.011,14.011v124.6h82.189v-124.6A13.8,13.8,0,0,0,301.276,279.777Z" transform="translate(-232.263 -279.746)" fill="#407bff"/>
          <path id="Path_24" data-name="Path 24" d="M301.276,279.777H246.852c-.192-.008-.382-.03-.577-.03a14.012,14.012,0,0,0-14.011,14.011v124.6h82.189v-124.6A13.8,13.8,0,0,0,301.276,279.777Z" transform="translate(-232.263 -279.746)" fill="#fff" opacity="0.5" style="isolation: isolate"/>
          <path id="Path_25" data-name="Path 25" d="M246.274,279.747h0a14.011,14.011,0,0,0-14.011,14.01v124.6h28.021v-124.6A14.01,14.01,0,0,0,246.274,279.747Z" transform="translate(-232.263 -279.746)" fill="#fff" opacity="0.6" style="isolation: isolate"/>
        </g>
        <g id="Group_14" data-name="Group 14" transform="translate(37.171 99.676)">
          <rect id="Rectangle_41" data-name="Rectangle 41" width="107.129" height="103.35" fill="#407bff"/>
          <rect id="Rectangle_42" data-name="Rectangle 42" width="107.129" height="103.35" fill="#fff" opacity="0.4" style="isolation: isolate"/>
        </g>
        <g id="Group_15" data-name="Group 15" transform="translate(30.23 90.95)">
          <path id="Rectangle_43" data-name="Rectangle 43" d="M11.356,0H136.9a0,0,0,0,1,0,0V29.526a0,0,0,0,1,0,0H11.356A11.356,11.356,0,0,1,0,18.17V11.356A11.356,11.356,0,0,1,11.356,0Z" fill="#407bff"/>
          <path id="Rectangle_44" data-name="Rectangle 44" d="M11.356,0H136.9a0,0,0,0,1,0,0V29.526a0,0,0,0,1,0,0H11.356A11.356,11.356,0,0,1,0,18.17V11.356A11.356,11.356,0,0,1,11.356,0Z" fill="#fff" opacity="0.6" style="isolation: isolate"/>
        </g>
        <g id="Group_16" data-name="Group 16" transform="translate(144.3 64.41)">
          <path id="Path_26" data-name="Path 26" d="M412.276,279.777H357.852c-.192-.008-.382-.03-.577-.03a14.012,14.012,0,0,0-14.011,14.011v124.6h82.189v-124.6A13.8,13.8,0,0,0,412.276,279.777Z" transform="translate(-343.263 -279.746)" fill="#407bff"/>
          <path id="Path_27" data-name="Path 27" d="M412.276,279.777H357.852c-.192-.008-.382-.03-.577-.03a14.012,14.012,0,0,0-14.011,14.011v124.6h82.189v-124.6A13.8,13.8,0,0,0,412.276,279.777Z" transform="translate(-343.263 -279.746)" fill="#fff" opacity="0.5" style="isolation: isolate"/>
          <path id="Path_28" data-name="Path 28" d="M357.274,279.747h0a14.011,14.011,0,0,0-14.011,14.01v124.6h28.021v-124.6A14.01,14.01,0,0,0,357.274,279.747Z" transform="translate(-343.263 -279.746)" fill="#fff" opacity="0.6" style="isolation: isolate"/>
        </g>
      </g>
      <g id="Group_18" data-name="Group 18" transform="translate(489.327 361.182)">
        <rect id="Rectangle_45" data-name="Rectangle 45" width="96.59" height="133.867" fill="#407bff"/>
        <rect id="Rectangle_46" data-name="Rectangle 46" width="29.635" height="133.867" transform="translate(66.955)" opacity="0.2" style="isolation: isolate"/>
        <rect id="Rectangle_47" data-name="Rectangle 47" width="55.543" height="20.886" transform="translate(4.8 4.783)" fill="#fff" opacity="0.2"/>
        <rect id="Rectangle_48" data-name="Rectangle 48" width="55.543" height="20.886" transform="translate(4.8 30.783)" fill="#fff" opacity="0.2"/>
        <rect id="Rectangle_49" data-name="Rectangle 49" width="55.543" height="55.543" transform="translate(4.8 56.783)" fill="#fff" opacity="0.2"/>
        <circle id="Ellipse_3" data-name="Ellipse 3" cx="2.191" cy="2.191" r="2.191" transform="translate(28.965 6.622)" opacity="0.2" style="isolation: isolate"/>
        <circle id="Ellipse_4" data-name="Ellipse 4" cx="2.191" cy="2.191" r="2.191" transform="translate(28.965 31.702)" opacity="0.2" style="isolation: isolate"/>
        <path id="Path_29" data-name="Path 29" d="M388.5,348.945a2.19,2.19,0,1,1-2.19-2.19A2.191,2.191,0,0,1,388.5,348.945Z" transform="translate(-378.823 -264.392)" opacity="0.2" style="isolation: isolate"/>
      </g>
      <g id="Group_21" data-name="Group 21" transform="translate(514.938 259.327)">
        <rect id="Rectangle_50" data-name="Rectangle 50" width="6.245" height="83.283" transform="translate(30.222 18.572)" fill="#263238"/>
        <g id="Group_19" data-name="Group 19">
          <path id="Path_30" data-name="Path 30" d="M399.745,252.239h66.689l-5.4-47.19H405.142Z" transform="translate(-399.745 -205.049)" fill="#407bff"/>
        </g>
        <g id="Group_20" data-name="Group 20" opacity="0.6" style="isolation: isolate">
          <path id="Path_31" data-name="Path 31" d="M399.745,252.239h66.689l-5.4-47.19H405.142Z" transform="translate(-399.745 -205.049)" fill="#fff"/>
        </g>
        <path id="Path_32" data-name="Path 32" d="M422.993,256.861V292.53h6.245V252.961Z" transform="translate(-392.771 -190.675)" fill="#fff" opacity="0.2"/>
        <path id="Path_33" data-name="Path 33" d="M439.746,280.582H417.888l-3.9,3.661h29.658Z" transform="translate(-395.472 -182.389)" fill="#407bff"/>
        <path id="Path_34" data-name="Path 34" d="M439.746,280.582H417.888l-3.9,3.661h29.658Z" transform="translate(-395.472 -182.389)" fill="#fff" opacity="0.2"/>
      </g>
      <g id="Group_34" data-name="Group 34" transform="translate(156.876 137.649)">
        <path id="Path_35" data-name="Path 35" d="M157.532,131.625a8.02,8.02,0,0,0-5.69-1.057c-5.564,1.056-6.893,6.542-6.145,10.543.51,2.725,2.8,6.218,6.309,7.094,4.381,1.1,8.243-2.955,9.374-6A8.684,8.684,0,0,0,157.532,131.625Z" transform="translate(-117.955 -105.758)" fill="#263238"/>
        <path id="Path_36" data-name="Path 36" d="M230.218,180.621l21.986-6.172s.025-1.26,3.418-3.721,12.572-4.346,12.572-4.346,4.208,12.178,2.847,12.523-13.7,4.458-14.391,3.088l-23.357,6.623Z" transform="translate(-92.541 -94.972)" fill="#b97964"/>
        <g id="Group_22" data-name="Group 22" transform="translate(67.866 60.243)">
          <path id="Path_37" data-name="Path 37" d="M179.35,157.792c12.839,4.148,32.815,26.777,36.712,28.148s41.248-6.707,41.248-6.707l5.232,9.607s-34.264,12.4-46.48,11.434-28.131-19.054-39.545-21.665Z" transform="translate(-176.517 -157.792)" fill="#407bff"/>
          <path id="Path_38" data-name="Path 38" d="M262.541,188.839s-34.268,12.4-46.475,11.44c-7.891-.624-17.316-8.385-26.065-14.508-4.823-3.354-9.438-6.227-13.481-7.163L178,167.714l1.352-9.919c12.831,4.147,32.812,26.767,36.712,28.145s41.236-6.708,41.236-6.708Z" transform="translate(-176.516 -157.791)" fill="#fff" opacity="0.5" style="isolation: isolate"/>
          <path id="Path_39" data-name="Path 39" d="M190,183.482c-4.823-3.354-9.438-6.227-13.481-7.163L178,165.425C181.681,169,187.349,175.487,190,183.482Z" transform="translate(-176.516 -155.502)" opacity="0.2" style="isolation: isolate"/>
        </g>
        <path id="Path_40" data-name="Path 40" d="M196.8,378.2l-8.659,1.529-3.551-11.807-3.24-10.836,9.984-3.487,2.9,13.024Z" transform="translate(-107.202 -38.808)" fill="#e4897b"/>
        <path id="Path_41" data-name="Path 41" d="M185.071,374.046c-.146-.958,11.716-2.281,11.716-2.281s8.511,6.066,15.812,6.477,4.126,5.309-3.708,6.692l-19.379,3.423C183.946,389.34,186.587,383.984,185.071,374.046Z" transform="translate(-106.086 -33.357)" fill="#263238"/>
        <g id="Group_23" data-name="Group 23" transform="translate(92.049 335.06)">
          <path id="Path_42" data-name="Path 42" d="M199.6,374.519a18.479,18.479,0,0,1-4.25-.7.3.3,0,0,1-.1-.051h0a.294.294,0,0,1-.079-.086h0a.359.359,0,0,1-.034-.075h0a.352.352,0,0,1-.009-.142c.023-.134.526-3.038,2-3.978a1.826,1.826,0,0,1,1.525-.228c.578.159.9.445.945.85.073.624-.654,1.388-1.517,2.067a4.919,4.919,0,0,1,2.681-.178,1.279,1.279,0,0,1,.767.684,1.144,1.144,0,0,1-.064,1.3A2.5,2.5,0,0,1,199.6,374.519Zm-3.211-1.082c1.859.428,4.121.694,4.593.14.042-.048.166-.194-.031-.633a.665.665,0,0,0-.41-.351C199.612,372.257,197.65,372.911,196.388,373.437Zm1.73-3.621a1.2,1.2,0,0,0-.659.2,5.241,5.241,0,0,0-1.568,2.877c1.621-.967,3.138-2.176,3.076-2.709-.02-.166-.315-.27-.487-.317A1.33,1.33,0,0,0,198.118,369.817Z" transform="translate(-195.119 -369.19)" fill="#407bff"/>
        </g>
        <path id="Path_43" data-name="Path 43" d="M194.275,366.873l-9.648,1.27-3.261-10.955,9.974-3.547Z" transform="translate(-107.197 -38.794)" opacity="0.2" style="isolation: isolate"/>
        <path id="Path_44" data-name="Path 44" d="M151.43,381.184h-8.793l-1.444-12.244L139.886,357.7l10.438-1.7.59,13.33Z" transform="translate(-119.641 -38.084)" fill="#e4897b"/>
        <path id="Path_45" data-name="Path 45" d="M140.854,375.054c.022-.97,11.933-.209,11.933-.209s7.328,7.453,14.446,9.127,3.141,5.946-4.815,5.946H142.738C137.086,389.918,140.619,385.1,140.854,375.054Z" transform="translate(-119.742 -32.518)" fill="#263238"/>
        <g id="Group_24" data-name="Group 24" transform="translate(34.196 339.757)">
          <path id="Path_46" data-name="Path 46" d="M155.734,378.42a14.955,14.955,0,0,1-4.937-1.509.312.312,0,0,1-.105-.082h0a.359.359,0,0,1-.043-.066.314.314,0,0,1-.012-.24c.042-.118,1.043-2.9,2.657-3.57a1.833,1.833,0,0,1,1.542.042c.542.257.806.594.783,1-.036.627-.885,1.254-1.852,1.772a4.859,4.859,0,0,1,2.67.291,1.283,1.283,0,0,1,.637.806,1.146,1.146,0,0,1-.289,1.27A1.65,1.65,0,0,1,155.734,378.42Zm-3.847-1.71c1.754.742,3.936,1.4,4.5.939.049-.04.2-.163.079-.629a.664.664,0,0,0-.342-.417C155.264,376.11,153.223,376.414,151.887,376.711Zm2.131-3.28a1.246,1.246,0,0,0-.482.1,5.242,5.242,0,0,0-2.045,2.561c1.765-.671,3.47-1.6,3.5-2.133.01-.166-.261-.321-.424-.4A1.276,1.276,0,0,0,154.018,373.431Z" transform="translate(-150.618 -372.803)" fill="#407bff"/>
        </g>
        <path id="Path_47" data-name="Path 47" d="M150.915,369.594l-9.722-.427-1.307-11.355,10.438-1.758Z" transform="translate(-119.641 -38.07)" opacity="0.2" style="isolation: isolate"/>
        <g id="Group_25" data-name="Group 25" transform="translate(0 111.687)">
          <path id="Path_48" data-name="Path 48" d="M212.206,406.885l-14.235,2.509c-14.365-35.789-24.582-65.663-31.8-90.454-3.887-13.377-6.916-25.272-9.243-35.828l.65,38.961v88.5H143.124c-35.165-167.7-10.244-206.024-10.244-206.024l42.068-7.189c1.6,6.279,2.808,16.458,3.523,23.543l1.9,13.91,16.445,84.916Z" transform="translate(-124.313 -197.364)" fill="#407bff"/>
          <path id="Path_49" data-name="Path 49" d="M212.206,406.885l-14.235,2.509c-14.365-35.789-24.582-65.663-31.8-90.454-3.887-13.377-6.916-25.272-9.243-35.828l.65,38.961v88.5H143.124c-35.165-167.7-10.244-206.024-10.244-206.024l42.068-7.189c1.6,6.279,2.808,16.458,3.523,23.543l1.9,13.91,16.445,84.916Z" transform="translate(-124.313 -197.364)" fill="#fff" opacity="0.5" style="isolation: isolate"/>
        </g>
        <path id="Path_50" data-name="Path 50" d="M179.257,360.462l17.657-5.854-.239,7.51-14.6,4.657Z" transform="translate(-107.83 -38.504)" fill="#407bff"/>
        <path id="Path_51" data-name="Path 51" d="M137.332,360.361l18.406-2.694-1.541,7.355-15.19,2.047Z" transform="translate(-120.407 -37.586)" fill="#407bff"/>
        <path id="Path_52" data-name="Path 52" d="M158.646,307.774c-3.887-13.377-6.916-25.272-9.243-35.828,0,0,.234-20.514,2.717-37.362C152.12,234.584,158.282,282.775,158.646,307.774Z" transform="translate(-116.786 -74.511)" opacity="0.2" style="isolation: isolate"/>
        <g id="Group_26" data-name="Group 26" transform="translate(0 55.437)">
          <path id="Path_53" data-name="Path 53" d="M181.873,242.6,163.9,248.671l-3.333-10.921-3.636,10.071-32.617-7.588c2.794-20.03,13.962-36,15.714-42.06,2.421-8.371,4.308-24.395,2.661-34.753l-.01-.077a7.7,7.7,0,0,1,6.963-8.865q4.735-.367,9.5-.374a133.63,133.63,0,0,1,18.8,1.106c8.013,1.261,17.066,3.691,17.066,3.691s1.249.534.676,9.147c-.528,7.531-1.972,30.915-17.359,50.716Z" transform="translate(-124.313 -154.095)" fill="#407bff"/>
          <path id="Path_54" data-name="Path 54" d="M181.873,242.6,163.9,248.671l-3.333-10.921-3.636,10.071-32.617-7.588c2.794-20.03,13.962-36,15.714-42.06,2.421-8.371,4.308-24.395,2.661-34.753l-.01-.077a7.7,7.7,0,0,1,6.963-8.865q4.735-.367,9.5-.374a133.63,133.63,0,0,1,18.8,1.106c8.013,1.261,17.066,3.691,17.066,3.691s1.249.534.676,9.147c-.528,7.531-1.972,30.915-17.359,50.716Z" transform="translate(-124.313 -154.095)" fill="#fff" opacity="0.6" style="isolation: isolate"/>
        </g>
        <g id="Group_27" data-name="Group 27" transform="translate(31.059 52.291)">
          <path id="Path_55" data-name="Path 55" d="M156.41,170.794s7.182,6.228,9.27,22.234l8.1-22.373,5.565,1.691s-4.282-20.284-18.251-20.666-12.867,20.67-12.867,20.67Z" transform="translate(-148.204 -151.675)" fill="#407bff"/>
          <path id="Path_56" data-name="Path 56" d="M156.41,170.794s7.182,6.228,9.27,22.234l8.1-22.373,5.565,1.691s-4.282-20.284-18.251-20.666-12.867,20.67-12.867,20.67Z" transform="translate(-148.204 -151.675)" fill="#fff" opacity="0.5" style="isolation: isolate"/>
        </g>
        <path id="Path_57" data-name="Path 57" d="M175.344,151.18s-5.1,3.3-5.977,5.472a2.528,2.528,0,0,0-.129.428,29.978,29.978,0,0,0-.517,3.752c3.97,8.38-3.572,22.82-3.572,22.82a90.133,90.133,0,0,0-12.78-23.791c8.176-3.208,9.741-18.875,9.741-18.875l3.96,3.052Z" transform="translate(-115.896 -102.591)" fill="#b97964"/>
        <path id="Path_58" data-name="Path 58" d="M172.956,150.735s-5.1,3.3-5.977,5.472a2.528,2.528,0,0,0-.129.428,16.634,16.634,0,0,1-6.482-14.166l3.312,1.125Z" transform="translate(-113.508 -102.146)" opacity="0.2" style="isolation: isolate"/>
        <g id="Group_31" data-name="Group 31" transform="translate(37.518 7.267)">
          <path id="Path_59" data-name="Path 59" d="M174.393,120.676s10.308-2.887,15.3,5.43,1,14.62-2.465,17.625" transform="translate(-146.807 -116.096)" fill="none" stroke="#263238" stroke-linecap="round" stroke-linejoin="round" stroke-width="0.488"/>
          <path id="Path_60" data-name="Path 60" d="M184.868,121.166s8.4.256,10.718,7.353.6,15.061-11.869,23.65c-6.1,4.2-21.242-4-21.242-4l-1.206,3.662a31.186,31.186,0,0,1-5.481-5.079c-4.9-5.753-3.633-24.79,9.967-28.512C179.96,114.353,184.868,121.166,184.868,121.166Z" transform="translate(-153.173 -117.041)" fill="#263238"/>
          <path id="Path_61" data-name="Path 61" d="M175.169,122.066c10.674,1.453,13.332,7.636,12.615,18.743-.9,13.881-5.274,23.234-18.221,18.478C151.979,152.83,157.44,119.651,175.169,122.066Z" transform="translate(-151.484 -115.571)" fill="#b97964"/>
          <path id="Path_62" data-name="Path 62" d="M175.961,135.273a22.738,22.738,0,0,0,2.5,4.85,2.958,2.958,0,0,1-2.978.824Z" transform="translate(-146.479 -111.572)" fill="#a24e3f"/>
          <g id="Group_28" data-name="Group 28" transform="translate(20.927 19.706)">
            <path id="Path_63" data-name="Path 63" d="M171.41,134.313c-.1.88-.654,1.539-1.242,1.474s-.982-.833-.883-1.712.655-1.54,1.242-1.474S171.508,133.434,171.41,134.313Z" transform="translate(-169.27 -132.081)" fill="#263238"/>
            <path id="Path_64" data-name="Path 64" d="M170.045,132.736l2-.536S170.91,133.7,170.045,132.736Z" transform="translate(-169.038 -132.2)" fill="#263238"/>
          </g>
          <g id="Group_29" data-name="Group 29" transform="translate(31.883 20.753)">
            <path id="Path_65" data-name="Path 65" d="M179.838,135.119c-.1.879-.654,1.539-1.24,1.473s-.983-.832-.884-1.712.655-1.539,1.241-1.473S179.936,134.239,179.838,135.119Z" transform="translate(-177.698 -132.886)" fill="#263238"/>
            <path id="Path_66" data-name="Path 66" d="M178.473,133.541l2-.536S179.337,134.508,178.473,133.541Z" transform="translate(-177.466 -133.005)" fill="#263238"/>
          </g>
          <path id="Path_67" data-name="Path 67" d="M172.725,128.277s-2.947-.8-4.849.983" transform="translate(-148.762 -113.724)" fill="none" stroke="#263238" stroke-linecap="round" stroke-linejoin="round" stroke-width="0.708"/>
          <path id="Path_68" data-name="Path 68" d="M177.622,128.712a5.025,5.025,0,0,1,4.135,1.457" transform="translate(-145.838 -113.553)" fill="none" stroke="#263238" stroke-linecap="round" stroke-linejoin="round" stroke-width="0.708"/>
          <path id="Path_69" data-name="Path 69" d="M161.7,139.513s6.187-8.091,6.352-14.964c0,0,22.331-5.76,20.452,15.854,0,0,4.664-18.785-13.629-21.71-18.264-2.92-22.51,22.273-14.122,31.563C160.755,150.255,157.868,144.578,161.7,139.513Z" transform="translate(-152.136 -116.616)" fill="#263238"/>
          <path id="Path_70" data-name="Path 70" d="M163.4,137.716a4.727,4.727,0,0,0-4.458-4.966c-3.358-.09-5.859,6.487,2.146,9.24C162.239,142.386,163.062,141.322,163.4,137.716Z" transform="translate(-152.398 -112.329)" fill="#b97964"/>
          <g id="Group_30" data-name="Group 30" transform="translate(20.927 30.898)">
            <path id="Path_71" data-name="Path 71" d="M176.776,142.477a27.832,27.832,0,0,0-1.075,3.895c-.238-.005-.476-.01-.712-.027-3.223-.148-4.67-1.282-5.295-2.493a4.165,4.165,0,0,1-.422-1.924,4.031,4.031,0,0,1,.144-1.118c1.661,1.1,4.655,1.47,6.262,1.6C176.351,142.47,176.776,142.477,176.776,142.477Z" transform="translate(-169.271 -140.809)" fill="#263238"/>
            <path id="Path_72" data-name="Path 72" d="M175.677,142.409l-.346,1.14c-3.035-.147-5.153-.658-6.061-1.622a4.031,4.031,0,0,1,.144-1.118C171.077,141.909,174.071,142.279,175.677,142.409Z" transform="translate(-169.271 -140.809)" fill="#fff"/>
            <path id="Path_73" data-name="Path 73" d="M174.891,145.642c-3.223-.148-4.67-1.282-5.295-2.493a10.376,10.376,0,0,1,3.546.874A3.893,3.893,0,0,1,174.891,145.642Z" transform="translate(-169.173 -140.107)" fill="#de5753"/>
          </g>
        </g>
        <g id="Group_32" data-name="Group 32" transform="translate(35.366)">
          <path id="Path_74" data-name="Path 74" d="M153.67,135.335l.775-16.615-2.928-4.592s11.382-4.628,23.691-1.713l10.157,10.429S165.765,117.968,153.67,135.335Z" transform="translate(-151.517 -111.451)" fill="#407bff"/>
          <path id="Path_75" data-name="Path 75" d="M185.359,122.843a32.27,32.27,0,0,0-21.71,3.263,30.012,30.012,0,0,0-9.984,9.23l.78-16.614-2.925-4.589s11.375-4.628,23.686-1.716Z" transform="translate(-151.516 -111.45)" fill="#fff" opacity="0.6" style="isolation: isolate"/>
          <path id="Path_76" data-name="Path 76" d="M163.649,125.488a30.013,30.013,0,0,0-9.984,9.23l.78-16.614-2.925-4.589Z" transform="translate(-151.516 -110.832)" opacity="0.1" style="isolation: isolate"/>
        </g>
        <path id="Path_77" data-name="Path 77" d="M192.258,212.355l14.413,3.294a49.526,49.526,0,0,1,10.543,1.8c5.4,1.583,11.255,3.892,10.384,5.309s-10.222,8.921-13.213,8.438-11.4-5.222-10.457-7.536l-13.971-3.385Z" transform="translate(-104.619 -81.18)" fill="#b97964"/>
        <g id="Group_33" data-name="Group 33" transform="translate(13.942 56.673)">
          <path id="Path_78" data-name="Path 78" d="M143.4,155.08c5.112-1.5,15.059,46.809,22.4,54.98s51.527,20.216,51.527,20.216l-2.237,9.672s-54.181-6.6-61.377-16.861S136.49,185.145,135.2,171.34,140.386,155.968,143.4,155.08Z" transform="translate(-135.038 -155.046)" fill="#407bff"/>
          <path id="Path_79" data-name="Path 79" d="M143.4,155.08c5.112-1.5,15.059,46.809,22.4,54.98s51.527,20.216,51.527,20.216l-2.237,9.672s-54.181-6.6-61.377-16.861S136.49,185.145,135.2,171.34,140.386,155.968,143.4,155.08Z" transform="translate(-135.038 -155.046)" fill="#fff" opacity="0.5" style="isolation: isolate"/>
        </g>
        <path id="Path_80" data-name="Path 80" d="M180.428,188.529l-14.282-.966,1.019-7.966,14.282.966Z" transform="translate(-111.763 -91.007)" fill="#407bff"/>
        <path id="Path_81" data-name="Path 81" d="M179.383,187.763l-12.29-.831.876-6.855,12.29.831Z" transform="translate(-111.479 -90.863)" fill="#fff" opacity="0.5" style="isolation: isolate"/>
        <path id="Path_82" data-name="Path 82" d="M173.064,177.928l-1.371,3.857h2.3v-3.857Z" transform="translate(-110.099 -91.508)" fill="#263238"/>
      </g>
      <g id="_Group_" data-name="&lt;Group&gt;" transform="translate(198.363 159.523)">
        <path id="Path_83" data-name="Path 83" d="M214.851,221.057l-13.312,2.5s-13.917-3.034-16.337-2.5-8.685,12.819-8.685,12.819,21.393,4.666,24.115,3.752,4.992-4.455,4.992-4.455l10.438-1.933Z" transform="translate(-150.139 -100.462)" fill="#e4897b"/>
        <g id="Group_35" data-name="Group 35" transform="translate(57.816 57.578)">
          <path id="Path_84" data-name="Path 84" d="M234.771,172.568c-6.295,9.455,2.848,47.792,3.419,50.223S200.7,235.523,200.7,235.523L206.19,252.3s47.438-5.464,52.69-11.125-.655-52.143-.655-52.143l-23.453-16.455h0Z" transform="translate(-200.699 -172.568)" fill="#407bff"/>
          <path id="Path_85" data-name="Path 85" d="M258.888,241.172c-4.485,4.823-39.637,9.516-49.894,10.79-1.781.221-2.808.338-2.808.338L200.7,235.517s.936-.247,2.5-.689c8.463-2.34,35.477-9.984,35-12.038-.572-2.431-9.711-40.768-3.419-50.219l4.069,1.716,13.468,10.244,5.915,4.5s2.3,18.057,2.756,33.033v.013C261.254,231.123,260.864,239.04,258.888,241.172Z" transform="translate(-200.7 -172.567)" opacity="0.4" style="isolation: isolate"/>
          <path id="Path_86" data-name="Path 86" d="M208.994,237.6c-1.781.221-2.808.338-2.808.338L200.7,221.15s.936-.247,2.5-.689Z" transform="translate(-200.7 -158.2)" opacity="0.1" style="isolation: isolate"/>
          <path id="Path_87" data-name="Path 87" d="M249.071,219.3c-7.774-12.493-8.567-26.182-8.671-37.531l5.915,4.5S248.616,204.326,249.071,219.3Z" transform="translate(-188.79 -169.807)" opacity="0.2" style="isolation: isolate"/>
        </g>
        <path id="Path_88" data-name="Path 88" d="M228.552,232.224H181.5a10.763,10.763,0,0,0-10.718,10.057l-2.187,35.438h72.869l-2.189-35.445A10.76,10.76,0,0,0,228.552,232.224Z" transform="translate(-152.517 -97.093)" fill="none"/>
        <path id="Path_89" data-name="Path 89" d="M162.738,434.083l9.16-148.364h73.671l9.16,148.364h6.512L249.467,243.366a17.277,17.277,0,0,0-17.206-16.142H185.2A17.278,17.278,0,0,0,168,243.373l-11.773,190.71Zm11.748-190.3A10.763,10.763,0,0,1,185.2,233.724h47.057a10.76,10.76,0,0,1,10.717,10.05l2.189,35.445H172.3Z" transform="translate(-156.226 -98.593)" fill="#407bff"/>
        <path id="Path_90" data-name="Path 90" d="M269.6,383.855l-10.171,2.973-6-22.011,10.171-2.974Z" transform="translate(-127.063 -58.207)" fill="#b97964"/>
        <path id="Path_91" data-name="Path 91" d="M261.576,377.431h12.4a.9.9,0,0,1,.871.7l2.014,9.093a1.508,1.508,0,0,1-1.162,1.786,1.589,1.589,0,0,1-.333.033c-4.013-.065-6.935-.312-11.976-.312-3.1,0-12.47.325-16.757.325s-4.845-4.235-3.091-4.624c7.871-1.715,13.8-4.092,16.315-6.352A2.468,2.468,0,0,1,261.576,377.431Z" transform="translate(-130.309 -53.531)" fill="#263238"/>
        <path id="Path_92" data-name="Path 92" d="M263.607,361.844l-10.171,2.974,3.1,11.351,10.171-2.974Z" transform="translate(-127.063 -58.207)" opacity="0.2" style="isolation: isolate"/>
        <path id="Path_93" data-name="Path 93" d="M311.569,216.736a186.475,186.475,0,0,1,3.439,42.572c-.913,22.881-52.65,51.306-53.633,59.306s15.928,91.6,15.928,91.6l-17.859,6.334s-35.272-75.682-35.686-94.207,38.585-63.03,49.223-75.31c4.13-4.768.066-23.963.066-23.963Z" transform="translate(-135.968 -101.739)" fill="#263238"/>
        <path id="Path_94" data-name="Path 94" d="M315.008,259.306c-.325,8.281-7.306,17.277-16.133,25.779-14.066,13.546-32.812,25.818-36.764,31.824a4.157,4.157,0,0,0-.741,1.7c-.975,8.008,15.925,91.6,15.925,91.6l-17.849,6.331s-35.269-75.673-35.685-94.2,38.584-63.037,49.218-75.309c4.134-4.771.065-23.972.065-23.972l38.519-6.331A186.47,186.47,0,0,1,315.008,259.306Z" transform="translate(-135.967 -101.741)" fill="#fff" opacity="0.3" style="isolation: isolate"/>
        <g id="Group_36" data-name="Group 36" transform="translate(119.618 304.501)">
          <path id="Path_95" data-name="Path 95" d="M250.993,375.945l21.743-7.372-1.8-6.064L248.24,369.77Z" transform="translate(-248.24 -362.509)" fill="#407bff"/>
          <path id="Path_96" data-name="Path 96" d="M250.993,375.945l21.743-7.372-1.8-6.064L248.24,369.77Z" transform="translate(-248.24 -362.509)" fill="#fff" opacity="0.6" style="isolation: isolate"/>
        </g>
        <path id="Path_97" data-name="Path 97" d="M290.024,274.792c-14.066,13.546-32.812,25.818-36.764,31.824.754-26.923,33.254-55.575,33.254-55.575Z" transform="translate(-127.116 -91.448)" opacity="0.2" style="isolation: isolate"/>
        <path id="Path_98" data-name="Path 98" d="M307.472,383.855,297.3,386.829l-6-22.011,10.171-2.974Z" transform="translate(-115.703 -58.207)" fill="#b97964"/>
        <path id="Path_99" data-name="Path 99" d="M299.444,377.431h12.4a.894.894,0,0,1,.87.7l2.014,9.093a1.507,1.507,0,0,1-1.162,1.786,1.577,1.577,0,0,1-.332.033c-4.013-.065-6.937-.312-11.977-.312-3.1,0-12.47.325-16.756.325s-4.845-4.235-3.091-4.624c7.872-1.715,13.794-4.092,16.315-6.352A2.466,2.466,0,0,1,299.444,377.431Z" transform="translate(-118.949 -53.531)" fill="#263238"/>
        <path id="Path_100" data-name="Path 100" d="M301.475,361.844,291.3,364.818l3.1,11.351,10.171-2.974Z" transform="translate(-115.703 -58.207)" opacity="0.2" style="isolation: isolate"/>
        <path id="Path_101" data-name="Path 101" d="M320.423,213.176a97.55,97.55,0,0,1,8.2,41.75c-.913,22.883-28.4,56.757-29.38,64.757s15.926,91.6,15.926,91.6l-17.859,6.334s-35.27-75.682-35.685-94.207S284.011,262.4,284.011,262.4l-4.75-42.117Z" transform="translate(-124.608 -102.807)" fill="#263238"/>
        <path id="Path_102" data-name="Path 102" d="M320.423,213.176a97.55,97.55,0,0,1,8.2,41.75c-.913,22.883-28.4,56.757-29.38,64.757s15.926,91.6,15.926,91.6l-17.859,6.334s-35.27-75.682-35.685-94.207S284.011,262.4,284.011,262.4l-4.75-42.117Z" transform="translate(-124.608 -102.807)" fill="#fff" opacity="0.3" style="isolation: isolate"/>
        <g id="Group_37" data-name="Group 37" transform="translate(168.846 304.501)">
          <path id="Path_103" data-name="Path 103" d="M288.86,375.945l21.743-7.372-1.8-6.064-22.692,7.262Z" transform="translate(-286.107 -362.509)" fill="#407bff"/>
          <path id="Path_104" data-name="Path 104" d="M288.86,375.945l21.743-7.372-1.8-6.064-22.692,7.262Z" transform="translate(-286.107 -362.509)" fill="#fff" opacity="0.6" style="isolation: isolate"/>
        </g>
        <g id="Group_38" data-name="Group 38" transform="translate(91.888 27.915)">
          <path id="Path_105" data-name="Path 105" d="M339.1,259.12s-62.029,9.356-68.194,4.381c-9.086-7.332-19.148-68.663-44-84.088a53.018,53.018,0,0,1,9.233-11.073,67.231,67.231,0,0,1,27.17-15.557,77.017,77.017,0,0,1,23.808-3.007S335.814,184.339,339.1,259.12Z" transform="translate(-226.909 -149.75)" fill="#407bff"/>
          <path id="Path_106" data-name="Path 106" d="M339.1,259.12s-62.036,9.36-68.2,4.381a8.723,8.723,0,0,1-1.716-1.989c-8.684-12.831-18.98-67.639-42.276-82.1a52.761,52.761,0,0,1,9.23-11.076c.338-.312.676-.637,1.04-.962a67.252,67.252,0,0,1,26.13-14.6c.507-.156,1.027-.3,1.547-.429a76.947,76.947,0,0,1,22.256-2.574s10.855,7.709,22.659,23.712a147.709,147.709,0,0,1,17.511,31.07,158.257,158.257,0,0,1,11.453,48.763C338.892,255.233,339.009,257.157,339.1,259.12Z" transform="translate(-226.909 -149.75)" opacity="0.3" style="isolation: isolate"/>
          <path id="Path_107" data-name="Path 107" d="M262.487,151.751a153.254,153.254,0,0,1-8.84,29.315s-12.727-4.706-18.837-14.287a67.252,67.252,0,0,1,26.13-14.6C261.447,152.024,261.967,151.881,262.487,151.751Z" transform="translate(-224.539 -149.15)" opacity="0.1" style="isolation: isolate"/>
          <path id="Path_108" data-name="Path 108" d="M329.344,235.219s-62.036,9.36-68.2,4.381a8.723,8.723,0,0,1-1.716-1.989,246.539,246.539,0,0,0,69.55-8.19C329.136,231.332,329.253,233.256,329.344,235.219Z" transform="translate(-217.153 -125.849)" opacity="0.1" style="isolation: isolate"/>
          <path id="Path_109" data-name="Path 109" d="M311.749,199.081c-21.749-5.733-33.059-30.2-33.059-30.2l15.548-.871A147.709,147.709,0,0,1,311.749,199.081Z" transform="translate(-211.375 -144.272)" opacity="0.2" style="isolation: isolate"/>
        </g>
        <path id="Path_110" data-name="Path 110" d="M259.568,157.017c-3.77,13.754-9.243,16.12-13.533,15.314a13.719,13.719,0,0,1-6.643-3.848,5.021,5.021,0,0,0,.6-2.678c-.052-1.43-.7-3.276-2.977-5.1a22.174,22.174,0,0,0-2.613-1.729l.273-3.536,1.313-16.783a89.377,89.377,0,0,0,7.943,10.374c.975,1.066,2,2.106,3.055,3.055C250.936,155.665,255.33,158.07,259.568,157.017Z" transform="translate(-132.774 -125.162)" fill="#e4897b"/>
        <path id="Path_111" data-name="Path 111" d="M246.035,169.232a13.719,13.719,0,0,1-6.643-3.848,5.021,5.021,0,0,0,.6-2.678c-.052-1.43-.7-3.276-2.977-5.1a22.174,22.174,0,0,0-2.613-1.729l.273-3.536,12.311-3.354S250.078,161.263,246.035,169.232Z" transform="translate(-132.774 -122.063)" opacity="0.2" style="isolation: isolate"/>
        <g id="Group_39" data-name="Group 39" transform="translate(78.088)">
          <path id="Path_112" data-name="Path 112" d="M220.713,138.106s-3.685-.391-4.286,4.39,1.027,4.871,1.027,4.871-1.248,4.013.317,5.139,2.942,5.915,2.942,5.915l3.637-6.686Z" transform="translate(-216.294 -125.331)" fill="#263238"/>
          <path id="Path_113" data-name="Path 113" d="M220.713,138.106s-3.685-.391-4.286,4.39,1.027,4.871,1.027,4.871-1.248,4.013.317,5.139,2.942,5.915,2.942,5.915l3.637-6.686Z" transform="translate(-216.294 -125.331)" fill="#fff" opacity="0.6"/>
          <path id="Path_114" data-name="Path 114" d="M248.786,165.179a17.215,17.215,0,0,1-.866,1.564,13.875,13.875,0,0,1-15.6,6.291,15.469,15.469,0,0,1-9.227-6.674,13.567,13.567,0,0,1-.827-1.422,34.728,34.728,0,0,1-1.388-3.216c-3.484-9.321-7.1-22.052,4.167-28.833,7.1-4.274,19.014-4.811,23.269,2.324a22.059,22.059,0,0,1,2.262,17.485C251.212,156.362,251.853,159.013,248.786,165.179Z" transform="translate(-215.953 -127.836)" fill="#e4897b"/>
          <path id="Path_115" data-name="Path 115" d="M253.212,144.4s1.885-.086,1.114-2.622-3.995-4.15-3.995-4.15,2.538-1.715-.8-3.342a7.738,7.738,0,0,0-5.542-.339c-1.13-.941-11.055-8.914-17.809-4.169a.325.325,0,0,0,.373.533c5.88-4.131,14.763,2.356,16.715,3.892-.17.07-.337.148-.5.23-2.023-.914-16.955-7.32-21.983.213a.325.325,0,0,0,.541.36c4.407-6.6,17.65-1.481,20.73-.172a7.5,7.5,0,0,0-.948.706c-3.091-.852-12.893-3.158-18.769.04a8.073,8.073,0,0,0-4.073,5.13.325.325,0,1,0,.627.17,7.446,7.446,0,0,1,3.757-4.728c5.372-2.928,14.531-.962,17.919-.079a7.171,7.171,0,0,0-1.313,2.071c-1.789,4.287,1.1,5.912,2.99,8.074,1.854,2.126,1.01,5.715.982,5.836a15.075,15.075,0,0,1-3.971,5.46,4.964,4.964,0,0,0-3.765,0c-2.383.771-3.67,3.685-3.67,3.685-5.712-.6-6.633,4.066-6.633,4.066a18.209,18.209,0,0,1-5.794-7.067c-.567,5.143,1.338,10.629,3.137,12.857s2.743,0,2.743,0,.429,4.372,2.868,6,3.3-.343,3.3-.343,1.287,2.743,5.915,3.943,6.085-5.486,6.085-5.486c5.057,3.857,4.629-5.314,4.629-5.314s2.486.686,2.245-3.813c-.186-3.5-3.31-10.292-4.686-13.136,2.053-.328,5.226,4.371,5.226,4.371C259.727,157.981,253.212,144.4,253.212,144.4Z" transform="translate(-215.707 -128.277)" fill="#263238"/>
          <path id="Path_116" data-name="Path 116" d="M253.212,144.4s1.885-.086,1.114-2.622-3.995-4.15-3.995-4.15,2.538-1.715-.8-3.342a7.738,7.738,0,0,0-5.542-.339c-1.13-.941-11.055-8.914-17.809-4.169a.325.325,0,0,0,.373.533c5.88-4.131,14.763,2.356,16.715,3.892-.17.07-.337.148-.5.23-2.023-.914-16.955-7.32-21.983.213a.325.325,0,0,0,.541.36c4.407-6.6,17.65-1.481,20.73-.172a7.5,7.5,0,0,0-.948.706c-3.091-.852-12.893-3.158-18.769.04a8.073,8.073,0,0,0-4.073,5.13.325.325,0,1,0,.627.17,7.446,7.446,0,0,1,3.757-4.728c5.372-2.928,14.531-.962,17.919-.079a7.171,7.171,0,0,0-1.313,2.071c-1.789,4.287,1.1,5.912,2.99,8.074,1.854,2.126,1.01,5.715.982,5.836a15.075,15.075,0,0,1-3.971,5.46,4.964,4.964,0,0,0-3.765,0c-2.383.771-3.67,3.685-3.67,3.685-5.712-.6-6.633,4.066-6.633,4.066a18.209,18.209,0,0,1-5.794-7.067c-.567,5.143,1.338,10.629,3.137,12.857s2.743,0,2.743,0,.429,4.372,2.868,6,3.3-.343,3.3-.343,1.287,2.743,5.915,3.943,6.085-5.486,6.085-5.486c5.057,3.857,4.629-5.314,4.629-5.314s2.486.686,2.245-3.813c-.186-3.5-3.31-10.292-4.686-13.136,2.053-.328,5.226,4.371,5.226,4.371C259.727,157.981,253.212,144.4,253.212,144.4Z" transform="translate(-215.707 -128.277)" fill="#fff" opacity="0.6"/>
          <path id="Path_117" data-name="Path 117" d="M229.965,145.361c.26.85-.091,1.681-.671,1.815s-1.195-.477-1.4-1.344.1-1.686.671-1.815S229.754,144.48,229.965,145.361Z" transform="translate(-212.833 -123.56)" fill="#263238"/>
          <path id="Path_118" data-name="Path 118" d="M222.378,147.112c.26.85-.1,1.686-.671,1.815s-1.195-.477-1.4-1.344.105-1.686.671-1.815S222.184,146.285,222.378,147.112Z" transform="translate(-215.109 -123.035)" fill="#263238"/>
          <path id="Path_119" data-name="Path 119" d="M224.936,146.572A31.862,31.862,0,0,1,222.491,155a5.185,5.185,0,0,0,4.373-.186Z" transform="translate(-214.435 -122.788)" fill="#de5753"/>
          <path id="Path_120" data-name="Path 120" d="M232.388,142.552a.551.551,0,0,1-.543-.086,4.236,4.236,0,0,0-3.675-.958.522.522,0,1,1-.307-1h0a5.212,5.212,0,0,1,4.649,1.149.522.522,0,0,1,.088.733l-.009.01A.83.83,0,0,1,232.388,142.552Z" transform="translate(-212.934 -124.651)" fill="#263238"/>
          <path id="Path_121" data-name="Path 121" d="M218.185,145.927a.505.505,0,0,1-.3.091.523.523,0,0,1-.4-.62l0-.01a5.206,5.206,0,0,1,3.025-3.73.521.521,0,0,1,.669.309h0a.538.538,0,0,1-.312.672h0a4.238,4.238,0,0,0-2.349,2.991A.534.534,0,0,1,218.185,145.927Z" transform="translate(-215.94 -124.273)" fill="#263238"/>
          <path id="Path_122" data-name="Path 122" d="M232.388,142.552a.551.551,0,0,1-.543-.086,4.236,4.236,0,0,0-3.675-.958.522.522,0,1,1-.307-1h0a5.212,5.212,0,0,1,4.649,1.149.522.522,0,0,1,.088.733l-.009.01A.83.83,0,0,1,232.388,142.552Z" transform="translate(-212.934 -124.651)" fill="#fff" opacity="0.6"/>
          <path id="Path_123" data-name="Path 123" d="M218.185,145.927a.505.505,0,0,1-.3.091.523.523,0,0,1-.4-.62l0-.01a5.206,5.206,0,0,1,3.025-3.73.521.521,0,0,1,.669.309h0a.538.538,0,0,1-.312.672h0a4.238,4.238,0,0,0-2.349,2.991A.534.534,0,0,1,218.185,145.927Z" transform="translate(-215.94 -124.273)" fill="#fff" opacity="0.6"/>
          <path id="Path_124" data-name="Path 124" d="M224.44,159.646s.944.943,2.229-.515c0,0,1.8,2.829,3.685-3.428,0,0,5.041,1.007,6.428,0,.943-.686,0-1.941,0-1.941s2.057-.2,2.571-1.746c0,0,1.629,6.124-7.8,4.972C231.555,156.988,228.518,163.589,224.44,159.646Z" transform="translate(-213.85 -121.155)" opacity="0.2" style="isolation: isolate"/>
          <path id="Path_125" data-name="Path 125" d="M248.994,147.178a10.462,10.462,0,0,1-4.653,6.5c-3.126,1.92-5.694-.638-5.676-4.117.046-3.091,1.687-7.909,5.247-8.386S249.724,143.855,248.994,147.178Z" transform="translate(-209.583 -124.421)" fill="#e4897b"/>
          <path id="Path_126" data-name="Path 126" d="M227.83,146.211s.5,2.49,3.489,1.719" transform="translate(-212.833 -122.897)" fill="none" stroke="#000" stroke-linecap="round" stroke-linejoin="round" stroke-width="0.5" opacity="0.2" style="isolation: isolate"/>
          <path id="Path_127" data-name="Path 127" d="M222.728,147.647s-.061,2.963-2.115,2.735" transform="translate(-214.998 -122.466)" fill="none" stroke="#000" stroke-linecap="round" stroke-linejoin="round" stroke-width="0.5" opacity="0.2" style="isolation: isolate"/>
          <path id="Path_128" data-name="Path 128" d="M219.393,140.894a17.712,17.712,0,0,1,9.771-2.218" transform="translate(-215.364 -125.18)" fill="none" stroke="#000" stroke-linecap="round" stroke-linejoin="round" stroke-width="0.5" opacity="0.2" style="isolation: isolate"/>
          <path id="Path_129" data-name="Path 129" d="M219.393,139.791a10.126,10.126,0,0,1,9.771-2.314" transform="translate(-215.364 -125.644)" fill="none" stroke="#000" stroke-linecap="round" stroke-linejoin="round" stroke-width="0.5" opacity="0.2" style="isolation: isolate"/>
          <path id="Path_130" data-name="Path 130" d="M220.35,137.481s3.346-3,8.918-1.375" transform="translate(-215.077 -126.073)" fill="none" stroke="#000" stroke-linecap="round" stroke-linejoin="round" stroke-width="0.5" opacity="0.2" style="isolation: isolate"/>
        </g>
        <path id="Path_131" data-name="Path 131" d="M318.888,205.671l-6.552,7.189s-4.6,2.781-4.87,4.363,5.711,22.17,5.711,22.17,8.159-6.265,7.9-8.154-4.115-11.19-4.115-11.19l7.163-6.666Z" transform="translate(-110.857 -105.059)" fill="#e4897b"/>
        <g id="Group_40" data-name="Group 40" transform="translate(150.998 27.941)">
          <path id="Path_132" data-name="Path 132" d="M273.478,149.77s57.095,3.9,78.179,28.27-20.056,58.78-20.056,58.78L324.175,224.2s16.683-16.868,10.512-28.331S296.981,185.4,296.981,185.4,266.269,172.736,273.478,149.77Z" transform="translate(-272.377 -149.77)" fill="#407bff"/>
          <path id="Path_133" data-name="Path 133" d="M334.651,234.063c-1.872,1.768-3.055,2.756-3.055,2.756L324.173,224.2s.637-.637,1.612-1.755c4.017-4.6,13.884-17.329,8.9-26.572C328.515,184.4,296.977,185.4,296.977,185.4s-30.706-12.662-23.5-35.633c0,0,57.1,3.9,78.182,28.262C369.165,198.274,343.764,225.431,334.651,234.063Z" transform="translate(-272.378 -149.77)" opacity="0.4" style="isolation: isolate"/>
          <path id="Path_134" data-name="Path 134" d="M322.7,217.293c-1.872,1.768-3.055,2.756-3.055,2.756l-7.423-12.623s.637-.637,1.612-1.755Z" transform="translate(-260.426 -133)" opacity="0.1" style="isolation: isolate"/>
        </g>
        <g id="Group_47" data-name="Group 47" transform="translate(6.029 128.631)">
          <g id="Group_43" data-name="Group 43" transform="translate(6.499 25.173)">
            <g id="Group_41" data-name="Group 41">
              <path id="Path_135" data-name="Path 135" d="M243.928,253.088H169.113a3.25,3.25,0,1,1,0-6.5h74.815a3.25,3.25,0,0,1,0,6.5Z" transform="translate(-165.863 -246.588)" fill="#407bff"/>
            </g>
            <g id="Group_42" data-name="Group 42" opacity="0.2">
              <path id="Path_136" data-name="Path 136" d="M243.928,253.088H169.113a3.25,3.25,0,1,1,0-6.5h74.815a3.25,3.25,0,0,1,0,6.5Z" transform="translate(-165.863 -246.588)" fill="#fff"/>
            </g>
          </g>
          <g id="Group_46" data-name="Group 46" transform="translate(0 123.916)">
            <g id="Group_44" data-name="Group 44">
              <path id="Path_137" data-name="Path 137" d="M238.929,329.044H164.114a3.25,3.25,0,0,1,0-6.5h74.815a3.25,3.25,0,0,1,0,6.5Z" transform="translate(-160.864 -322.544)" fill="#407bff"/>
            </g>
            <g id="Group_45" data-name="Group 45" opacity="0.2">
              <path id="Path_138" data-name="Path 138" d="M238.929,329.044H164.114a3.25,3.25,0,0,1,0-6.5h74.815a3.25,3.25,0,0,1,0,6.5Z" transform="translate(-160.864 -322.544)" fill="#fff"/>
            </g>
          </g>
          <path id="Path_139" data-name="Path 139" d="M287.552,232.224H240.5a10.763,10.763,0,0,0-10.719,10.057l-2.187,35.438h72.869l-2.189-35.445A10.76,10.76,0,0,0,287.552,232.224Z" transform="translate(-140.846 -225.724)" fill="none"/>
          <path id="Path_140" data-name="Path 140" d="M221.738,434.083l9.16-148.364h73.671l9.16,148.364h6.512L308.467,243.366a17.277,17.277,0,0,0-17.206-16.142H244.2A17.278,17.278,0,0,0,227,243.373l-11.773,190.71Zm11.748-190.3A10.763,10.763,0,0,1,244.2,233.724h47.057a10.76,10.76,0,0,1,10.717,10.05l2.189,35.445H231.3Z" transform="translate(-144.555 -227.224)" fill="#407bff"/>
          <path id="Path_141" data-name="Path 141" d="M221.738,434.083l9.16-148.364h73.671l9.16,148.364h6.512L308.467,243.366a17.277,17.277,0,0,0-17.206-16.142H244.2A17.278,17.278,0,0,0,227,243.373l-11.773,190.71Zm11.748-190.3A10.763,10.763,0,0,1,244.2,233.724h47.057a10.76,10.76,0,0,1,10.717,10.05l2.189,35.445H231.3Z" transform="translate(-144.555 -227.224)" fill="#fff" opacity="0.2"/>
        </g>
      </g>
    </g>
  </g>
</svg>
