<svg xmlns="http://www.w3.org/2000/svg" width="600.476" height="600.476" viewBox="0 0 600.476 600.476">
  <g id="Group_192" data-name="Group 192" transform="translate(-36.809 -36.809)">
    <circle id="Ellipse_9" data-name="Ellipse 9" cx="300.238" cy="300.238" r="300.238" transform="translate(36.809 36.809)" fill="#bddbff"/>
    <g id="Group_104" data-name="Group 104" transform="translate(199.763 87.093)" style="mix-blend-mode: multiply;isolation: isolate">
      <g id="Group_81" data-name="Group 81" transform="translate(0)">
        <g id="Group_77" data-name="Group 77">
          <path id="Path_167" data-name="Path 167" d="M426.639,346.148H152.966a.449.449,0,0,1-.448-.448V72.963a.449.449,0,0,1,.448-.449H426.639a.449.449,0,0,1,.448.449V345.7A.449.449,0,0,1,426.639,346.148Zm-273.225-.9H426.191V73.411H153.414Z" transform="translate(-152.518 -72.514)" fill="#c0d3fc"/>
        </g>
        <g id="Group_80" data-name="Group 80" transform="translate(10.616 12.337)">
          <g id="Group_78" data-name="Group 78">
            <path id="Path_168" data-name="Path 168" d="M281.5,331.706H160.518a.462.462,0,0,1-.462-.462V81.735a.462.462,0,0,1,.462-.461H281.5a.462.462,0,0,1,.462.461v249.51A.462.462,0,0,1,281.5,331.706Zm-120.521-.922H281.039V82.2H160.978Z" transform="translate(-160.056 -81.274)" fill="#c0d3fc"/>
          </g>
          <g id="Group_79" data-name="Group 79" transform="translate(131.432)">
            <path id="Path_169" data-name="Path 169" d="M374.826,331.706H253.844a.462.462,0,0,1-.462-.462V81.735a.462.462,0,0,1,.462-.461H374.826a.462.462,0,0,1,.461.461v249.51A.462.462,0,0,1,374.826,331.706ZM254.3,330.784H374.365V82.2H254.3Z" transform="translate(-253.382 -81.274)" fill="#c0d3fc"/>
          </g>
        </g>
      </g>
      <g id="Group_92" data-name="Group 92" transform="translate(10.652 18.105)">
        <g id="Group_82" data-name="Group 82">
          <path id="Path_170" data-name="Path 170" d="M281.489,86.221H160.507a.425.425,0,1,1,0-.851H281.489a.425.425,0,0,1,0,.851Z" transform="translate(-160.082 -85.37)" fill="#c0d3fc"/>
        </g>
        <g id="Group_83" data-name="Group 83" transform="translate(0 5.146)">
          <path id="Path_171" data-name="Path 171" d="M281.489,89.875H160.507a.425.425,0,0,1,0-.851H281.489a.425.425,0,0,1,0,.851Z" transform="translate(-160.082 -89.024)" fill="#c0d3fc"/>
        </g>
        <g id="Group_84" data-name="Group 84" transform="translate(0 10.292)">
          <path id="Path_172" data-name="Path 172" d="M281.489,93.529H160.507a.425.425,0,0,1,0-.851H281.489a.425.425,0,0,1,0,.851Z" transform="translate(-160.082 -92.678)" fill="#c0d3fc"/>
        </g>
        <g id="Group_85" data-name="Group 85" transform="translate(0 15.436)">
          <path id="Path_173" data-name="Path 173" d="M281.489,97.182H160.507a.425.425,0,1,1,0-.851H281.489a.425.425,0,0,1,0,.851Z" transform="translate(-160.082 -96.331)" fill="#c0d3fc"/>
        </g>
        <g id="Group_86" data-name="Group 86" transform="translate(0 20.581)">
          <path id="Path_174" data-name="Path 174" d="M281.489,100.835H160.507a.425.425,0,1,1,0-.851H281.489a.425.425,0,0,1,0,.851Z" transform="translate(-160.082 -99.984)" fill="#c0d3fc"/>
        </g>
        <g id="Group_87" data-name="Group 87" transform="translate(0 25.728)">
          <path id="Path_175" data-name="Path 175" d="M281.489,104.49H160.507a.425.425,0,1,1,0-.851H281.489a.425.425,0,0,1,0,.851Z" transform="translate(-160.082 -103.639)" fill="#c0d3fc"/>
        </g>
        <g id="Group_88" data-name="Group 88" transform="translate(0 30.873)">
          <path id="Path_176" data-name="Path 176" d="M281.489,108.143H160.507a.425.425,0,0,1,0-.851H281.489a.425.425,0,0,1,0,.851Z" transform="translate(-160.082 -107.292)" fill="#c0d3fc"/>
        </g>
        <g id="Group_89" data-name="Group 89" transform="translate(0 36.017)">
          <path id="Path_177" data-name="Path 177" d="M281.489,111.8H160.507a.426.426,0,0,1,0-.852H281.489a.426.426,0,0,1,0,.852Z" transform="translate(-160.082 -110.945)" fill="#c0d3fc"/>
        </g>
        <g id="Group_90" data-name="Group 90" transform="translate(0 41.163)">
          <path id="Path_178" data-name="Path 178" d="M281.489,115.45H160.507a.425.425,0,1,1,0-.851H281.489a.425.425,0,0,1,0,.851Z" transform="translate(-160.082 -114.599)" fill="#c0d3fc"/>
        </g>
        <g id="Group_91" data-name="Group 91" transform="translate(0 46.308)">
          <path id="Path_179" data-name="Path 179" d="M281.489,119.1H160.507a.425.425,0,1,1,0-.851H281.489a.425.425,0,0,1,0,.851Z" transform="translate(-160.082 -118.252)" fill="#c0d3fc"/>
        </g>
      </g>
      <g id="Group_103" data-name="Group 103" transform="translate(142.083 18.105)">
        <g id="Group_93" data-name="Group 93">
          <path id="Path_180" data-name="Path 180" d="M374.816,86.221H253.834a.425.425,0,1,1,0-.851H374.816a.425.425,0,1,1,0,.851Z" transform="translate(-253.407 -85.37)" fill="#c0d3fc"/>
        </g>
        <g id="Group_94" data-name="Group 94" transform="translate(0 5.146)">
          <path id="Path_181" data-name="Path 181" d="M374.816,89.875H253.834a.425.425,0,1,1,0-.851H374.816a.425.425,0,1,1,0,.851Z" transform="translate(-253.407 -89.024)" fill="#c0d3fc"/>
        </g>
        <g id="Group_95" data-name="Group 95" transform="translate(0 10.292)">
          <path id="Path_182" data-name="Path 182" d="M374.816,93.529H253.834a.425.425,0,1,1,0-.851H374.816a.425.425,0,1,1,0,.851Z" transform="translate(-253.407 -92.678)" fill="#c0d3fc"/>
        </g>
        <g id="Group_96" data-name="Group 96" transform="translate(0 15.436)">
          <path id="Path_183" data-name="Path 183" d="M374.816,97.182H253.834a.425.425,0,1,1,0-.851H374.816a.425.425,0,1,1,0,.851Z" transform="translate(-253.407 -96.331)" fill="#c0d3fc"/>
        </g>
        <g id="Group_97" data-name="Group 97" transform="translate(0 20.581)">
          <path id="Path_184" data-name="Path 184" d="M374.816,100.835H253.834a.425.425,0,1,1,0-.851H374.816a.425.425,0,1,1,0,.851Z" transform="translate(-253.407 -99.984)" fill="#c0d3fc"/>
        </g>
        <g id="Group_98" data-name="Group 98" transform="translate(0 25.728)">
          <path id="Path_185" data-name="Path 185" d="M374.816,104.49H253.834a.425.425,0,1,1,0-.851H374.816a.425.425,0,1,1,0,.851Z" transform="translate(-253.407 -103.639)" fill="#c0d3fc"/>
        </g>
        <g id="Group_99" data-name="Group 99" transform="translate(0 30.873)">
          <path id="Path_186" data-name="Path 186" d="M374.816,108.143H253.834a.425.425,0,1,1,0-.851H374.816a.425.425,0,1,1,0,.851Z" transform="translate(-253.407 -107.292)" fill="#c0d3fc"/>
        </g>
        <g id="Group_100" data-name="Group 100" transform="translate(0 36.017)">
          <path id="Path_187" data-name="Path 187" d="M374.816,111.8H253.834a.426.426,0,1,1,0-.852H374.816a.426.426,0,0,1,0,.852Z" transform="translate(-253.407 -110.945)" fill="#c0d3fc"/>
        </g>
        <g id="Group_101" data-name="Group 101" transform="translate(0 41.163)">
          <path id="Path_188" data-name="Path 188" d="M374.816,115.45H253.834a.425.425,0,1,1,0-.851H374.816a.425.425,0,1,1,0,.851Z" transform="translate(-253.407 -114.599)" fill="#c0d3fc"/>
        </g>
        <g id="Group_102" data-name="Group 102" transform="translate(0 46.308)">
          <path id="Path_189" data-name="Path 189" d="M374.816,119.1H253.834a.425.425,0,1,1,0-.851H374.816a.425.425,0,1,1,0,.851Z" transform="translate(-253.407 -118.252)" fill="#c0d3fc"/>
        </g>
      </g>
    </g>
    <g id="Group_133" data-name="Group 133" transform="translate(64.393 106.543)">
      <g id="Group_118" data-name="Group 118" style="mix-blend-mode: multiply;isolation: isolate">
        <g id="Group_117" data-name="Group 117">
          <g id="Group_105" data-name="Group 105" transform="translate(0 34.533)">
            <path id="Path_190" data-name="Path 190" d="M182.4,121.943H56.866a.471.471,0,0,1-.47-.47V111.315a.47.47,0,0,1,.47-.469H182.4a.47.47,0,0,1,.47.469v10.158A.471.471,0,0,1,182.4,121.943ZM57.335,121h124.6v-9.217H57.335Z" transform="translate(-56.396 -110.846)" fill="#c0d3fc"/>
          </g>
          <g id="Group_116" data-name="Group 116" transform="translate(8.386)">
            <g id="Group_106" data-name="Group 106" transform="translate(0 3.856)">
              <path id="Path_191" data-name="Path 191" d="M82.494,120.679H64.4a2.048,2.048,0,0,1-2.046-2.046V91.111A2.048,2.048,0,0,1,64.4,89.063h18.1a2.048,2.048,0,0,1,2.046,2.048v27.523A2.048,2.048,0,0,1,82.494,120.679ZM64.4,90a1.107,1.107,0,0,0-1.107,1.107v27.523A1.108,1.108,0,0,0,64.4,119.74h18.1a1.108,1.108,0,0,0,1.107-1.107V91.111A1.107,1.107,0,0,0,82.494,90Z" transform="translate(-62.351 -89.063)" fill="#c0d3fc"/>
            </g>
            <g id="Group_107" data-name="Group 107" transform="translate(3.77)">
              <path id="Path_192" data-name="Path 192" d="M78.452,90.95h-12.2a1.226,1.226,0,0,1-1.225-1.225V87.552a1.227,1.227,0,0,1,1.225-1.227h12.2a1.229,1.229,0,0,1,1.227,1.227v2.173A1.227,1.227,0,0,1,78.452,90.95Zm-12.2-3.684a.286.286,0,0,0-.286.286v2.173a.285.285,0,0,0,.286.284h12.2a.285.285,0,0,0,.286-.284V87.552a.286.286,0,0,0-.286-.286Z" transform="translate(-65.028 -86.325)" fill="#c0d3fc"/>
            </g>
            <g id="Group_110" data-name="Group 110" transform="translate(56.028)">
              <g id="Group_108" data-name="Group 108" transform="translate(0 3.856)">
                <path id="Path_193" data-name="Path 193" d="M117.349,120.679H103.007a.871.871,0,0,1-.872-.87V89.935a.872.872,0,0,1,.872-.872h14.342a.872.872,0,0,1,.872.872v29.874A.871.871,0,0,1,117.349,120.679Zm-.069-30.745L103.007,90l.069,29.805,14.2-.069Z" transform="translate(-102.135 -89.063)" fill="#c0d3fc"/>
              </g>
              <g id="Group_109" data-name="Group 109" transform="translate(2.687)">
                <path id="Path_194" data-name="Path 194" d="M113.528,90.95H105.27a1.227,1.227,0,0,1-1.227-1.225V87.552a1.229,1.229,0,0,1,1.227-1.227h8.258a1.229,1.229,0,0,1,1.227,1.227v2.173A1.227,1.227,0,0,1,113.528,90.95Zm-8.258-3.684a.286.286,0,0,0-.287.286v2.173a.285.285,0,0,0,.287.284h8.258a.285.285,0,0,0,.287-.284V87.552a.286.286,0,0,0-.287-.286Z" transform="translate(-104.043 -86.325)" fill="#c0d3fc"/>
              </g>
            </g>
            <g id="Group_111" data-name="Group 111" transform="translate(27.027 3.149)">
              <path id="Path_195" data-name="Path 195" d="M90.088,120.58H82.012a.471.471,0,0,1-.47-.47V89.031a.471.471,0,0,1,.47-.47h8.075a.471.471,0,0,1,.47.47V120.11A.471.471,0,0,1,90.088,120.58Zm-7.6-.939h7.134V89.5H82.483Z" transform="translate(-81.542 -88.561)" fill="#c0d3fc"/>
            </g>
            <g id="Group_112" data-name="Group 112" transform="translate(88.882 3.149)">
              <path id="Path_196" data-name="Path 196" d="M134.007,120.58h-8.074a.47.47,0,0,1-.469-.47V89.031a.47.47,0,0,1,.469-.47h8.074a.471.471,0,0,1,.47.47V120.11A.471.471,0,0,1,134.007,120.58Zm-7.6-.939h7.134V89.5H126.4Z" transform="translate(-125.464 -88.561)" fill="#c0d3fc"/>
            </g>
            <g id="Group_113" data-name="Group 113" transform="translate(100.688 3.149)">
              <path id="Path_197" data-name="Path 197" d="M142.393,120.58h-8.075a.471.471,0,0,1-.47-.47V89.031a.471.471,0,0,1,.47-.47h8.075a.47.47,0,0,1,.469.47V120.11A.47.47,0,0,1,142.393,120.58Zm-7.606-.939h7.136V89.5h-7.136Z" transform="translate(-133.847 -88.561)" fill="#c0d3fc"/>
            </g>
            <g id="Group_114" data-name="Group 114" transform="translate(74.866 12.442)">
              <path id="Path_198" data-name="Path 198" d="M126.339,117.886H115.981a.471.471,0,0,1-.47-.47V95.63a.471.471,0,0,1,.47-.47h10.358a.471.471,0,0,1,.47.47v21.785A.471.471,0,0,1,126.339,117.886Zm-9.889-.939h9.42V96.1h-9.42Z" transform="translate(-115.511 -95.16)" fill="#c0d3fc"/>
            </g>
            <g id="Group_115" data-name="Group 115" transform="translate(40.551 9.244)">
              <path id="Path_199" data-name="Path 199" d="M103.8,118.813H91.615a.471.471,0,0,1-.47-.47V93.358a.47.47,0,0,1,.47-.469H103.8a.47.47,0,0,1,.47.469v24.985A.471.471,0,0,1,103.8,118.813Zm-11.719-.939h11.25V93.828H92.084Z" transform="translate(-91.145 -92.889)" fill="#c0d3fc"/>
            </g>
          </g>
        </g>
      </g>
      <g id="Group_132" data-name="Group 132" transform="translate(0 68.118)" style="mix-blend-mode: multiply;isolation: isolate">
        <g id="Group_131" data-name="Group 131">
          <g id="Group_119" data-name="Group 119" transform="translate(0 34.533)">
            <path id="Path_200" data-name="Path 200" d="M182.4,170.311H56.866a.471.471,0,0,1-.47-.469V159.685a.471.471,0,0,1,.47-.47H182.4a.471.471,0,0,1,.47.47v10.157A.471.471,0,0,1,182.4,170.311Zm-125.066-.939h124.6v-9.217H57.335Z" transform="translate(-56.396 -159.215)" fill="#a5bcf6"/>
          </g>
          <g id="Group_130" data-name="Group 130" transform="translate(8.386)">
            <g id="Group_120" data-name="Group 120" transform="translate(87.512 3.856)">
              <path id="Path_201" data-name="Path 201" d="M144.634,169.048h-18.1A2.05,2.05,0,0,1,124.491,167V139.478a2.049,2.049,0,0,1,2.048-2.046h18.1a2.05,2.05,0,0,1,2.048,2.046V167A2.05,2.05,0,0,1,144.634,169.048Zm-18.1-30.677a1.108,1.108,0,0,0-1.108,1.107V167a1.108,1.108,0,0,0,1.108,1.108h18.1A1.108,1.108,0,0,0,145.742,167V139.478a1.108,1.108,0,0,0-1.108-1.107Z" transform="translate(-124.491 -137.432)" fill="#a5bcf6"/>
            </g>
            <g id="Group_121" data-name="Group 121" transform="translate(91.284)">
              <path id="Path_202" data-name="Path 202" d="M140.592,139.317h-12.2a1.226,1.226,0,0,1-1.225-1.225v-2.173a1.226,1.226,0,0,1,1.225-1.225h12.2a1.226,1.226,0,0,1,1.225,1.225v2.173A1.226,1.226,0,0,1,140.592,139.317Zm-12.2-3.684a.286.286,0,0,0-.286.286v2.173a.286.286,0,0,0,.286.286h12.2a.283.283,0,0,0,.286-.286v-2.173a.286.286,0,0,0-.286-.286Z" transform="translate(-127.169 -134.694)" fill="#a5bcf6"/>
            </g>
            <g id="Group_124" data-name="Group 124" transform="translate(37.589)">
              <g id="Group_122" data-name="Group 122" transform="translate(0 3.856)">
                <path id="Path_203" data-name="Path 203" d="M104.256,169.048H89.912a.871.871,0,0,1-.87-.87V138.3a.871.871,0,0,1,.87-.87h14.344a.871.871,0,0,1,.87.87v29.876A.871.871,0,0,1,104.256,169.048Zm-14.273-.87h0Zm0-.069h14.273l-.07-29.807-14.273.069Z" transform="translate(-89.042 -137.432)" fill="#a5bcf6"/>
              </g>
              <g id="Group_123" data-name="Group 123" transform="translate(2.687)">
                <path id="Path_204" data-name="Path 204" d="M100.435,139.317h-8.26a1.226,1.226,0,0,1-1.225-1.225v-2.173a1.226,1.226,0,0,1,1.225-1.225h8.26a1.226,1.226,0,0,1,1.225,1.225v2.173A1.226,1.226,0,0,1,100.435,139.317Zm-8.26-3.684a.286.286,0,0,0-.286.286v2.173a.286.286,0,0,0,.286.286h8.26a.286.286,0,0,0,.286-.286v-2.173a.286.286,0,0,0-.286-.286Z" transform="translate(-90.95 -134.694)" fill="#a5bcf6"/>
              </g>
            </g>
            <g id="Group_125" data-name="Group 125" transform="translate(73.66 3.149)">
              <path id="Path_205" data-name="Path 205" d="M123.2,168.948h-8.074a.47.47,0,0,1-.47-.469V137.4a.47.47,0,0,1,.47-.469H123.2a.469.469,0,0,1,.469.469v31.08A.469.469,0,0,1,123.2,168.948Zm-7.6-.939h7.133V137.869H115.6Z" transform="translate(-114.655 -136.93)" fill="#a5bcf6"/>
            </g>
            <g id="Group_126" data-name="Group 126" transform="translate(11.806 3.149)">
              <path id="Path_206" data-name="Path 206" d="M79.28,168.948H71.2a.47.47,0,0,1-.47-.469V137.4a.47.47,0,0,1,.47-.469H79.28a.469.469,0,0,1,.469.469v31.08A.469.469,0,0,1,79.28,168.948Zm-7.606-.939h7.136V137.869H71.673Z" transform="translate(-70.734 -136.93)" fill="#a5bcf6"/>
            </g>
            <g id="Group_127" data-name="Group 127" transform="translate(0 3.149)">
              <path id="Path_207" data-name="Path 207" d="M70.894,168.948H62.82a.469.469,0,0,1-.469-.469V137.4a.469.469,0,0,1,.469-.469h8.074a.47.47,0,0,1,.47.469v31.08A.47.47,0,0,1,70.894,168.948Zm-7.6-.939h7.134V137.869H63.29Z" transform="translate(-62.351 -136.93)" fill="#a5bcf6"/>
            </g>
            <g id="Group_128" data-name="Group 128" transform="translate(23.537 12.441)">
              <path id="Path_208" data-name="Path 208" d="M89.894,166.254H79.534a.47.47,0,0,1-.47-.469V144a.471.471,0,0,1,.47-.47H89.894a.471.471,0,0,1,.47.47v21.786A.47.47,0,0,1,89.894,166.254ZM80,165.314h9.422V144.469H80Z" transform="translate(-79.064 -143.528)" fill="#a5bcf6"/>
            </g>
            <g id="Group_129" data-name="Group 129" transform="translate(56.024 9.243)">
              <path id="Path_209" data-name="Path 209" d="M114.788,167.181H102.6a.47.47,0,0,1-.47-.469V141.727a.471.471,0,0,1,.47-.47h12.186a.471.471,0,0,1,.47.47v24.985A.47.47,0,0,1,114.788,167.181Zm-11.717-.939h11.248V142.2H103.071Z" transform="translate(-102.132 -141.257)" fill="#a5bcf6"/>
            </g>
          </g>
        </g>
      </g>
    </g>
    <path id="Path_210" data-name="Path 210" d="M249.676,228.13c1.607,3.357,3.188,6.706,4.825,9.957q6.9,13.706,13.407,27.607c2.063,4.409,3.081,7.087,2.205,11.954-.652,3.626-2.255,7.2-5.378,9.341-9.36,6.474-19.023-4.488-23.748-11.311q-1.445-2.087-2.876-4.183c-5.932-8.726-11.673-17.776-15.253-27.759-2.931-8.174-2.8-16.284-4.274-24.633a106.332,106.332,0,0,1-1.6-13.127c-.144-2.9-1.241-13.392,1.946-14.368a6.194,6.194,0,0,1,4.487.8c6.34,3.188,10.69,9.206,14.787,15C242.683,213.741,246.239,220.95,249.676,228.13Z" transform="translate(73.445 63.137)" fill="#e8e8e8"/>
    <g id="Group_146" data-name="Group 146" transform="translate(210.84 420.775)">
      <g id="Group_134" data-name="Group 134" transform="translate(60.446)">
        <path id="Path_211" data-name="Path 211" d="M204.665,444.483a1.361,1.361,0,0,1-1.36-1.36V310.813a1.36,1.36,0,0,1,2.721,0V443.122A1.361,1.361,0,0,1,204.665,444.483Z" transform="translate(-203.305 -309.453)" fill="#0c064e"/>
      </g>
      <g id="Group_135" data-name="Group 135" transform="translate(8.532 115.69)">
        <path id="Path_212" data-name="Path 212" d="M271.63,409.751a1.343,1.343,0,0,1-.846-.3c-10.043-8.015-23.367-11.181-36.271-13.406a112.563,112.563,0,0,0-12.709-1.624c-17.753-1-35.089,5.477-48.215,11.226a55.273,55.273,0,0,0-5.116,2.47,1.36,1.36,0,1,1-1.339-2.367,58.669,58.669,0,0,1,5.364-2.6c13.4-5.87,31.143-12.468,49.458-11.45a115.658,115.658,0,0,1,13.018,1.659c13.262,2.288,26.983,5.564,37.5,13.962a1.361,1.361,0,0,1-.849,2.424Z" transform="translate(-166.442 -391.602)" fill="#0c064e"/>
      </g>
      <g id="Group_136" data-name="Group 136" transform="translate(0 129.112)">
        <path id="Path_213" data-name="Path 213" d="M177.732,409.8a8.674,8.674,0,1,1-8.674-8.672A8.673,8.673,0,0,1,177.732,409.8Z" transform="translate(-160.384 -401.132)" fill="#e3f7fe"/>
      </g>
      <g id="Group_138" data-name="Group 138" transform="translate(5.292 134.403)">
        <g id="Group_137" data-name="Group 137">
          <path id="Path_214" data-name="Path 214" d="M170.9,408.27a3.381,3.381,0,1,1-3.381-3.381A3.381,3.381,0,0,1,170.9,408.27Z" transform="translate(-164.142 -404.889)" fill="#bddbff"/>
        </g>
      </g>
      <g id="Group_139" data-name="Group 139" transform="translate(106.509 129.112)">
        <path id="Path_215" data-name="Path 215" d="M253.361,409.8a8.674,8.674,0,1,1-8.674-8.672A8.674,8.674,0,0,1,253.361,409.8Z" transform="translate(-236.013 -401.132)" fill="#e3f7fe"/>
      </g>
      <g id="Group_141" data-name="Group 141" transform="translate(111.801 134.403)">
        <g id="Group_140" data-name="Group 140">
          <path id="Path_216" data-name="Path 216" d="M246.534,408.27a3.381,3.381,0,1,1-3.381-3.381A3.381,3.381,0,0,1,246.534,408.27Z" transform="translate(-239.771 -404.889)" fill="#bddbff"/>
        </g>
      </g>
      <g id="Group_143" data-name="Group 143" transform="translate(53.586 129.112)">
        <g id="Group_142" data-name="Group 142">
          <path id="Path_217" data-name="Path 217" d="M215.78,409.8a8.673,8.673,0,1,1-8.672-8.672A8.673,8.673,0,0,1,215.78,409.8Z" transform="translate(-198.434 -401.132)" fill="#e3f7fe"/>
        </g>
      </g>
      <g id="Group_145" data-name="Group 145" transform="translate(58.878 134.403)">
        <g id="Group_144" data-name="Group 144">
          <path id="Path_218" data-name="Path 218" d="M208.953,408.27a3.381,3.381,0,1,1-3.38-3.381A3.38,3.38,0,0,1,208.953,408.27Z" transform="translate(-202.192 -404.889)" fill="#bddbff"/>
        </g>
      </g>
    </g>
    <path id="Path_219" data-name="Path 219" d="M272.949,283.039c-2.986.514-5.935,1.19-8.967.808-5.428-.68-10.809-1.963-16.38-2.311a143.358,143.358,0,0,0-34.032,1.922c-12.671,2.258-25.617,2.249-38.292,4.456-10.633,1.851-20.985,1.948-23.116,15.239-1.638,10.219,4.208,20.539,12.44,26.811s18.5,9.181,28.628,11.32c22.167,4.685,46.635,7.544,69.106,3.484,11.638-2.1,23.355-6.911,30.7-16.179,8.916-11.247,8.058-26.144-.159-37.365-3.341-4.563-8.336-8.24-13.976-8.644A24.571,24.571,0,0,0,272.949,283.039Z" transform="translate(46.987 99.809)" fill="#ff4284"/>
    <path id="Path_220" data-name="Path 220" d="M167.3,362.235a19.6,19.6,0,0,1-9.678-3.994c-6.354-5.192-7.654-14.249-8.3-22.43-2.017-25.448-1.073-50.545-.384-75.943.33-12.149-.232-24.33.76-36.457.859-10.486,1.627-25.352,10.988-31.9,13.715-9.6,35.065-14.352,50.4-5.821,10.882,6.056,17.68,17.524,22.048,29.184,10.044,26.809,9.733,56.355,6.829,84.835-1.044,10.238-2.435,20.564-6.191,30.145-9.341,23.824-31.263,30.005-54.848,32.4A47.119,47.119,0,0,1,167.3,362.235Z" transform="translate(45.442 58.974)" fill="#ff4284"/>
    <path id="Path_221" data-name="Path 221" d="M271.843,217.233a12.9,12.9,0,0,1-.787-3.274c0-1.614.9-2.976,1.469-4.428a5.062,5.062,0,0,0,.453-2.338,27.034,27.034,0,0,1-.625-2.932,1.492,1.492,0,0,1,.377-1.17,1.313,1.313,0,0,1,1.187-.163,3.763,3.763,0,0,1,1.949,1.393c1.969,2.549,1.511,6.27,2.2,9.255-.26-1.122,1.176-2.9,1.783-3.7a39.512,39.512,0,0,0,2.725-4.405c1.679-2.953,3.176-6,4.676-9.05a15.47,15.47,0,0,1,1.676-3.083,1.894,1.894,0,0,1,1.328-.868c.842.013,1.114,1.263,1.124,1.935a7.208,7.208,0,0,1-.61,2.579q-1.722,4.635-3.445,9.269c2.68-4.052,3.807-8.933,6.129-13.2a4.172,4.172,0,0,1,1.376-1.673,1.6,1.6,0,0,1,2,.187,2.217,2.217,0,0,1,.231,1.818c-.9,4.864-4.136,8.97-5.659,13.677-.113.348-.18.808.125,1.01.661.434,6.1-10.655,7.156-11.241a1.743,1.743,0,0,1,2-.023,1.406,1.406,0,0,1,.359,1.18,4.183,4.183,0,0,1-.4,1.208c-.921,2.041-1.882,4.064-2.918,6.049-1.02,1.951-2.329,3.79-3.277,5.764-.166.348-.468,1.565-.765,1.753L299,208.286a4.91,4.91,0,0,1,1.586-1.02,1.677,1.677,0,0,1,1.758.358c.984,1.115-.094,2.19-.815,2.96-1.17,1.251-2.314,2.47-3.549,3.669-1.617,1.567-2.693,3.735-4.387,5.153-1.958,1.638-4.18,3.026-5.977,4.853-3.843,3.908-7.8,7.888-10.923,12.438-.148.215-.339.456-.6.449a.769.769,0,0,1-.435-.208c-2.656-2.08-4.607-4.959-6.654-7.6-1.711-2.207,1.153-3.573,2.1-5.46A9.481,9.481,0,0,0,271.843,217.233Z" transform="translate(94.588 63.007)" fill="#f9926e"/>
    <path id="Path_222" data-name="Path 222" d="M193.322,427.06a5.261,5.261,0,0,1-1.631-.577c-1.932-.917-3.729-3.4-5.26-4.876-1.451-1.394-6.391-4.885-6.636-7.046a4.676,4.676,0,0,1,.773-2.618q2.049-3.88,4.1-7.76c9.812-18.57,19.722-37.291,33.133-53.454,9.819-11.835,21.7-21.946,31.043-34.171,3.656-4.78,6.285-9.489,11.033-13.335,4.561-3.7,9.413-7.264,13.168-11.862a1.216,1.216,0,0,1,.745-.538,1.17,1.17,0,0,1,.766.321,30.637,30.637,0,0,1,11.333,18.539c.727,3.756.408,7.377.318,11.157-.1,4.019-1.841,6.689-3.988,10.1-9.568,15.2-24.514,27.8-36.9,40.8C228.726,389.158,210.842,406,195.761,424.7,194.459,426.315,194.226,427.134,193.322,427.06Z" transform="translate(58.376 103.714)" fill="#8babea"/>
    <path id="Path_223" data-name="Path 223" d="M173.642,387.468q1.741-1.69,3.576-3.283a14.354,14.354,0,0,0,1.134,6.116,56.273,56.273,0,0,0,3.9,6.942,41.11,41.11,0,0,0,8.484,9.41c.906.69,1.859,1.953,3.125,1.672,1.122-.249,2.7-2.634,3.687-2.452.97.177,2.649,4.971,3.117,5.908l6.35,12.71a30.135,30.135,0,0,1,1.682,3.793c.527,1.558,1.407,4.105-.341,5.094a5.453,5.453,0,0,1-5.719-.594c-9.416-8.717-17.728-18.5-26.025-28.276a70.717,70.717,0,0,1-4.673-5.428c-1.077-1.565-2.807-3.726-2.642-5.732a6.425,6.425,0,0,1,2.145-3.663Q172.521,388.556,173.642,387.468Z" transform="translate(54.089 141.836)" fill="#fff"/>
    <path id="Path_224" data-name="Path 224" d="M176.047,392.489a56.381,56.381,0,0,0,3.9,6.942,41.139,41.139,0,0,0,8.484,9.41c.906.69,1.859,1.953,3.125,1.672,1.008-.224,2.381-2.158,3.367-2.418-.5-1.118-1.017-2.228-1.573-3.315-1.683-3.288-2.173-6.685-.349-10.1a22.79,22.79,0,0,1,3.245-3.962,1.077,1.077,0,0,1-.938.407,5.261,5.261,0,0,1-1.631-.577c-1.932-.917-3.729-3.4-5.26-4.876-1.407-1.352-6.084-4.674-6.588-6.844a24.077,24.077,0,0,1-2.8,3.457c-1.348,1.456-2.781,2.841-4.1,4.321A13.78,13.78,0,0,0,176.047,392.489Z" transform="translate(56.394 139.648)" fill="#ffac88"/>
    <path id="Path_225" data-name="Path 225" d="M273.48,317.883a24.827,24.827,0,0,1-7.925,7.173c-9.093,4.788-20.123.6-29.5-3.6q-16.5-7.4-33-14.794c-6.226-2.791-12.611-5.691-17.371-10.579-9.817-10.079-6.025-26.269,8.543-27.482q12.521-1.041,25.083-1.489c3.683-.131,9.1-1.272,12.647-.327,3.155.842,6.2,3.957,8.83,5.944a424.692,424.692,0,0,1,36.93,31.388,4.929,4.929,0,0,1,1.642,2.355c.521,2.443-2.143,3.371-3.105,5.118C275.1,313.693,275.029,315.845,273.48,317.883Z" transform="translate(58.561 93.748)" fill="#8babea"/>
    <path id="Path_226" data-name="Path 226" d="M206.132,133.418c6.013-1.314,11.165,1.455,17.136,1.81a30,30,0,0,1,11.2,2.962c3.267,1.573,4.184,3.618,5.911,6.7a44.647,44.647,0,0,1,5.43,19.537c.213,3.45.817,6.843.853,10.35.038,3.719-.048,7.48.839,11.121,1.4,5.74,4.37,10.445,4.17,16.687-.156,4.89-2.035,9.867-5.761,13.037-1.835,1.562-4.045,2.642-5.849,4.239-7.447,6.589-5.38,18.592-8.836,27.917-2.621,7.073-8.6,12.572-15.453,15.728s-14.52,4.157-22.061,4.145c-10.845-.018-21.891-2.148-31.215-7.688-5.823-3.46-11.237-8.95-11.5-15.72-.193-5,2.459-10.12.828-14.852-.958-2.784-3.257-4.9-4.543-7.544-2.677-5.506-.437-12.31,3.486-17.011a24.136,24.136,0,0,1,6.818-6.012c2.452-1.315,5.218-2.038,7.315-3.96,5.854-5.368,2.614-16.545,8.733-21.61,2.017-1.67,4.712-2.31,6.808-3.88,4.763-3.564,4.994-10.43,6.688-16.134,2.28-7.672,9.457-16.579,17.19-19.305A15.011,15.011,0,0,1,206.132,133.418Z" transform="translate(44.63 39.303)" fill="#0c064e"/>
    <path id="Path_227" data-name="Path 227" d="M211.335,163.076a19.128,19.128,0,0,1-8.234-9.189,12.279,12.279,0,0,0-1.97-3.828,28.528,28.528,0,0,1-10.237,17.077,5.884,5.884,0,0,0-1.465,1.434,5.084,5.084,0,0,0-.563,1.746,114.281,114.281,0,0,0-1.28,13.48c-.035.527-.363,7.767-.518,7.781-3.072.738-6.312-.994-8.272-3.47a14.283,14.283,0,0,1-3.246-8.675c.03-3.069-.832-5.959-.722-9.05a69.069,69.069,0,0,1,.914-9.126c1-5.856,2.8-11.761,6.175-16.708a29.142,29.142,0,0,1,14.672-11.107,13.092,13.092,0,0,1,8.833.032,6.065,6.065,0,0,0,2.012.783,8.324,8.324,0,0,0,2.486-.928,13.03,13.03,0,0,1,5.4-.607,16.159,16.159,0,0,1,6.93,2.3c5.87,3.578,9.415,9.767,11.869,15.97a24.29,24.29,0,0,1,1.9,7.733c.241,5.066-1.891,9.91-4.06,14.493a15.258,15.258,0,0,0-1.9-6.58,4.376,4.376,0,0,0-3.276-2.412,10.044,10.044,0,0,1-2.608-.254c-1.046-.446-1.513-1.643-1.874-2.721l-.327,2.86-3.946-.014q-.748-1.711-1.5-3.422-.076,1.5-.154,3a1.337,1.337,0,0,1-.151.66c-.3.475-1.013.383-1.548.21A18.361,18.361,0,0,1,211.335,163.076Z" transform="translate(56.349 39.138)" fill="#0c064e"/>
    <path id="Path_228" data-name="Path 228" d="M230.119,167.149a15.221,15.221,0,0,0-1.783-5.554,4.376,4.376,0,0,0-3.276-2.412,10.043,10.043,0,0,1-2.608-.253c-1.046-.446-1.513-1.643-1.874-2.721l-.327,2.86-3.946-.014q-.748-1.711-1.5-3.422-.076,1.5-.154,3a1.337,1.337,0,0,1-.151.66c-.3.475-1.013.383-1.548.21a18.361,18.361,0,0,1-3.343-1.467,19.128,19.128,0,0,1-8.234-9.189,12.279,12.279,0,0,0-1.97-3.828,28.528,28.528,0,0,1-10.237,17.077,5.884,5.884,0,0,0-1.465,1.434,5.084,5.084,0,0,0-.563,1.746c-.09.483-.158.972-.234,1.459a13.729,13.729,0,0,0-1.651-2.688c-.794-1-1.886-1.98-3.162-1.894-1.7.113-2.687,2.007-2.941,3.691-.72,4.8,1.829,9.647,5.521,12.793a3.346,3.346,0,0,0,2.114.949,25.392,25.392,0,0,0,.741,2.642c1.676,4.835,5,8.81,8.706,12.259,4.256,3.963,10.982,8.73,17.06,6.391,3.167-1.218,5.954-3.991,8.275-6.377,4.65-4.784,8.255-11.047,8.726-17.809C230.521,173.512,230.023,170.325,230.119,167.149Z" transform="translate(58.072 44.182)" fill="#ffac88"/>
    <g id="Group_153" data-name="Group 153" transform="translate(254.467 199.197)">
      <g id="Group_148" data-name="Group 148">
        <g id="Group_147" data-name="Group 147">
          <path id="Path_229" data-name="Path 229" d="M199.351,152.243a2.278,2.278,0,0,1,.879.551,1.533,1.533,0,0,1,.472.963.94.94,0,0,1-.5.9,1.543,1.543,0,0,1-.532.1,39.128,39.128,0,0,0-6.568.52,2.846,2.846,0,0,1-.907.125.89.89,0,0,1-.745-.462c-.891-1.973,5.225-2.642,6.2-2.759a4.494,4.494,0,0,1,1.427-.021A2.406,2.406,0,0,1,199.351,152.243Z" transform="translate(-191.362 -152.116)" fill="#070630"/>
          <path id="Path_230" data-name="Path 230" d="M208.451,152.243a2.273,2.273,0,0,0-.88.551,1.524,1.524,0,0,0-.47.963.938.938,0,0,0,.5.9,1.536,1.536,0,0,0,.531.1,39.129,39.129,0,0,1,6.568.52,2.852,2.852,0,0,0,.907.125.886.886,0,0,0,.745-.462c.893-1.973-5.225-2.642-6.2-2.759a4.494,4.494,0,0,0-1.427-.021A2.31,2.31,0,0,0,208.451,152.243Z" transform="translate(-184.937 -152.116)" fill="#070630"/>
        </g>
      </g>
      <g id="Group_150" data-name="Group 150" transform="translate(3.122 7.293)">
        <g id="Group_149" data-name="Group 149">
          <path id="Path_231" data-name="Path 231" d="M194.724,157.7a2.329,2.329,0,0,1,3.493,1.1,4.919,4.919,0,0,1-.21,3.97,2.234,2.234,0,0,1-2.693,1.408,2.522,2.522,0,0,1-1.644-2.1,5.394,5.394,0,0,1-.092-1.039C193.585,159.844,193.525,158.437,194.724,157.7Z" transform="translate(-193.579 -157.295)" fill="#070630"/>
          <path id="Path_232" data-name="Path 232" d="M212.8,158.8a4.914,4.914,0,0,1-.21,3.97,2.235,2.235,0,0,1-2.693,1.407,2.522,2.522,0,0,1-1.643-2.1,5.4,5.4,0,0,1-.092-1.039c.006-1.2-.053-2.608,1.145-3.348A2.328,2.328,0,0,1,212.8,158.8Z" transform="translate(-187.624 -157.295)" fill="#070630"/>
        </g>
      </g>
      <path id="Path_233" data-name="Path 233" d="M200.65,169.564c-.153.044-.307.085-.459.127a4.161,4.161,0,0,0,3.921.646,2.031,2.031,0,0,0,1.311-2.667q-1.067-2.638-2.135-5.277a22.227,22.227,0,0,0,.31,2.962,4.644,4.644,0,0,1,.1,1.828,2.838,2.838,0,0,1-1.383,1.724A6.941,6.941,0,0,1,200.65,169.564Z" transform="translate(-187.757 -147.921)" fill="#f9926e"/>
      <g id="Group_152" data-name="Group 152" transform="translate(8.027 27.976)">
        <g id="Group_151" data-name="Group 151">
          <path id="Path_234" data-name="Path 234" d="M203.258,177.4a6.31,6.31,0,0,1-1.932-.3,7.3,7.3,0,0,1-4.229-4.383.549.549,0,1,1,1.027-.387,6.19,6.19,0,0,0,3.539,3.725,5.913,5.913,0,0,0,6.832-2.831.548.548,0,1,1,.976.5A7.087,7.087,0,0,1,203.258,177.4Z" transform="translate(-197.062 -171.982)" fill="#ea734e"/>
        </g>
      </g>
    </g>
    <g id="Group_157" data-name="Group 157" transform="translate(250.413 214.439)">
      <g id="Group_156" data-name="Group 156" transform="translate(0 0)">
        <g id="Group_154" data-name="Group 154">
          <ellipse id="Ellipse_10" data-name="Ellipse 10" cx="2.997" cy="5.203" rx="2.997" ry="5.203" transform="translate(0 5.992) rotate(-88.822)" fill="#ff8a8a"/>
        </g>
        <g id="Group_155" data-name="Group 155" transform="translate(27.406 0.104)">
          <path id="Path_235" data-name="Path 235" d="M207.944,165.905c-.035,1.655,2.267,3.043,5.14,3.1s5.229-1.234,5.263-2.888-2.267-3.045-5.14-3.1S207.978,164.251,207.944,165.905Z" transform="translate(-207.944 -163.014)" fill="#ff8a8a"/>
        </g>
      </g>
    </g>
    <path id="Path_236" data-name="Path 236" d="M207.094,215.479q1.344,1.732,2.714,3.445c1.846-5.335,3.871-10.606,5.974-15.843.93-2.318,1.941-4.611,2.831-6.944a19.686,19.686,0,0,1,2.779-5.659.214.214,0,0,1,.09-.076.221.221,0,0,1,.162.037,3.475,3.475,0,0,0,2.049.19,22.9,22.9,0,0,1,2.665.176c2.127.139,6.72-.5,7.878,1.424,1.067,1.781.6,4.553.948,6.539,1.2,6.918-.728,14.9-1.014,21.864-.342,8.347-.266,16.7-.28,25.057-.028,16.553-.294,33.316-4.564,49.419-.408,1.539-.944,3.2-2.272,4.076a6.847,6.847,0,0,1-3.776.766l-38.421.327q-3.538-28.142-4.714-56.513c-.684-16.539,2.445-35.729-1.984-51.724.075.241,12.024-1.383,12.493-1.515-.314.089,3.091,5.794,3.45,6.261,1.249,1.627,1.925,3.4,3.069,5.09C200.322,206.517,203.657,211.045,207.094,215.479Z" transform="translate(57.714 62.71)" fill="#fc748c"/>
    <path id="Path_237" data-name="Path 237" d="M187.113,195.36c-.314.089,3.091,5.794,3.45,6.261,1.249,1.627,1.925,3.4,3.069,5.09,3.152,4.643,6.487,9.169,9.924,13.606q1.344,1.732,2.714,3.445c1.846-5.335,3.871-10.606,5.973-15.843.931-2.318,1.942-4.611,2.832-6.944a20.006,20.006,0,0,1,2.726-5.583c-.028-.014-.059-.025-.087-.041-3.333-1.728-2.736-4.291-3-7.512q-.133-1.658-.261-3.317a16.206,16.206,0,0,1-4.34,2.662c-6.078,2.339-12.8-2.428-17.06-6.391q-1.164-1.084-2.259-2.245c.034,2.862.215,5.754.244,8.558.038,3.164-.4,6-3.348,7.878a5.266,5.266,0,0,1-.87.428C186.97,195.389,187.079,195.37,187.113,195.36Z" transform="translate(61.252 57.873)" fill="#f9926e"/>
    <path id="Path_238" data-name="Path 238" d="M219.486,275.99l-.1-.094c-2.677-2.476-5.25-5.169-8.493-6.837-5.149-2.649-8.889.084-13.956.092-5.226.007-10.731.263-15.574,2.435-3.953,1.772-9.543,4.186-11.1,8.579-1.07,3.031-.815,6.37-.22,9.53,3.074,16.324,13.818,26.489,27.5,34.489,22.26,13.018,46.207,24.776,72.273,27.01a9.281,9.281,0,0,0,4.773-.465c10.519-4.959,6.923-22.575,2.1-29.942-4.559-6.958-11.244-10.972-17.874-15.694l-22.513-16.035A169.04,169.04,0,0,1,219.486,275.99Z" transform="translate(54.19 94.357)" fill="#a5bcf6"/>
    <path id="Path_239" data-name="Path 239" d="M269.944,451.166a5.241,5.241,0,0,1-1.529.808c-1.984.8-5.029.437-7.151.563-2.007.121-7.923,1.389-9.678.1a4.672,4.672,0,0,1-1.4-2.342l-2.928-8.275c-7-19.8-14.052-39.775-16.849-60.591-2.048-15.239-1.432-30.828-4.087-45.984-.989-5.646-3.025-9.943-2.46-15.987.483-5.178,2.208-10.682,6.635-13.824,4.284-3.041,10.245-3.035,15.027-.859,1.842.837,3.438,2,5.306,2.712,1.629.621,2.262.169,3.686,1.577,2.667,2.638,4.052,8.081,5,11.588,4.694,17.338,3.831,36.869,4.994,54.787,1.559,24,1.824,48.57,5.353,72.331C270.166,449.825,270.611,450.552,269.944,451.166Z" transform="translate(76.335 108.785)" fill="#a5bcf6"/>
    <path id="Path_240" data-name="Path 240" d="M203.894,230.032c1.583,53.382,2.8,106.757,2.962,160.162a2.449,2.449,0,0,1-3.229,2.917,393.368,393.368,0,0,1-45.554-5.6c-1.552-.283,4.222-36.119,4.835-39.448,2.131-11.588,3.8-22.308,4.847-33.877,2.562-28.351,11.083-54.516,8.754-83.507-.824-10.24-1-20.258-1.62-30.462a19.615,19.615,0,0,1-.025-3.111,2.3,2.3,0,0,1,.351-1.153,2.506,2.506,0,0,1,.845-.659c2.846-1.608,6.474-2.383,9.6-3.2a50.028,50.028,0,0,1,12.235-1.306c.58,0,3.567,19.26,3.908,21.1.625,3.371,1.76,7.012,1.863,10.44Q203.781,226.179,203.894,230.032Z" transform="translate(49.404 62.871)" fill="#fff"/>
    <path id="Path_241" data-name="Path 241" d="M229.068,205.818c-1.075-3.041-2.2-6.06-3.359-9.067a13.126,13.126,0,0,0-2.515-4.571c-2.212-2.284-6.318-1.479-9.24-1.614-1.513-.07-3.172.239-4.552-.438.725,1.872,1.8,3.617,2.467,5.533,2.856,8.164,2.774,17.431,3,25.975.427,15.862-.984,31.8-.414,47.625.359,9.969,3.771,20.633,7.147,29.965,2.2,6.07,4.176,13.232,7.879,18.556,3.215,4.623,5.514,10.13,9.427,14.27,2.836,3,6.388,5.208,9.737,7.625a58.309,58.309,0,0,1,15.553,15.9c3.964,6.32,6.282,13.818,5.678,21.254,4.307-2.459,5.942-7.848,6.4-12.787,1.159-12.571-3.2-21.8-9.706-31.949-7.494-11.676-18.233-21.747-22.662-34.992-5.28-15.791-5.933-32.63-6.756-49.116-.427-8.547-.769-16.752-2.853-25.079C232.853,217.124,231.053,211.438,229.068,205.818Z" transform="translate(70.471 62.601)" fill="#fff"/>
    <path id="Path_242" data-name="Path 242" d="M244.261,421.6q-.061-2.427.01-4.856a14.352,14.352,0,0,0,5.266,3.312,56.179,56.179,0,0,0,7.746,1.838,41.059,41.059,0,0,0,12.669.141c1.121-.2,2.7-.042,3.348-1.165.576-.994-.107-3.77.7-4.374.787-.591,5.45,1.422,6.457,1.713q6.823,1.973,13.648,3.945a30.444,30.444,0,0,1,3.929,1.335c1.5.668,3.971,1.748,3.514,3.7a5.455,5.455,0,0,1-4.312,3.8c-12.792,1.015-25.621.5-38.43-.025a70.539,70.539,0,0,1-7.158-.244c-1.88-.269-4.642-.462-6.005-1.942a6.412,6.412,0,0,1-1.239-4.06Q244.3,423.157,244.261,421.6Z" transform="translate(84.692 154.983)" fill="#fff"/>
    <path id="Path_243" data-name="Path 243" d="M249.776,423.642a56.179,56.179,0,0,0,7.746,1.838,41.059,41.059,0,0,0,12.669.141c1.121-.2,2.7-.042,3.348-1.165.518-.894.027-3.214.5-4.115-1.159-.394-2.328-.762-3.505-1.09-3.557-.991-6.387-2.934-7.661-6.588a22.726,22.726,0,0,1-.714-5.071,1.078,1.078,0,0,1-.337.966,5.241,5.241,0,0,1-1.529.808c-1.984.8-5.029.437-7.151.565-1.946.117-7.558,1.3-9.5.2a24.062,24.062,0,0,1,.645,4.4c.158,1.977.2,3.969.4,5.943A13.789,13.789,0,0,0,249.776,423.642Z" transform="translate(84.454 151.393)" fill="#ffac88"/>
    <path id="Path_244" data-name="Path 244" d="M264.39,275.694a37.188,37.188,0,0,1-9.127,4.84,12.922,12.922,0,0,1-5.771.938c-2.528-.292-4.757-1.756-6.77-3.314a11.511,11.511,0,0,1-3.329-3.535c-2.494-4.735,1.289-9.658,3.483-13.651,1.551-2.821,2.928-6.033,5.042-8.434,2.773-3.149,5.619-6.228,8.344-9.422,5.449-6.387,10.689-12.945,15.929-19.5q4.607-5.767,9.216-11.533l14.184,13.141a2.637,2.637,0,0,1,.765,3.908,230.09,230.09,0,0,1-14.187,24.7C277.127,261.475,271.863,270.3,264.39,275.694Z" transform="translate(82.381 71.566)" fill="#fff"/>
    <path id="Path_245" data-name="Path 245" d="M201.881,242.187a2.4,2.4,0,0,0-.715.014c-1.677.307-3.019,2.349-4.628,1.782-2.39-3.74-3.245-8.22-4.255-12.542A145.127,145.127,0,0,0,182.1,202.311c2.994,8.051,6.923,19.336,5.525,28.022-1.153,7.16-4.959,13.575-8.689,19.794q-3.213,5.357-6.429,10.714c-2.211,16.134-5.752,32.011-7.254,48.636-.363,4.019-.827,7.926-1.334,11.811,4.732-4.7,8.234-10.755,12.4-16.072,8.233-10.5,17.929-19.722,26.417-30.019Q202.343,258.691,201.881,242.187Z" transform="translate(51.901 67.575)" fill="#e8e8e8"/>
    <path id="Path_246" data-name="Path 246" d="M211.721,236.644a.311.311,0,0,1-.141-.083c-.08-.1.013-.246.094-.348a2.452,2.452,0,0,0-1.065-3.832,4,4,0,0,0,.875-.622c-.714-.092-1.425-.2-2.125-.33a35.683,35.683,0,0,1-5.274-.151c-.491.341-.987.677-1.5.994-.418.261-.807.568-1.225.829-.182.114-.848.352-.915.5.307-.66-.339-1.443-1.059-1.562a3.6,3.6,0,0,0-2.083.524,36.139,36.139,0,0,0-5.782,3.266,17.054,17.054,0,0,0-1.615,1.28,4.381,4.381,0,0,0-.751.9c-.472.79-.666,1.756-1.182,2.552a11.012,11.012,0,0,1-2.414,2.645c-1.869,1.473-5.443,1.5-4.75,4.57.829,3.67,1.446,7.537,3.164,10.927a.878.878,0,0,0,.344.421.911.911,0,0,0,.827-.173,98.77,98.77,0,0,1,14.513-6.522c1.734-.673,3.279-1.608,5.022-2.277a13.853,13.853,0,0,0,5.609-3.907,2.911,2.911,0,0,0,.69-1.17,1.154,1.154,0,0,0-.4-1.224,5.531,5.531,0,0,0,2.852-3.363C213.753,239.148,213.122,237.173,211.721,236.644Z" transform="translate(58.762 79.403)" fill="#ffac88"/>
    <path id="Path_247" data-name="Path 247" d="M141.885,306.174a7.785,7.785,0,0,0,6.4,1.939c3.064-.358,5.677-2.338,7.96-4.414,13.087-11.9,20.436-28.666,30.58-43.153a91.528,91.528,0,0,0,6.885-11.99c2.984-6.085,5.2-12.407,4.129-19.187a35.449,35.449,0,0,0-1.2-4.791,44.625,44.625,0,0,1-1.689-6.491c-.449-3.091-.356-6.019-1.273-9.127a26.814,26.814,0,0,0-3.364-7.433c-1.229-1.822-2.228-4.973-4-6.309-2.228-1.677-3.719.2-5.34,2.007-5.056,5.623-8.839,12.251-12.582,18.822L157.6,234.993c-1.876,3.294-3.18,6.787-4.838,10.181-6.568,13.452-11.988,27.544-15.062,42.225-1.079,5.152-.829,14,3.345,17.905,4.923,4.605,14.493-2.411,16.9-7.06" transform="translate(40.972 64.413)" fill="#fff"/>
    <path id="Path_248" data-name="Path 248" d="M159.937,290.975a37.175,37.175,0,0,1-10.279,1.034,12.929,12.929,0,0,1-5.7-1.311c-3.8-2.087-6.1-5.966-4.818-10.036a25.954,25.954,0,0,1,6.016-10.074c5.412-5.711,12.663-9.282,19.56-12.847,7.457-3.855,14.787-7.947,22.116-12.038l12.889-7.2q4.086,8.763,8.17,17.525a2.639,2.639,0,0,1-.769,3.908,230.035,230.035,0,0,1-22.468,17.511C177.1,282.621,168.892,288.808,159.937,290.975Z" transform="translate(41.637 82.355)" fill="#fff"/>
    <g id="Group_158" data-name="Group 158" transform="translate(190.402 253.622)">
      <path id="Path_249" data-name="Path 249" d="M145.871,266.774c7.312-5.882,14.3-11.7,23.071-15.228,8.616-3.462,18.3-8.8,27.085-12.1" transform="translate(-145.871 -170.883)" fill="none" stroke="#ddd" stroke-linecap="round" stroke-linejoin="round" stroke-width="1.038"/>
      <path id="Path_250" data-name="Path 250" d="M157.807,288.752c15.632-7.874,31.253-18.152,43.038-31.094-3.173-6.157-6.24-12.154-9.344-18.345" transform="translate(-140.997 -170.938)" fill="none" stroke="#ddd" stroke-linecap="round" stroke-linejoin="round" stroke-width="1.038"/>
      <path id="Path_251" data-name="Path 251" d="M168.783,262.427c5.668-4.761,8.134-10.588,11.33-16.976,3.511-7.019,5.539-13.231,4.939-21.258-.568-7.6-2.905-14.939-5.228-22.2" transform="translate(-136.516 -186.175)" fill="none" stroke="#ddd" stroke-linecap="round" stroke-linejoin="round" stroke-width="1.038"/>
      <path id="Path_252" data-name="Path 252" d="M191.473,247.459c.432,12.641.853,25.317.656,37.967" transform="translate(-127.251 -167.612)" fill="none" stroke="#ddd" stroke-linecap="round" stroke-linejoin="round" stroke-width="1.038"/>
      <path id="Path_253" data-name="Path 253" d="M186.532,190.762c5.381,18.49,5.108,39.528,6.064,58.6" transform="translate(-129.269 -190.762)" fill="none" stroke="#ddd" stroke-linecap="round" stroke-linejoin="round" stroke-width="1.038"/>
    </g>
    <path id="Path_254" data-name="Path 254" d="M182.271,161.854a.963.963,0,0,0-.352.706,5.269,5.269,0,0,0-.011,2.339,2.07,2.07,0,0,0,1.605,1.543" transform="translate(59.192 51.057)" fill="none" stroke="#ed825d" stroke-linecap="round" stroke-linejoin="round" stroke-width="0.519"/>
    <path id="Path_255" data-name="Path 255" d="M182.035,164a3.806,3.806,0,0,1,1.148-.57,1.291,1.291,0,0,1,1.2.262" transform="translate(59.297 51.682)" fill="none" stroke="#ed825d" stroke-linecap="round" stroke-linejoin="round" stroke-width="0.519"/>
    <path id="Path_256" data-name="Path 256" d="M157.11,244.737c-4.757-2.853-7.078-8.722-7-14.269.039-2.646.541-5.337-.072-7.913-.725-3.056-2.922-5.542-4.119-8.447a15.939,15.939,0,0,1,.986-13.4,22.724,22.724,0,0,1,10.017-9.291c2.732-1.362,5.792-2.37,7.785-4.683,3.069-3.562,2.57-8.874,3.949-13.37a16.046,16.046,0,0,1,5.1-7.627c2.3-1.894,5.078-3.1,7.565-4.745a25.631,25.631,0,0,0,8.392-9.177" transform="translate(44.125 46.96)" fill="none" stroke="#0c064e" stroke-miterlimit="10" stroke-width="0.519"/>
    <path id="Path_257" data-name="Path 257" d="M196.893,134.818a10.462,10.462,0,0,1,3.812-1.429c5.287-1.053,11.476-.4,15.642,3.21a32.591,32.591,0,0,1,9.322,13,23.949,23.949,0,0,1-.417,18.421" transform="translate(65.363 39.247)" fill="none" stroke="#0c064e" stroke-miterlimit="10" stroke-width="0.519"/>
    <path id="Path_258" data-name="Path 258" d="M216.875,158.07c.394,12.483,8.429,24.209,6.83,36.595-.484,3.763-2.5,7.953-6.242,8.572" transform="translate(73.522 49.512)" fill="none" stroke="#0c064e" stroke-miterlimit="10" stroke-width="0.519"/>
    <g id="Group_159" data-name="Group 159" transform="translate(197.142 175.541)">
      <path id="Path_259" data-name="Path 259" d="M156.848,237.288c-2.117-2.324-1.908-5.926-1.105-8.965s2.081-6.09,1.676-9.208c-.782-6.008-7.592-10.551-6.677-16.541.452-2.956,2.772-5.3,5.306-6.884s5.383-2.636,7.87-4.3a19.121,19.121,0,0,0,7.839-11.1c.662-2.626.77-5.422,1.922-7.874,1.624-3.453,5.016-5.646,8-8.02s5.9-5.546,5.846-9.361" transform="translate(-150.657 -127.269)" fill="none" stroke="#070630" stroke-linecap="round" stroke-linejoin="round" stroke-width="0.519"/>
      <path id="Path_260" data-name="Path 260" d="M197.944,136.681a18.486,18.486,0,0,0,8.3,20.685" transform="translate(-131.611 -134.763)" fill="none" stroke="#070630" stroke-linecap="round" stroke-linejoin="round" stroke-width="0.519"/>
      <path id="Path_261" data-name="Path 261" d="M201.82,135.327a12.336,12.336,0,0,1,7.733,2.607,22.8,22.8,0,0,1,5.468,6.208,39.984,39.984,0,0,1,6.09,18.461" transform="translate(-129.767 -135.319)" fill="none" stroke="#070630" stroke-linecap="round" stroke-linejoin="round" stroke-width="0.519"/>
      <path id="Path_262" data-name="Path 262" d="M181.169,164.639a15.266,15.266,0,0,1-1.311,10.058c-1.973,3.87-5.492,6.7-8.04,10.214a24.031,24.031,0,0,0-3.693,20.03" transform="translate(-143.845 -123.347)" fill="none" stroke="#070630" stroke-linecap="round" stroke-linejoin="round" stroke-width="0.519"/>
      <path id="Path_263" data-name="Path 263" d="M216.3,173.244a50.149,50.149,0,0,1,3.033,11.276,16.884,16.884,0,0,1-2.318,11.228" transform="translate(-123.853 -119.834)" fill="none" stroke="#070630" stroke-linecap="round" stroke-linejoin="round" stroke-width="0.519"/>
    </g>
    <g id="Group_160" data-name="Group 160" transform="translate(244.745 384.559)">
      <path id="Path_264" data-name="Path 264" d="M192.635,283.737c11.914,10.544,23.848,19.74,37.816,27.358,6.546,3.57,13.583,7.057,17.718,13.263,3.917,5.88,4.59,13.261,5.309,20.291,4.05,39.585,11.642,76.577,20.723,115.318" transform="translate(-181.121 -283.737)" fill="none" stroke="#8babea" stroke-linecap="round" stroke-miterlimit="10" stroke-width="1.038"/>
      <path id="Path_265" data-name="Path 265" d="M184.459,404.379l57.49-78.362" transform="translate(-184.459 -266.474)" fill="none" stroke="#a5bcf6" stroke-linecap="round" stroke-miterlimit="10" stroke-width="1.038"/>
      <path id="Path_266" data-name="Path 266" d="M225.057,324.279a30.329,30.329,0,0,0,7.691-.183" transform="translate(-167.883 -267.258)" fill="none" stroke="#8babea" stroke-linecap="round" stroke-miterlimit="10" stroke-width="1.038"/>
    </g>
    <g id="Group_168" data-name="Group 168" transform="translate(93.404 245.023)">
      <g id="Group_166" data-name="Group 166" transform="translate(0 126.541)">
        <g id="Group_165" data-name="Group 165">
          <g id="Group_162" data-name="Group 162" transform="translate(0 5.207)">
            <g id="Group_161" data-name="Group 161">
              <rect id="Rectangle_35" data-name="Rectangle 35" width="192.308" height="3.358" transform="translate(0 184.288) rotate(-73.376)" fill="#91aef2"/>
              <path id="Path_267" data-name="Path 267" d="M253.936,278.558l-.1-.351-3.218.961,54.792,183.955.1.351,3.218-.961Z" transform="translate(-6.106 -278.207)" fill="#91aef2"/>
            </g>
          </g>
          <g id="Group_164" data-name="Group 164" transform="translate(10.006)">
            <g id="Group_163" data-name="Group 163">
              <rect id="Rectangle_36" data-name="Rectangle 36" width="282.671" height="11.924" fill="#0c064e"/>
            </g>
          </g>
        </g>
      </g>
      <g id="Group_167" data-name="Group 167" transform="translate(12.302)">
        <path id="Path_268" data-name="Path 268" d="M160.061,225.125a5.659,5.659,0,0,0-7.578,1.579,12.822,12.822,0,0,0-.648,1.121,5.233,5.233,0,0,1-1.282,1.791,4.75,4.75,0,0,1-2.635.684c-.4.028-.793.056-1.179.117a3.98,3.98,0,0,0-2.417,1.352c-.224-.725-.486-1.438-.751-2.138a25.87,25.87,0,0,1-.963-2.862,20.675,20.675,0,0,1,.066-8.467.375.375,0,0,0,.049-.276c.131-.755.272-1.507.414-2.253.283-1.477.576-3,.762-4.505.7-5.684-1.1-12.2-5.913-13.663-2.69-.818-5.956.19-8.739,2.688a17.173,17.173,0,0,0-1.886,2.014c-.028,0-.049-.024-.08-.018a.408.408,0,0,0-.339.466l.013.076a18.87,18.87,0,0,0-3.519,8.422c-.034.237-.046.476-.073.713a9.09,9.09,0,0,0-3.629-4.792,4.152,4.152,0,0,1-1.835-2.166,6.55,6.55,0,0,1-.184-1.845,6.706,6.706,0,0,0-.289-2.276c-.551-1.514-1.883-2.331-3.17-3.119a6.7,6.7,0,0,1-2.765-2.463,7.223,7.223,0,0,1-.542-2.441l-.039-.349a11.447,11.447,0,0,0-1.773-5.447,5.118,5.118,0,0,0-5.005-2.331c-.079.017-.153.051-.231.072-.034,0-.062-.025-.1-.017-.054.011-.082.058-.124.086a5.589,5.589,0,0,0-3.384,4.457,11.34,11.34,0,0,0,.956,6.08l.162.4a6.646,6.646,0,0,1,.742,3.4,6.229,6.229,0,0,1-1.011,2.231,10.081,10.081,0,0,0-.9,1.694c-.818,2.145.155,4.539,1.1,6.385a10.868,10.868,0,0,0,1.366,1.924c.868,1.053,1.687,2.049,1.68,3.41a6.131,6.131,0,0,1-.62,2.263,13.579,13.579,0,0,0-.476,1.275,6.887,6.887,0,0,0,1.07,5.87l-.031-.011c-.37-.142-.741-.283-1.1-.432-2.548-1.055-3.491-3.156-4.49-5.384a14.289,14.289,0,0,0-2.95-4.739,6.015,6.015,0,0,0-6.964-1.184,5.775,5.775,0,0,0-3.022,6.16,12.579,12.579,0,0,0,1.931,4.538c.358.606.728,1.231,1.038,1.858a13.359,13.359,0,0,1,1.366,5.835c0,.831-.075,1.689-.149,2.517a16.414,16.414,0,0,0,0,4.412c.645,3.573,3.376,6.1,6.018,8.539,2.242,2.072,4.56,4.214,5.574,6.974a18.255,18.255,0,0,1,.787,5.873,31.838,31.838,0,0,0,.262,3.842,15.842,15.842,0,0,0,5.285,9.523c2.626,2.248,5.846,3.522,8.958,4.756a.432.432,0,0,0,.151.028.408.408,0,0,0,.149-.787c-3.05-1.208-6.205-2.457-8.727-4.618a14.984,14.984,0,0,1-4.233-6.106,95.2,95.2,0,0,0,10.378,1.624h.039a.373.373,0,0,0,.162-.062,25.779,25.779,0,0,0,6.827,5.833.408.408,0,0,0,.451-.68c-2.629-1.751-5.612-3.735-7.336-6.729-1.6-2.766-1.843-6.978.5-9.241a7.412,7.412,0,0,1,1.117-.859c.006.01,0,.021.006.031a37.481,37.481,0,0,0,9.088,10.424c.01.008.023,0,.032.011q-.114,3.154-.215,6.285a.411.411,0,0,0,.4.421h.013a.41.41,0,0,0,.408-.4c.2-6.128.411-12.334.763-18.56a.348.348,0,0,0,.092.03.408.408,0,0,0,.128-.021c1.442-.477,2.933-.969,4.357-1.591a24.945,24.945,0,0,0,5.306-3.184,8.572,8.572,0,0,0-.556,4.211,14.215,14.215,0,0,0,1.173,3.677c.231.546.462,1.093.659,1.651,2.422,6.856-.751,13.662-9.434,20.225a.407.407,0,1,0,.49.651c9-6.8,12.269-13.918,9.714-21.147-.042-.118-.1-.234-.141-.352a102.9,102.9,0,0,1,21.378-31.542.381.381,0,0,0,.094-.349,5.625,5.625,0,0,1,1.21,6.4,10.614,10.614,0,0,1-2.014,2.534,11.166,11.166,0,0,0-2.2,2.825,11.8,11.8,0,0,0-.808,4.971,11.832,11.832,0,0,1-.637,4.446,11.615,11.615,0,0,1-3.676,4.084c-1.824,1.486-3.709,3.024-4.109,5.47a10.154,10.154,0,0,0,.01,2.557c.038.424.076.848.084,1.27.085,4.053-3.026,7.981-6.792,8.578a.407.407,0,0,0,.063.81.344.344,0,0,0,.065-.006c4.216-.666,7.572-4.884,7.481-9.4-.011-.441-.049-.883-.087-1.325a9.364,9.364,0,0,1-.018-2.355c.349-2.141,2.035-3.514,3.819-4.969a12.249,12.249,0,0,0,3.912-4.4,12.575,12.575,0,0,0,.7-4.75,11.08,11.08,0,0,1,.728-4.632,10.324,10.324,0,0,1,2.051-2.611,11.372,11.372,0,0,0,2.156-2.734A6.345,6.345,0,0,0,160.061,225.125Zm-6.9,2.036a4.669,4.669,0,0,1,2.17-1.708,20.344,20.344,0,0,0,1.049,3.426.411.411,0,0,0,.135.165c-.894.973-1.762,1.972-2.617,2.98a27.65,27.65,0,0,1-1.408-3.7c.021-.041.045-.082.066-.121A10.933,10.933,0,0,1,153.161,227.161Zm-2.112,3.1a4,4,0,0,0,.893-.99,24.705,24.705,0,0,0,1.315,3.305.382.382,0,0,0,.083.089q-1.821,2.184-3.518,4.48a51.223,51.223,0,0,1-1.456-6.067A4.852,4.852,0,0,0,151.048,230.265Zm-4.185.958c.224-.034.455-.048.684-.068A52.25,52.25,0,0,0,149.213,238c-.591.818-1.189,1.631-1.759,2.469-.369-1.18-.731-2.419-1.082-3.646-.43-1.5-.872-3.059-1.335-4.464-.013-.041-.053-.055-.076-.087A3.172,3.172,0,0,1,146.863,231.223Zm-4.328,17.249c-.617-1.415-1.177-2.866-1.648-4.326-.02-.062-.073-.092-.114-.135.638-.884,1.277-1.783,1.86-2.7.544,1.263,1.079,2.546,1.579,3.845a.405.405,0,0,0,.144.183C143.736,246.368,143.127,247.41,142.535,248.472Zm-2.346,4.443c-.721-1.638-1.386-3.311-1.98-5a30.255,30.255,0,0,1,2.029-3.155,47.636,47.636,0,0,0,1.749,4.525.455.455,0,0,0,.063.073Q141.1,251.106,140.189,252.915Zm2.972-12.475a10.893,10.893,0,0,0,1.7-5.735c0-.075-.018-.148-.023-.223.253.849.5,1.711.746,2.566.414,1.449.842,2.942,1.287,4.307-.693,1.044-1.379,2.091-2.039,3.169C144.3,243.147,143.742,241.773,143.16,240.44Zm-.07-29.272c-.182,1.475-.472,2.988-.751,4.452-.148.773-.294,1.553-.43,2.335a34.751,34.751,0,0,1-11.873,7.4c.1-.525.175-1.053.277-1.577.383-1.946.817-3.888,1.267-5.826l0-.014c1.556-6.68,3.452-13.293,5.312-19.735a5.587,5.587,0,0,1,.855.18C142.128,199.716,143.75,205.823,143.09,211.169Zm-13.3-10.267a9.663,9.663,0,0,1,6.267-2.748c-1.773,6.147-3.586,12.447-5.1,18.821a10.293,10.293,0,0,1-1.193-3.394c-.741-3.463-1.394-7.011-1.953-10.548A16.506,16.506,0,0,1,129.794,200.9Zm-5.549,10.471a18.018,18.018,0,0,1,2.905-7.4c.532,3.283,1.135,6.568,1.825,9.784a9.247,9.247,0,0,0,1.756,4.266c-.431,1.865-.849,3.731-1.217,5.605-1.169,5.947-1.977,11.968-2.563,18.007-4.135-3.474-6.346-8.734-8.268-13.458a23.525,23.525,0,0,1,1.853-2.746,13.837,13.837,0,0,0,3.029-5.9.38.38,0,0,0,.207-.286,23.315,23.315,0,0,0,.173-4.038A36.882,36.882,0,0,1,124.245,211.373ZM108.47,187.539a10.676,10.676,0,0,1,1.631,5.067l.037.345a7.888,7.888,0,0,0,.624,2.717,7.4,7.4,0,0,0,3.069,2.794c1.222.751,2.376,1.458,2.829,2.7a5.9,5.9,0,0,1,.239,2,7.2,7.2,0,0,0,.223,2.077,4.926,4.926,0,0,0,2.155,2.6c2.424,1.652,3.666,4.036,3.847,7.51a36.3,36.3,0,0,1-.294,3.707c-.366,2.449-1.618,4.111-2.945,5.871a24.3,24.3,0,0,0-1.914,2.85.365.365,0,0,0-.141.275l-.024.045a232.656,232.656,0,0,1-13.421-42.579A4.378,4.378,0,0,1,108.47,187.539Zm-4.4,31.091a12.581,12.581,0,0,1,.446-1.2,6.894,6.894,0,0,0,.683-2.572,6.1,6.1,0,0,0-1.867-3.932,10.169,10.169,0,0,1-1.269-1.777c-.863-1.694-1.763-3.877-1.06-5.722a9.5,9.5,0,0,1,.834-1.558,6.859,6.859,0,0,0,1.124-2.534,7.251,7.251,0,0,0-.791-3.831l-.159-.4a10.6,10.6,0,0,1-.911-5.649,4.918,4.918,0,0,1,2.505-3.684,233.273,233.273,0,0,0,13.53,42.836.4.4,0,0,0,.3.223,10.128,10.128,0,0,0-.525,1.559,20.175,20.175,0,0,0,.6,10.41,5.681,5.681,0,0,0-1.455-.991,9.909,9.909,0,0,0-1.287-.448,6.684,6.684,0,0,1-1.534-.591c-1.336-.789-2.156-2.531-2.508-5.325l-.086-.717c-.241-2.011-.487-4.093-1.724-5.681a6,6,0,0,0-1.28-1.182.405.405,0,0,0-.231-.218,3.965,3.965,0,0,1-.41-.2c-.184-.107-.373-.206-.563-.3A6.107,6.107,0,0,1,104.071,218.63Zm-15.707-4.839a90.853,90.853,0,0,1,6.96,8.9c-2.779-1.108-5.581-2.177-8.355-3.17-.045-.014-.087.007-.132.008a6.27,6.27,0,0,1-.228-.97A5.054,5.054,0,0,1,88.365,213.791Zm.069,9.006a22.157,22.157,0,0,1-1.241-2.321c2.979,1.072,5.99,2.218,8.961,3.419,1.229,1.817,2.421,3.681,3.576,5.577a95.86,95.86,0,0,0-9.564-3.148,14.16,14.16,0,0,0-.666-1.615C89.177,224.055,88.8,223.415,88.434,222.8Zm2.355,14.891A15.714,15.714,0,0,1,90.8,233.5l0-.028c2.156.721,4.415,1.487,6.684,2.259,2.438.829,4.877,1.659,7.178,2.425a.256.256,0,0,0,.044.007c.946,1.748,1.865,3.491,2.75,5.215l-16.3-4.359A8.335,8.335,0,0,1,90.788,237.689Zm6.956-2.734c-2.334-.794-4.661-1.584-6.875-2.324.046-.573.085-1.152.083-1.729a14.087,14.087,0,0,0-.51-3.639,94.793,94.793,0,0,1,9.716,3.243.409.409,0,0,0,.365.382h.035c.007,0,.013-.006.02-.006,1.228,2.062,2.418,4.146,3.562,6.235C102.067,236.423,99.913,235.692,97.744,234.955Zm-6.19,5.012,16.132,4.314a.4.4,0,0,0,.106.014.368.368,0,0,0,.113-.038q1.413,2.774,2.721,5.443a39.519,39.519,0,0,0-6.637-1.58,38.756,38.756,0,0,1-6.573-1.551q-.429-.4-.856-.8C94.554,243.922,92.633,242.144,91.554,239.967Zm7.177,7.882a50.631,50.631,0,0,0,5.118,1.075,35.713,35.713,0,0,1,7.053,1.731.426.426,0,0,0,.149.028c.017,0,.031-.013.049-.014q1.215,2.488,2.336,4.819c-1.672-.273-3.348-.573-4.977-.875-1.949-.358-3.966-.729-5.97-1.036-.052-.17-.085-.345-.146-.514A14.862,14.862,0,0,0,98.731,247.85Zm15.293,18.4c.073.127.161.241.238.365a95.121,95.121,0,0,1-9.95-1.57.366.366,0,0,0-.345.108,14.342,14.342,0,0,1-.531-2.217,26.416,26.416,0,0,1-.232-3.142c3.3.62,6.411,1.16,9.493,1.651A10.413,10.413,0,0,0,114.024,266.252Zm-1.313-5.63c-3.1-.491-6.222-1.035-9.537-1.66a23.678,23.678,0,0,0-.437-4.516c1.869.294,3.75.635,5.574.973s3.69.675,5.557.968l.058.121a.4.4,0,0,0,.189.182A7.065,7.065,0,0,0,112.711,260.621Zm2.007-4.646a.383.383,0,0,0-.3-.318c-6.233-12.947-14.7-30.4-25.375-42.325.051-.028.094-.063.146-.09a5.216,5.216,0,0,1,6.028,1.045,13.62,13.62,0,0,1,2.769,4.485c1.021,2.274,2.077,4.626,4.925,5.8.366.152.744.3,1.121.441.663.253,1.327.522,1.96.832a5.345,5.345,0,0,0,.541.286,5.746,5.746,0,0,1,1.729,1.424c1.1,1.408,1.331,3.374,1.556,5.274l.087.724c.384,3.059,1.335,5,2.9,5.925a7.329,7.329,0,0,0,1.715.67,9.542,9.542,0,0,1,1.182.408,5.648,5.648,0,0,1,2.457,2.35c.27.777.566,1.569.9,2.387.275.669.58,1.425.824,2.21.07.279.141.558.2.838.006.023.028.031.037.051a5.082,5.082,0,0,1-.232,3.532,6.749,6.749,0,0,1-2.887,2.46A11.985,11.985,0,0,0,114.718,255.975Zm2.343-.613c-.008-.014-.025-.014-.035-.027.134-.079.265-.165.4-.241a7.444,7.444,0,0,0,3.2-2.787,6.51,6.51,0,0,0,.061-5.011,18.039,18.039,0,0,0-1.763-4.708c-1.641-4.735-2.048-8.679-1.225-11.993a9.667,9.667,0,0,1,.5-1.469c1.89,4.618,4.287,10.072,8.657,13.506l.01,0c-.7,7.527-1.066,15.075-1.342,22.544A36.67,36.67,0,0,1,117.062,255.363Zm14.03-3.733c-1.358.6-2.8,1.073-4.2,1.535a227.892,227.892,0,0,1,2.979-26.872,35.623,35.623,0,0,0,11.833-7.042,19.7,19.7,0,0,0,.115,7.716,26.35,26.35,0,0,0,.99,2.955,23.585,23.585,0,0,1,.983,3.024,2.04,2.04,0,0,0,.027.727.387.387,0,0,0,.141.2,7.814,7.814,0,0,1,.087.853c.08,3.248-1.966,6.08-3.945,8.819a40.026,40.026,0,0,0-2.438,3.663c-.049,0-.1-.027-.145-.008a.406.406,0,0,0-.253.518c.011.032.025.065.035.1a.393.393,0,0,0-.246.082A24.157,24.157,0,0,1,131.091,251.629Zm7,5.135a13.574,13.574,0,0,1-1.117-3.464,8.062,8.062,0,0,1,.737-4.376c.611,1.679,1.272,3.343,2,4.961q-.767,1.57-1.5,3.187C138.174,256.971,138.137,256.865,138.093,256.764Zm21.34-30.774c-.8.8-1.57,1.628-2.342,2.452a19.3,19.3,0,0,1-.979-3.222l0,0a4.567,4.567,0,0,1,3.5.59c.032.021.058.051.089.073A.393.393,0,0,0,159.433,225.99Z" transform="translate(-85.731 -184.656)" fill="#a5bcf6" style="mix-blend-mode: multiply;isolation: isolate"/>
        <path id="Path_269" data-name="Path 269" d="M137.48,286.69q1.363-8.913,2.724-17.826a139.681,139.681,0,0,0,2.031-19.147c.018-1.355-.094-2.91-1.169-3.738-1.28-.987-3.426-1-4.969-1.07a254.63,254.63,0,0,0-35.54.977c-2.741.268-3.493,1.446-3.1,4.025.6,3.891.979,7.846,1.566,11.759a163,163,0,0,0,5.8,25.02Z" transform="translate(-80.983 -160.148)" fill="#fff"/>
      </g>
    </g>
    <g id="Group_191" data-name="Group 191" transform="translate(363.248 190.618)">
      <g id="Group_169" data-name="Group 169" transform="translate(49.506 216.8)">
        <path id="Path_270" data-name="Path 270" d="M346.537,311.318a1.729,1.729,0,0,0-2.146,1.16L303.829,448.66a1.725,1.725,0,0,0,3.307.986L347.7,313.463A1.723,1.723,0,0,0,346.537,311.318Z" transform="translate(-303.757 -295.364)" fill="#91aef2"/>
        <path id="Path_271" data-name="Path 271" d="M379.429,312.479a1.712,1.712,0,0,0-.835-1.028,1.686,1.686,0,0,0-1.31-.132,1.723,1.723,0,0,0-1.16,2.145l40.562,136.183a1.725,1.725,0,1,0,3.305-.986Z" transform="translate(-274.239 -295.366)" fill="#91aef2"/>
        <path id="Path_272" data-name="Path 272" d="M362.195,300.042a1.733,1.733,0,0,0-2.145,1.162L319.488,437.386a1.723,1.723,0,0,0,1.16,2.145,1.68,1.68,0,0,0,.493.073,1.733,1.733,0,0,0,1.652-1.234l40.562-136.182A1.725,1.725,0,0,0,362.195,300.042Z" transform="translate(-297.363 -299.967)" fill="#91aef2"/>
        <path id="Path_273" data-name="Path 273" d="M435.65,437.387,395.088,301.205a1.725,1.725,0,0,0-3.307.984l40.562,136.182A1.734,1.734,0,0,0,434,439.605a1.687,1.687,0,0,0,.493-.073A1.723,1.723,0,0,0,435.65,437.387Z" transform="translate(-267.846 -299.969)" fill="#91aef2"/>
      </g>
      <path id="Path_274" data-name="Path 274" d="M311.253,374.515c.437-2.246,2.9-8.023,4.746-13.755l-19.457-3.786c-.13-.024-.261-.055-.39-.089q-2.208,11.424-3.48,23-.209,1.927-.391,3.856a34.189,34.189,0,0,1-11.437,22.767q-4.546,4.111-8.727,8.6a14.655,14.655,0,0,0-2.662,3.552,5.312,5.312,0,0,0-.283,4.314,1.456,1.456,0,0,0,.63.77,1.509,1.509,0,0,0,.759.107c2.55-.141,4.6-2.034,6.546-3.69a78.311,78.311,0,0,1,9.86-6.989c2.956-1.815,6.392-3.057,9.158-5.014a103.82,103.82,0,0,0,9.71-7.687c2.5-2.258,6.711-3.494,8.281-6.64,2.422-4.854-2.405-8.753-3.145-13.3A17.215,17.215,0,0,1,311.253,374.515Z" transform="translate(-268.511 -59.929)" fill="#ffba9c"/>
      <path id="Path_275" data-name="Path 275" d="M362.173,405.555c-1.325-5.039-1.244-10.162-2.084-15.228-.065-.387-.12-.775-.182-1.16-.734.282-1.462.576-2.2.842-5.422,1.96-10.781,3.569-16.284,5.077l1.9,6.874c.534,1.931,1.069,3.874,1.441,5.84a27.192,27.192,0,0,1,.469,3.907,16.409,16.409,0,0,1-2.208,9.337c-1.68,2.538-5.085,3.791-7.815,4.984q-5.615,2.455-11.006,5.384a14.658,14.658,0,0,0-3.652,2.524,5.307,5.307,0,0,0-1.638,4,1.453,1.453,0,0,0,.352.931,1.515,1.515,0,0,0,.686.344c2.463.676,5.009-.468,7.378-1.421a78.133,78.133,0,0,1,11.569-3.5c3.379-.784,7.032-.87,10.275-1.848,5.047-1.52,9.81-4.583,15.127-5.505,1.966-.341,4.818-.173,6-2.194,2.1-3.593-1.9-6.781-3.653-9.485A33.6,33.6,0,0,1,362.173,405.555Z" transform="translate(-248.068 -46.749)" fill="#ffba9c"/>
      <path id="Path_276" data-name="Path 276" d="M431.337,362.035c3.935-9.823,6.8-20.9,9.312-31.209l10.1-41.4c2.96-12.137,5.926-24.358,7.016-36.834,1.184-13.548-.189-31.2-11.347-40.587-8.782-7.387-16.486-12.416-28.72-12.213-11.98.2-23.2,6.806-31.194,15.731s-13.162,20.005-17.456,31.193A181.042,181.042,0,0,0,359.7,281.34c-2.921,16.75-8.361,26.361-25.062,33.7-13.283,5.835-24.874,17.907-27.927,32.546-2.488,11.927,2.155,25.745,12.827,31.619,7.243,3.987,15.927,3.928,24.189,4.215,13.825.479,27.613,2.2,41.444,1.962,11.03-.193,27.075-.883,36.227-7.957C425.626,374.157,428.906,368.1,431.337,362.035Z" transform="translate(-253.312 -124.074)" fill="#fff"/>
      <path id="Path_277" data-name="Path 277" d="M371.548,413.562a4.55,4.55,0,0,0-1.383.366,116.427,116.427,0,0,1-23.907,7.047.931.931,0,0,1-1.317-.638c-.638-1.542-1.39-3.08-1.9-4.669-.258-.8-.314-2.725-1.222-3.117s-4.959,2.673-5.867,3.194c-1.838,1.053-3.733,2.045-5.528,3.17-.614.385-1.383.675-1.663,1.4-.417,1.079,1.3,3.1,1.766,4a1.39,1.39,0,0,1,.227.8c-.072.525-.673.772-1.183.925a74.585,74.585,0,0,0-7.764,2.8c-.8.342-6.429,2.77-3.232,4.152a3.276,3.276,0,0,0,2.041-.035c6.582-1.541,33.891-8.51,40.818-10,3.725-.8,7.6-1.669,10.554-4.078,1.473-1.2,2.617-3.3.972-4.876A1.761,1.761,0,0,0,371.548,413.562Z" transform="translate(-248.601 -37.214)" fill="#fc748c"/>
      <path id="Path_278" data-name="Path 278" d="M355.171,280.535c5.987,1.622,11.942,3.36,17.825,5.332,5.532,1.853,11.5,3.617,16.411,6.73a25.254,25.254,0,0,0,5.236,2.358,6.564,6.564,0,0,0,3.379.468c2.028-.407,3.29-2.38,4.315-4.176l3.212-5.628a32.549,32.549,0,0,1,2.893-4.974c-.5-3.445-1.017-6.885-1.435-10.326-.192-1.58-.556-3.417-1.987-4.115a4.844,4.844,0,0,0-2.319-.293l-28.96,1.107c-8.019.307-15.741,1.753-23.031-2.125-6.274-3.339-8.354-2.3-8.572,5.363q-.1,3.443-.075,6.887C346.439,278.244,350.814,279.357,355.171,280.535Z" transform="translate(-238.613 -98.226)" fill="#ff4284"/>
      <path id="Path_279" data-name="Path 279" d="M339.356,280.074a79.84,79.84,0,0,1-14.121-2.679,1.584,1.584,0,0,1-.952-.544,1.564,1.564,0,0,1-.048-1.2c.513-2.17,1.227-4.285,1.939-6.4,2.18-6.46,4.24-12.973,6.136-19.461,1.3-4.456,5.675-9.788,10.779-7.651A7.382,7.382,0,0,1,346,244.7c7.724,10.382,2.567,23.089-.549,34.17a1.707,1.707,0,0,1-2.207,1.487Q341.295,280.264,339.356,280.074Z" transform="translate(-245.929 -106.978)" fill="#f79674"/>
      <path id="Path_280" data-name="Path 280" d="M345.766,272.09c1.794.849,3.992,1.68,5.653.591a5.631,5.631,0,0,0,1.752-2.324,71.091,71.091,0,0,0,3.141-55.544c-1.259-3.438-4.363-7.143-7.249-2.788-9.422,14.221-16.7,29.765-22.9,45.654a7.562,7.562,0,0,0-.741,3.352c.2,2.3,3.062,3.2,4.8,4.142a34.972,34.972,0,0,0,7.154,3.218C339.961,269.119,343.238,271.945,345.766,272.09Z" transform="translate(-245.413 -119.884)" fill="#e3f7fe"/>
      <path id="Path_281" data-name="Path 281" d="M369.889,178.577a9.189,9.189,0,0,0,.951-.751c2.256-2.043,3.376-5.235,5.949-6.858,3.16-1.991,7.877-1.2,10.24-4.09-1.96,2.4-1.218,6.9-1.21,9.691.018,5.263,3.814,9.833,4.587,14.96a9.043,9.043,0,0,1-1.018,5.973,1.729,1.729,0,0,0,1.217-.487,6.221,6.221,0,0,0,2.207-5.554,12.4,12.4,0,0,1,1.5,5.8c.2,4.2-.023,8.765-2.225,12.472a36.559,36.559,0,0,0,12.666-20.512,35.078,35.078,0,0,0-2.536-22.662c-.849-1.731-2.011-3.193-2.99-4.829-.842-1.405-1.287-2.835-2.528-4.022a9.77,9.77,0,0,0-4.435-2.414c-.639-.155-4.385.2-4.529.061a16.822,16.822,0,0,0-14.652-4.162c-2.217.43-4.823.532-6.943,1.239-2.772.922-5.071,2.945-7.43,4.588-3.414,2.379-7.087,4.54-9.741,7.815a17.8,17.8,0,0,0-3.9,9.876c-.263,3.731.608,8.036-.477,11.614-.9,2.969-3.083,5.892-2.165,8.854a9.917,9.917,0,0,0,1.445,2.587,13.187,13.187,0,0,1,2.642,6.087c.2,2.228-.859,4.711-2.948,5.512a3.377,3.377,0,0,0,2.818-1.658,7.417,7.417,0,0,0,.972-3.248c.269-2.505-.455-4.709-.531-7.146a25.1,25.1,0,0,1,.942-6.468,12.354,12.354,0,0,1,4.166-6.86C356.948,180.143,364.82,182.067,369.889,178.577Z" transform="translate(-238.551 -144.039)" fill="#ff4284"/>
      <path id="Path_282" data-name="Path 282" d="M391.974,192.625a12.4,12.4,0,0,0-1.5-5.8,6.221,6.221,0,0,1-2.207,5.554,1.729,1.729,0,0,1-1.217.487,9.043,9.043,0,0,0,1.018-5.973c-.773-5.128-4.569-9.7-4.587-14.96-.008-2.786-.751-7.289,1.21-9.691-2.363,2.893-7.08,2.1-10.24,4.09-2.573,1.624-3.693,4.815-5.949,6.858a9.2,9.2,0,0,1-.951.751c-5.068,3.49-12.941,1.566-17.953,5.409-.1.075-.185.162-.28.241,0,.315-.02.63-.011.945a28.488,28.488,0,0,1-.386,6.856c-.855,4.181-1.607,7.743-.177,11.907,1.932,5.633,4.99,11.2,9.812,14.863a30.313,30.313,0,0,0,7.565,3.994c3.1,1.146,7.277-.451,10.114-1.724,5.26-2.357,10.143-6.259,12.748-11.493A35.475,35.475,0,0,0,392,193.422C391.99,193.157,391.986,192.888,391.974,192.625Z" transform="translate(-236.211 -139.403)" fill="#ffba9c"/>
      <path id="Path_283" data-name="Path 283" d="M401.668,167c-2.212-4.752-6.33-11.243-11.323-13.332a15.252,15.252,0,0,0-1.729-.6c-5.759-1.61-10.91.787-16.721.8a29.164,29.164,0,0,0-11.028,2.248c-3.257,1.344-4.26,3.276-6.106,6.17a40.921,40.921,0,0,0-4.919,11.158c-1.1,3.987-3.15,7.471-3.584,11.707a23.133,23.133,0,0,0,2.436,12.983,37.135,37.135,0,0,1,.962-6.757,28.482,28.482,0,0,0,.386-6.856c-.008-.315.01-.63.011-.945.1-.079.183-.166.282-.241,5.011-3.843,12.883-1.92,17.952-5.409a9.189,9.189,0,0,0,.951-.751c2.256-2.043,3.376-5.235,5.949-6.858,3.16-1.991,7.877-1.2,10.24-4.09-1.96,2.4-1.218,6.9-1.208,9.691.017,5.263,3.812,9.833,4.585,14.96a9.043,9.043,0,0,1-1.018,5.973,1.729,1.729,0,0,0,1.217-.487,6.221,6.221,0,0,0,2.207-5.554,12.4,12.4,0,0,1,1.5,5.8c.013.263.017.532.027.8a35.475,35.475,0,0,1-3.019,11.517c-.292.584-.62,1.145-.965,1.7a36.946,36.946,0,0,0,3.539-2.421c2.581-2.007,4.576-5.849,6.333-8.612a40.609,40.609,0,0,0,4.964-10.52A31.982,31.982,0,0,0,401.668,167Z" transform="translate(-236.948 -143.379)" fill="#ff4284"/>
      <g id="Group_174" data-name="Group 174" transform="translate(115.832 34.251)">
        <g id="Group_171" data-name="Group 171">
          <g id="Group_170" data-name="Group 170">
            <path id="Path_284" data-name="Path 284" d="M368.115,171.138a6.254,6.254,0,0,0-1.8.448c-.369.156-1.2.508-1.346.928a.549.549,0,0,0,.369.638,1.72,1.72,0,0,0,.808.025,16.535,16.535,0,0,1,5.643.324c.748.177,1.411.518,2.152.738q1.2.357,2.424.658c.237.058.546.086.668-.125a.491.491,0,0,0,.032-.318,2.286,2.286,0,0,0-1.145-1.482,8.417,8.417,0,0,0-1.7-.727c-.731-.252-1.48-.4-2.2-.645A9.343,9.343,0,0,0,368.115,171.138Z" transform="translate(-345.099 -170.041)" fill="#0c064e"/>
            <path id="Path_285" data-name="Path 285" d="M358.365,170.55a6.269,6.269,0,0,1,1.735.651c.349.2,1.132.644,1.232,1.077a.548.548,0,0,1-.441.59,1.711,1.711,0,0,1-.806-.065,16.18,16.18,0,0,0-5.328-.362,6.419,6.419,0,0,0-1.893.442c-.493.2-1.353.58-1.814.121a.8.8,0,0,1-.153-.8,1.711,1.711,0,0,1,.486-.693,3.729,3.729,0,0,1,1.5-.611c.508-.148,1.032-.227,1.549-.341A9.332,9.332,0,0,1,358.365,170.55Z" transform="translate(-350.854 -170.346)" fill="#0c064e"/>
          </g>
        </g>
        <g id="Group_172" data-name="Group 172" transform="translate(2.408 6.513)">
          <path id="Path_286" data-name="Path 286" d="M370.576,176.253a2.262,2.262,0,0,0-3.449.877,4.77,4.77,0,0,0-.018,3.862,2.169,2.169,0,0,0,2.532,1.515,2.455,2.455,0,0,0,1.713-1.941,5.3,5.3,0,0,0,.146-1C371.561,178.4,371.7,177.037,370.576,176.253Z" transform="translate(-346.788 -174.638)" fill="#0c064e"/>
          <path id="Path_287" data-name="Path 287" d="M352.981,176.316a4.776,4.776,0,0,0-.017,3.862,2.168,2.168,0,0,0,2.532,1.515,2.451,2.451,0,0,0,1.711-1.941,5.313,5.313,0,0,0,.146-1c.061-1.165.2-2.525-.922-3.31A2.263,2.263,0,0,0,352.981,176.316Z" transform="translate(-352.564 -174.97)" fill="#0c064e"/>
        </g>
        <path id="Path_288" data-name="Path 288" d="M364.327,187.44c.145.051.292.1.438.148a4.044,4.044,0,0,1-3.839.408,1.972,1.972,0,0,1-1.122-2.66q1.181-2.5,2.365-5a21.271,21.271,0,0,1-.466,2.855,4.546,4.546,0,0,0-.2,1.769,2.754,2.754,0,0,0,1.245,1.748A6.756,6.756,0,0,0,364.327,187.44Z" transform="translate(-347.275 -166.266)" fill="#f79674"/>
        <g id="Group_173" data-name="Group 173" transform="translate(9.405 28)">
          <path id="Path_289" data-name="Path 289" d="M364.127,194.763c-2.153,0-4.332-1.053-6.4-3.117a.68.68,0,1,1,.962-.962c1.631,1.629,4.177,3.377,7.063,2.462a5.824,5.824,0,0,0,3.229-2.581.679.679,0,1,1,1.173.684,7.188,7.188,0,0,1-3.991,3.194A6.723,6.723,0,0,1,364.127,194.763Z" transform="translate(-357.532 -190.228)" fill="#f79674"/>
        </g>
      </g>
      <g id="Group_178" data-name="Group 178" transform="translate(112.826 48.437)">
        <g id="Group_177" data-name="Group 177">
          <g id="Group_175" data-name="Group 175" transform="translate(26.52 1.527)">
            <path id="Path_290" data-name="Path 290" d="M377.655,184.6c-.059,1.607-2.369,2.825-5.159,2.722s-5-1.489-4.945-3.1,2.369-2.825,5.159-2.722S377.714,183,377.655,184.6Z" transform="translate(-367.55 -181.503)" fill="#ff9f9f"/>
          </g>
          <g id="Group_176" data-name="Group 176">
            <path id="Path_291" data-name="Path 291" d="M358.824,183.52c-.059,1.607-2.369,2.826-5.159,2.722s-5-1.489-4.945-3.1,2.369-2.825,5.159-2.722S358.883,181.913,358.824,183.52Z" transform="translate(-348.719 -180.419)" fill="#ff9f9f"/>
          </g>
        </g>
      </g>
      <path id="Path_292" data-name="Path 292" d="M390.572,161.814c-1.683,2.663-4.932,6.157-8.229,6.64a10.114,10.114,0,0,1-5.781-.732,6.944,6.944,0,0,1-3.773-4.312,11.285,11.285,0,0,1,.12-4.935,13.148,13.148,0,0,1,2.71-6.273,17.4,17.4,0,0,1,6.978-5.553c2.812-1.066,6.27-.831,8.481,1.208a8.249,8.249,0,0,1,2.274,6.958A16.86,16.86,0,0,1,390.572,161.814Z" transform="translate(-226.159 -146.025)" fill="#ff4284"/>
      <path id="Path_293" data-name="Path 293" d="M385.663,181.4c-.982,3.069-2.379,6.025-5.312,7.671a1.948,1.948,0,0,1-1.627.3c-.81-.324-.927-1.4-.911-2.273.044-2.414-.27-5.28.237-7.639.351-1.638,2.036-3.112,3.374-4.074a3.786,3.786,0,0,1,2.039-.844,3.092,3.092,0,0,1,2.811,2.7A8.82,8.82,0,0,1,385.663,181.4Z" transform="translate(-224.037 -134.381)" fill="#ffba9c"/>
      <path id="Path_294" data-name="Path 294" d="M390.4,294.307c4.284.275,17.847,3.457,20.043-1.055a10.074,10.074,0,0,0,.715-4.453c-.013-7.853-1.2-15.651-1.889-23.472a185.962,185.962,0,0,1,1.3-43.645,12.5,12.5,0,0,0,0-5.663c-1.448-4.476-5.7-3.149-8.8-1.632-9.34,4.577-18.909,4.9-29.013,3.984-7.436-.675-17.362-1.715-20.415-9.678l-4.335,1.3a2.577,2.577,0,0,0-2.26,2.142q-2.119,6.732-3.924,13.507c-1.232,4.65-3.832,8.916-5.022,13.646a30.7,30.7,0,0,0-.351,15.19c.831,3.164,2.339,6.157,2.767,9.4.475,3.594-.475,7.013-1.384,10.45a22.54,22.54,0,0,0-.2,9.616c.935,4.66,2.352,5.666,6.684,6.143,5.03.555,10.057,1.153,15.093,1.662Q374.881,293.315,390.4,294.307Z" transform="translate(-241.228 -120.437)" fill="#e3f7fe"/>
      <path id="Path_295" data-name="Path 295" d="M404.112,217.059c.044-.027.087-.055.132-.079l-6.322-.634c-4.2-.421-9.034-1.425-12.52-3.943-2.758-1.991-3.021-4.761-2.808-7.827.152-2.235.413-4.522.61-6.808a29.961,29.961,0,0,1-6.736,4.159c-2.838,1.273-7.013,2.87-10.114,1.724a32.3,32.3,0,0,1-6.294-3.125q-.23,1.717-.469,3.435c-.6,4.346-.818,6.339-5.392,7.453-2.3.559-4.56,1.166-6.835,1.739,0,.02,0,.039.006.059l.194-.058c3.053,7.963,12.979,9,20.415,9.678,10.1.914,19.673.593,29.012-3.984a10.8,10.8,0,0,1,5.357-1.38,3.773,3.773,0,0,1,1.749-.41Z" transform="translate(-236.446 -124.898)" fill="#f79674"/>
      <path id="Path_296" data-name="Path 296" d="M313.958,382.127a4.581,4.581,0,0,0-1.2.786,116.275,116.275,0,0,1-20.432,14.273A.931.931,0,0,1,290.88,397c-1.1-1.259-2.3-2.48-3.288-3.822-.5-.676-1.163-2.486-2.149-2.567s-3.853,4.109-4.549,4.891c-1.408,1.583-2.89,3.125-4.235,4.761-.461.559-1.1,1.079-1.132,1.859-.052,1.155,2.214,2.525,2.945,3.231a1.384,1.384,0,0,1,.469.687c.1.521-.393.946-.828,1.253a74.743,74.743,0,0,0-6.473,5.121c-.654.579-5.218,4.669-1.746,4.963a3.284,3.284,0,0,0,1.924-.682q8.769-5.412,17.259-11.258c2.512-1.731,5.315-2.984,7.913-4.654,3.042-1.959,6.043-3.981,9.023-6.033a70.522,70.522,0,0,0,5.926-4.022c1.822-1.548,5.171-4.205,4.67-6.989a2.236,2.236,0,0,0-1.172-1.632A1.772,1.772,0,0,0,313.958,382.127Z" transform="translate(-268.604 -49.694)" fill="#fc748c"/>
      <path id="Path_297" data-name="Path 297" d="M403.115,270.486q.731-1.61,1.406-3.2c1.876-4.412.917-12.71-3.8-15.018-3.738-1.829-10.719.39-13.562,3.359-4.5,4.7-7.361,12.642-9.844,18.55-2.383,5.671-5.508,13.652-2.757,19.713a10.73,10.73,0,0,0,5.915,5.481,11.694,11.694,0,0,0,2.75.462,4.15,4.15,0,0,0,3.019-.211,8.168,8.168,0,0,0,2.631-2.71c2.769-4.038,4.832-8.513,7.239-12.745C398.645,279.716,400.994,275.151,403.115,270.486Z" transform="translate(-225.781 -102.915)" fill="#ffba9c"/>
      <path id="Path_298" data-name="Path 298" d="M413.026,266.792c.437,9.169.39,18.483-1.942,27.362-.2.755-.522,1.621-1.274,1.829a2.336,2.336,0,0,1-1.825-.576l-29.962-20.144a5.922,5.922,0,0,1-2.049-1.92,5.692,5.692,0,0,1-.2-3.719c2.352-12.863,8.434-24.792,11.026-37.609.958-4.732,1.431-9.548,2.234-14.31a35.855,35.855,0,0,0,.779-4.212c.028-.58-.075-1.287-.61-1.52,2.473-.848,4.7-.917,6.867.7a28.231,28.231,0,0,1,5.705,6.285c4.307,6.029,5.418,13.438,7.372,20.451C411.629,248.317,412.587,257.583,413.026,266.792Z" transform="translate(-224.932 -119.338)" fill="#e3f7fe"/>
      <path id="Path_299" data-name="Path 299" d="M432.435,296.411c-.139-2.79-.465-5.563-.645-8.347a50.377,50.377,0,0,0-1.02-9,32.014,32.014,0,0,0-2.912,5l-3.212,5.628c-1.025,1.8-2.287,3.769-4.315,4.176a6.564,6.564,0,0,1-3.379-.468,25.254,25.254,0,0,1-5.236-2.357c-4.909-3.114-10.879-4.877-16.411-6.73-5.882-1.972-11.838-3.71-17.825-5.332-11.923-3.228-23.965-5.992-35.891-9.215-8.112-2.191-13.965-4.747-21.992-.844a25.562,25.562,0,0,0-7.312,4.932,16.409,16.409,0,0,0-4.471,9.788c-6.205,16.459-7.53,35.482-10.6,52.766-3.276,18.464-6.781,36.682-9.729,55.17a2.022,2.022,0,0,0,.165,1.532,1.471,1.471,0,0,0,.813.494c.159.047.325.08.486.111l21.34,4.152a15.753,15.753,0,0,0,2.448.035c1.769-7.044,3.994-14.028,5.767-21q4.609-18.123,9.217-36.246c2.877-11.311,4.547-24.343,8.938-35.229a49.641,49.641,0,0,1,6.791,2.8c13.21,6.573,26.23,13.682,40.185,18.593,2.736.963,5.594,2.043,8.516,3.041,9.7,3.307,20.12,5.682,29.225-.258a22.006,22.006,0,0,0,7.943-9.688,35.3,35.3,0,0,0,2.074-6.5A64.13,64.13,0,0,0,432.435,296.411Z" transform="translate(-260.922 -96.672)" fill="#fc748c"/>
      <path id="Path_300" data-name="Path 300" d="M328.306,269.735c1.9-.48,3.87-.531,5.773-.969,1.108-.255,4.057-.918,4.667-1.959a2.938,2.938,0,0,0,.218-1.945,1.95,1.95,0,0,0-.379-1,2.172,2.172,0,0,0-1.037-.553,54.267,54.267,0,0,0-21.256-2.422,4.71,4.71,0,0,0-4.312,2.346l-4.36,5.709a37.279,37.279,0,0,0-3.536,5.216c-.9,1.717-1.535,3.755-.877,5.578,2.572-1.614,4.471-4.4,6.82-6.342l-.215,3.357a1.631,1.631,0,0,0,.1.856c.452.877,1.784.3,2.518-.361l4.4-3.957c-.342,1.022,1.073,1.88,2.1,1.56a7.16,7.16,0,0,0,2.5-2,12.72,12.72,0,0,1,5.391-2.722C327.318,269.988,327.814,269.858,328.306,269.735Z" transform="translate(-254.586 -99.217)" fill="#f79674"/>
      <path id="Path_301" data-name="Path 301" d="M334.449,273.51a14.117,14.117,0,0,1,2.511-.08c2.687.153,5.418.917,7.884-.646a3.51,3.51,0,0,0,1.891-3.8c-.42-2.089-2-2.349-3.739-2.815-5.98-1.6-11.976-3.433-18.073-4.347a4.717,4.717,0,0,0-4.753,1.229l-5.616,4.481a37.3,37.3,0,0,0-4.7,4.2,7.473,7.473,0,0,0-1.72,3.633,1.236,1.236,0,0,0,.3,1.165c.449.359,1.107.073,1.594-.231a33.454,33.454,0,0,0,3.038-2.136,16.83,16.83,0,0,1,2.041-1.493,13.584,13.584,0,0,1,4.478-1.328,18.763,18.763,0,0,1-2.438,1.542,8.836,8.836,0,0,0-1.946,1.2,2.278,2.278,0,0,0-.8,2.045c.3,1.438,1.851,1.125,2.8.622a61.378,61.378,0,0,1,8.282-3.864,4.524,4.524,0,0,0-1.407,2.477,1.161,1.161,0,0,0,.041.739,1.038,1.038,0,0,0,.589.456,3.316,3.316,0,0,0,2.37-.159,18.32,18.32,0,0,0,2.128-1.173A14.056,14.056,0,0,1,334.449,273.51Z" transform="translate(-252.473 -98.808)" fill="#ffba9c"/>
      <path id="Path_302" data-name="Path 302" d="M410.071,318.875c-9.1,5.94-19.525,3.564-29.225.258-2.922-1-5.78-2.077-8.516-3.041-13.955-4.911-26.975-12.02-40.185-18.592-1.349-.672-2.648-1.232-3.933-1.746-3.322-1.814-7.151-4.383-10.155-.741a11.287,11.287,0,0,0-1.982,4.156c-1.365,4.79-1.1,9.861-.286,14.706,2.1,12.528,3.353,25.109,5.309,37.662,1.963,12.6,4.508,25.1,7.4,37.52,1.794,7.7,3.721,15.372,5.721,23.022,1.959,7.488,3.805,15.038,6.68,22.24.062.155.141.327.3.38a.579.579,0,0,0,.341-.023c6.009-1.62,11.819-3.34,17.711-5.471q1.95-.7,3.87-1.483c-.07.028-3.708-35.158-3.9-38.564q-1.147-20.778-1.048-41.6c.018-3.909.011-7.818.041-11.726q.023-2.93.077-5.86c.025-1.22-.468-5.146.393-5.939.9-.827,3.67-.015,4.719.082q2.9.273,5.8.5,6,.465,12.011.732c10.4.463,21.785,0,30-7.289C410.844,318.341,410.465,318.617,410.071,318.875Z" transform="translate(-249.613 -85.945)" fill="#ff4284"/>
      <g id="Group_182" data-name="Group 182" transform="translate(156.263 45.257)">
        <g id="Group_181" data-name="Group 181">
          <g id="Group_179" data-name="Group 179">
            <path id="Path_303" data-name="Path 303" d="M381.171,182.832a.375.375,0,0,1-.179-.045,2.928,2.928,0,0,1-1.36-2.021,5.25,5.25,0,0,1,.156-2.332.366.366,0,1,1,.707.186,4.574,4.574,0,0,0-.146,2.01,2.188,2.188,0,0,0,1,1.518.365.365,0,0,1-.179.684Z" transform="translate(-379.563 -178.161)" fill="#f79674"/>
          </g>
          <g id="Group_180" data-name="Group 180" transform="translate(0.519 1.495)">
            <path id="Path_304" data-name="Path 304" d="M380.3,180.72a.365.365,0,0,1-.352-.459,1.375,1.375,0,0,1,.807-.88,2.449,2.449,0,0,1,1.045-.156c.542.021.915.292.952.691a.366.366,0,0,1-.332.4.341.341,0,0,1-.4-.331c-.007.023-.106-.021-.252-.027a1.608,1.608,0,0,0-.729.1.658.658,0,0,0-.39.394A.364.364,0,0,1,380.3,180.72Z" transform="translate(-379.931 -179.223)" fill="#f79674"/>
          </g>
        </g>
      </g>
      <g id="Group_183" data-name="Group 183" transform="translate(105.159 2.814)">
        <path id="Path_305" data-name="Path 305" d="M381.986,160.1a29.715,29.715,0,0,1,5.412,15.367,49.612,49.612,0,0,1-1.767,16.335" transform="translate(-327.469 -143.093)" fill="none" stroke="#db1b64" stroke-linecap="round" stroke-linejoin="round" stroke-width="0.519"/>
        <path id="Path_306" data-name="Path 306" d="M382.857,160.525a14.165,14.165,0,0,0,3.28-8.813,5.18,5.18,0,0,0-1.1-3.688" transform="translate(-327.113 -148.023)" fill="none" stroke="#db1b64" stroke-linecap="round" stroke-linejoin="round" stroke-width="0.519"/>
        <path id="Path_307" data-name="Path 307" d="M377.987,156.471a12.785,12.785,0,0,1,7.125-8.267" transform="translate(-329.101 -147.949)" fill="none" stroke="#db1b64" stroke-linecap="round" stroke-linejoin="round" stroke-width="0.519"/>
        <path id="Path_308" data-name="Path 308" d="M375.847,160.208c-1.646,3.474-.689,7.581.493,11.241s2.576,7.508,1.707,11.254" transform="translate(-330.334 -143.048)" fill="none" stroke="#db1b64" stroke-linecap="round" stroke-linejoin="round" stroke-width="0.519"/>
        <path id="Path_309" data-name="Path 309" d="M345.019,196.011a8.455,8.455,0,0,1-1.324-7.765c.931-2.753,3.253-4.892,4.056-7.687,1.121-3.905-.934-8.357.758-12.051,1.914-4.183,7.454-5.132,10.73-8.361,2.1-2.067,3.625-5.292,6.557-5.573" transform="translate(-343.275 -145.348)" fill="none" stroke="#db1b64" stroke-linecap="round" stroke-linejoin="round" stroke-width="0.519"/>
        <path id="Path_310" data-name="Path 310" d="M359.275,172.976c2.577.483,5.219-.8,7.087-2.648a32.017,32.017,0,0,0,4.49-6.436,16.75,16.75,0,0,1,5.15-5.85,9.548,9.548,0,0,1,6.029-1.351" transform="translate(-336.742 -144.507)" fill="none" stroke="#db1b64" stroke-linecap="round" stroke-linejoin="round" stroke-width="0.519"/>
        <path id="Path_311" data-name="Path 311" d="M373.424,152.911a25.692,25.692,0,0,1,12.155,6.346,6.636,6.636,0,0,1,1.805,2.4" transform="translate(-330.964 -146.027)" fill="none" stroke="#db1b64" stroke-linecap="round" stroke-linejoin="round" stroke-width="0.519"/>
      </g>
      <path id="Path_312" data-name="Path 312" d="M405,294.016c-3,2.457-6.384,2.269-10.036,1.567-11.533-2.212-22.5-6.6-33.126-11.5-5.247-2.419-10.238-4.971-15.752-6.7q-8.847-2.782-17.759-5.361c-.122-2.073.039-4.722,1.508-6.349,2-2.219,4.65-.882,7.116-.515,7.941,1.177,15.888,2.318,23.831,3.49,11.59,1.711,23.25,3.452,34.451,6.989,4.876,1.539,8.568,2.731,10.974,7.547C407.97,286.714,408.342,291.278,405,294.016Z" transform="translate(-244.233 -97.682)" fill="#ffba9c"/>
      <g id="Group_184" data-name="Group 184" transform="translate(38.145 185.377)">
        <path id="Path_313" data-name="Path 313" d="M314.846,288.179c4.4,4.983,6.188,5.305,12.031,8.478" transform="translate(-287.868 -273.359)" fill="none" stroke="#ff4284" stroke-linecap="round" stroke-linejoin="round" stroke-width="1.038"/>
        <path id="Path_314" data-name="Path 314" d="M295.69,389.347c3.226-28.191,11.017-55.614,15.62-83.6,1.329-8.081,2.607-16.35,6.439-23.586a8.787,8.787,0,0,1,2.912-3.557,8.282,8.282,0,0,1,4.387-.948c4.409.013,8.719,1.236,12.925,2.559,10.161,3.194,19.042,7.951,28.849,11.972a306.53,306.53,0,0,0,33.053,11.395c4.419,1.246,9.285,2.365,13.475.484,4.07-1.828,6.516-6.137,7.568-10.474s.577-4.6,1.139-9.026" transform="translate(-295.69 -277.656)" fill="none" stroke="#ff4284" stroke-linecap="round" stroke-linejoin="round" stroke-width="0.519"/>
        <path id="Path_315" data-name="Path 315" d="M297.159,388.7q3.6-25.711,9.315-51.067c3.642-16.149,6.308-32.471,10.993-48.387,1.115-3.788,3-8.188,6.892-8.83a10.733,10.733,0,0,1,4.909.735c19.2,6.085,38.1,15.249,56.911,22.731,9.143,3.636,23.065,9.3,31.219.813,3.415-3.553,5.125-8.434,5.94-13.294.862-5.14.97-8.622,1.622-12.869" transform="translate(-295.09 -277.298)" fill="none" stroke="#ff4284" stroke-linecap="round" stroke-linejoin="round" stroke-width="0.519"/>
        <path id="Path_316" data-name="Path 316" d="M381.018,286.34a20.166,20.166,0,0,1,10.823,10.479" transform="translate(-260.85 -274.11)" fill="none" stroke="#ff4284" stroke-linecap="round" stroke-linejoin="round" stroke-width="1.038"/>
        <path id="Path_317" data-name="Path 317" d="M338.688,299.914a23.524,23.524,0,0,0-8.808.865c-2.86.775-5.3,1.329-5.712,4.66-.789,6.367.76,13.292,1.824,19.574,1.138,6.73,2.525,13.416,3.8,20.121q2.651,13.951,5.34,27.893,5.435,28.176,11.02,56.322" transform="translate(-284.15 -268.617)" fill="none" stroke="#fc748c" stroke-linecap="round" stroke-linejoin="round" stroke-width="0.519"/>
        <path id="Path_318" data-name="Path 318" d="M340.649,301.579c-5.571,2.027-15.335.9-14.272,9.55q.247,2.007.508,4.011a786.666,786.666,0,0,0,22.278,110.755" transform="translate(-283.193 -267.888)" fill="none" stroke="#fc748c" stroke-linecap="round" stroke-linejoin="round" stroke-width="0.519"/>
        <path id="Path_319" data-name="Path 319" d="M337.331,313.111a44.648,44.648,0,0,0,16.276,1.018" transform="translate(-278.688 -263.179)" fill="none" stroke="#fc748c" stroke-linecap="round" stroke-linejoin="round" stroke-width="1.038"/>
      </g>
      <g id="Group_186" data-name="Group 186" transform="translate(80.403 89.981)">
        <g id="Group_185" data-name="Group 185">
          <path id="Path_320" data-name="Path 320" d="M388.73,218.511c-.918,12.255-4.677,24.052-8.757,35.57-1.028,2.9-2.08,5.791-3.119,8.688-.742,2.067-2.526,5.049-1.138,7.18,1.183,1.814,4.112,3.279,5.822,4.561q3.693,2.772,7.481,5.412,10,6.969,20.611,13" transform="translate(-305.483 -206.409)" fill="none" stroke="#b8dee8" stroke-linecap="round" stroke-linejoin="round" stroke-width="0.779"/>
          <path id="Path_321" data-name="Path 321" d="M343.416,254.12c6.436-.038,12.817-1.111,19.237-1.563s13.047-.246,19.018,2.152" transform="translate(-318.461 -192.587)" fill="none" stroke="#b8dee8" stroke-linecap="round" stroke-linejoin="round" stroke-width="0.779"/>
          <path id="Path_322" data-name="Path 322" d="M347.261,209.918c-2.488,5.152-3.167,10.972-4.974,16.4-2.393,7.189-6.832,14.03-6.485,21.6.245,5.377,2.925,10.414,3.19,15.79.376,7.649-3.525,15.305-.161,22.84" transform="translate(-321.578 -209.918)" fill="none" stroke="#b8dee8" stroke-linecap="round" stroke-linejoin="round" stroke-width="0.779"/>
          <path id="Path_323" data-name="Path 323" d="M342.167,270.88q-7.582-3.881-15.162-7.763a2.72,2.72,0,0,1-.972-.693,2.683,2.683,0,0,1-.11-2.4c4.352-14.187,13.054-35.532,25.6-50.061" transform="translate(-325.696 -209.901)" fill="none" stroke="#b8dee8" stroke-linecap="round" stroke-linejoin="round" stroke-width="0.779"/>
        </g>
      </g>
      <g id="Group_190" data-name="Group 190" transform="translate(101.766 0.687)">
        <g id="Group_187" data-name="Group 187" transform="translate(58.862)">
          <path id="Path_324" data-name="Path 324" d="M383.17,170.45l-.508-.525a21.017,21.017,0,0,0,5.971-10.359c.577-2.608,1.079-8.119-1.145-10.3a6,6,0,0,0-3.2-2.025l.086-.725A6.552,6.552,0,0,1,388,148.741c2.449,2.4,2,8.033,1.348,10.981A21.75,21.75,0,0,1,383.17,170.45Z" transform="translate(-382.662 -146.513)" fill="#ff4284"/>
        </g>
        <g id="Group_188" data-name="Group 188" transform="translate(0 21.844)">
          <path id="Path_325" data-name="Path 325" d="M344.484,205.518l-.273-.68c1.552-.624,2.242-2.535,2.122-4.1a12.1,12.1,0,0,0-1.855-4.867l-.106-.189a26.051,26.051,0,0,1-3.325-7.9c-.548-3.059.19-4.649,1.542-7.2a27.46,27.46,0,0,0,3.115-10.975l.023-.386a7.244,7.244,0,0,1,1.752-4.922,8.672,8.672,0,0,0,1.3-2.27l.694.227a9.378,9.378,0,0,1-1.393,2.466,8.849,8.849,0,0,0-1.286,2.241,8.947,8.947,0,0,0-.334,2.3l-.024.392a28.173,28.173,0,0,1-3.2,11.269c-1.313,2.474-1.974,3.9-1.467,6.727a25.494,25.494,0,0,0,3.243,7.677l.107.19a13.079,13.079,0,0,1,1.943,5.164C347.2,202.455,346.45,204.725,344.484,205.518Z" transform="translate(-340.866 -162.024)" fill="#ff4284"/>
        </g>
        <g id="Group_189" data-name="Group 189" transform="translate(52.022 18.939)">
          <path id="Path_326" data-name="Path 326" d="M377.963,205.7l-.158-.714c3.9-.853,5.752-3.645,7.888-6.875a40.512,40.512,0,0,0,5.144-10.859,32.016,32.016,0,0,0,.989-14.172c-.807-4.9-3.384-8.637-6.418-12.675l.586-.439c3.093,4.116,5.721,7.937,6.554,12.994a32.8,32.8,0,0,1-1.008,14.5,41.3,41.3,0,0,1-5.236,11.057C384.169,201.734,382.155,204.779,377.963,205.7Z" transform="translate(-377.805 -159.961)" fill="#ff4284"/>
        </g>
      </g>
    </g>
  </g>
</svg>
