<svg xmlns="http://www.w3.org/2000/svg" width="704.921" height="436.221" viewBox="0 0 704.921 436.221">
  <g id="Group_251" data-name="Group 251" transform="translate(-199.62 -196.329)">
    <g id="Group_193" data-name="Group 193" transform="translate(199.62 196.329)">
      <path id="Path_327" data-name="Path 327" d="M873.6,587.356c-45.234,0-621.036.064-621.036,0-.252-.52-129.117-54.565,16.164-209.447C317.8,325.592,253.114,285.848,302.1,241.52c56.3-50.939,85.6-8.876,148.206-31.974,11.061-4.077,22.16-10.64,33.271-20.711,25.943-23.491,61.458-34.148,97.629-36.549,69.95-4.613,148.67,21.336,189.294,59.262,8.179,7.638,45.37,47.154,16.053,101.469-18.51,34.293,59.034,67.046,86.589,106.205C943.2,518.785,874.235,586.058,873.6,587.356Z" transform="translate(-199.62 -151.756)" fill="#fff"/>
    </g>
    <g id="Group_196" data-name="Group 196" transform="translate(406.556 241.004)" opacity="0.5">
      <g id="Group_194" data-name="Group 194" transform="translate(32.369)" opacity="0.5">
        <path id="Path_328" data-name="Path 328" d="M1070.6,532.4s-6-47.888-30.728-76.341a5.359,5.359,0,0,0-9.383,3.683c0,.084.005.168.009.253C1030.864,468.546,1058.57,504.442,1070.6,532.4Z" transform="translate(-1030.484 -454.224)" fill="#aec3ff"/>
      </g>
      <g id="Group_195" data-name="Group 195" transform="translate(0 4.998)" opacity="0.5">
        <path id="Path_329" data-name="Path 329" d="M993.647,558.461s-24.823-59.753-66.774-86a5.685,5.685,0,0,0-7.7,1.5c-1.1,1.626-1.588,4.159-.316,8.1C922.25,492.586,969.072,527.773,993.647,558.461Z" transform="translate(-918.1 -471.578)" fill="#aec3ff"/>
      </g>
    </g>
    <g id="Group_197" data-name="Group 197" transform="translate(341.154 424.025)" opacity="0.3">
      <path id="Path_330" data-name="Path 330" d="M793.584,1095.782s38.245,25.3,33.1,32.129-40.583-31.268-40.583-31.268-43.632,16.021-53.938,28.922c0,0,49.671,12.011,43,17.359s-58.938-4.75-58.938-4.75-35.62,25.276-22.16,47.948,30.345,23.546,35.918,20.089,33.629-33.12,36.695-28.666-10.051,30.145-24.185,37.853c0,0,41.872,17,55.861-.454s8.9-32,17.74-42.632,18.521-15.273,16.383-7.742-20.177,22.531-21.141,37.114-2.923,25.306,14.389,13.229c47.383-33.054,28.91-73.169,28.91-73.169s11.72-44.043-22.89-51.778C831.742,1089.966,808.087,1087.693,793.584,1095.782Z" transform="translate(-691.025 -1089.672)" fill="#aec3ff"/>
    </g>
    <g id="Group_198" data-name="Group 198" transform="translate(403.439 337.882)" opacity="0.3">
      <path id="Path_331" data-name="Path 331" d="M982.752,794s12.451,23.4,7.953,25.447-11.993-27.074-11.993-27.074-26.581-3.893-35.375-.182c0,0,21.92,19.8,17.057,20.676S931.766,794.2,931.766,794.2s-25.064,3.017-24.479,18.245,8.922,20.329,12.706,20.109,26.215-7.551,26.544-4.443-13.418,12.541-22.723,12.56c0,0,16.582,20.182,28.5,15.173s13.345-13.8,20.767-16.765,13.62-2.651,10.457.585-16.463,5.882-20.973,13.023-8.463,12.049,3.661,10.688c33.184-3.725,34.862-29.2,34.862-29.2s18.1-19.141,2.65-32.614C1003.74,801.564,992.35,793.886,982.752,794Z" transform="translate(-907.277 -790.584)" fill="#aec3ff"/>
    </g>
    <g id="Group_199" data-name="Group 199" transform="translate(503.365 241.28)" opacity="0.3">
      <path id="Path_332" data-name="Path 332" d="M1282.888,501.129s-.278,46.183,8.319,45.7-3.4-51.483-3.4-51.483,37.868-27.517,54.44-28.9c0,0-17.8,48.288-9.591,45.707s29.075-51.967,29.075-51.967,41.118-15.625,52.536,8.348,2.682,38.589-3.335,41.312-46.563,9.561-44.556,14.623,30.854,8.5,45.228.994c0,0-9.256,44.561-31.7,46.476s-31.762-10.5-45.611-9.065-23.162,6.929-15.663,9.364,30.163-4.245,42.9,3.125,22.809,11.745,3,19.456c-54.221,21.1-77.42-16.844-77.42-16.844s-43.416-14.892-30.479-48.183C1256.626,529.789,1267.989,508.725,1282.888,501.129Z" transform="translate(-1254.219 -455.18)" fill="#aec3ff"/>
    </g>
    <g id="Group_200" data-name="Group 200" transform="translate(608.297 416.072)" opacity="0.3">
      <path id="Path_333" data-name="Path 333" d="M1634.6,1087.8s-.156,25.875,4.661,25.606-1.905-28.845-1.905-28.845,21.216-15.416,30.5-16.194c0,0-9.975,27.054-5.373,25.608s16.29-29.115,16.29-29.115,23.037-8.755,29.434,4.677,1.5,21.62-1.868,23.146-26.088,5.357-24.963,8.193,17.286,4.76,25.339.557c0,0-5.186,24.966-17.762,26.039s-17.8-5.883-25.555-5.079-12.977,3.882-8.776,5.246,16.9-2.378,24.036,1.751,12.779,6.581,1.68,10.9c-30.378,11.824-43.376-9.437-43.376-9.437s-24.324-8.344-17.076-27C1619.89,1103.858,1626.256,1092.057,1634.6,1087.8Z" transform="translate(-1618.541 -1062.057)" fill="#aec3ff"/>
    </g>
    <g id="Group_219" data-name="Group 219" transform="translate(619.994 515.176)">
      <g id="Group_205" data-name="Group 205" transform="translate(61.981 46.291)">
        <g id="Group_201" data-name="Group 201" transform="translate(9.952)">
          <path id="Path_334" data-name="Path 334" d="M1912.664,1586.491s-8.112-9.463-.5-15.474c0,0,5.559-3.366,10.093-3.093,0,0-6.424,10.771-4.345,11.843s6.292-12.518,6.292-12.518,12.652-1.227,16.722.73c0,0-10.816,8.851-8.538,9.378s13.96-8.16,13.96-8.16,11.775,2,11.147,9.187-4.685,9.4-6.469,9.211-12.215-4.173-12.442-2.712,6.052,6.237,10.45,6.46c0,0-8.3,9.156-13.819,6.513s-5.989-6.831-9.428-8.4-6.375-1.567-4.955.035,7.645,3.16,9.611,6.639,3.732,5.826-1.977,4.966-14.988-5.036-15.4-9.819Z" transform="translate(-1908.906 -1566.869)" fill="#bbd0ff"/>
        </g>
        <g id="Group_204" data-name="Group 204" transform="translate(0 11.653)">
          <g id="Group_202" data-name="Group 202" transform="translate(6.592)">
            <path id="Path_335" data-name="Path 335" d="M1943.405,1607.383s-31.983-1.233-39.046,7.914a23.134,23.134,0,0,1-6.369,8.938l-.749,2.042s5.542-5.843,7.525-6.2C1904.766,1620.08,1901.665,1608.748,1943.405,1607.383Z" transform="translate(-1897.241 -1607.327)" fill="#bbd0ff"/>
          </g>
          <g id="Group_203" data-name="Group 203" transform="translate(0 16.103)">
            <path id="Path_336" data-name="Path 336" d="M1881.694,1664.041a20.083,20.083,0,0,0-7.342,14.148l1.246.112s2.192-9.38,6.155-13.048S1881.694,1664.041,1881.694,1664.041Z" transform="translate(-1874.352 -1663.236)" fill="#bbd0ff"/>
          </g>
        </g>
      </g>
      <g id="Group_210" data-name="Group 210" transform="translate(0 20.598)">
        <g id="Group_206" data-name="Group 206">
          <path id="Path_337" data-name="Path 337" d="M1706.485,1511.076s12.9-7.226,6.882-17.033c0,0-4.817-6.021-9.979-7.57,0,0,2.753,14.624,0,14.968s-1.893-16.517-1.893-16.517-13.591-6.538-18.925-6.022c0,0,8.43,14.28,5.678,13.936s-12.216-14.8-12.216-14.8-13.936-2.581-16.172,5.678,1.376,12.387,3.441,12.9,15.312.344,14.968,2.065-9.291,4.473-14.28,2.925c0,0,5.506,13.592,12.732,12.9s9.463-5.161,13.935-5.505,7.742.86,5.506,2.065-9.807.395-13.42,3.466-6.537,4.964.172,6.341,18.753.516,21.162-4.645Z" transform="translate(-1659.155 -1477.661)" fill="#aec3ff"/>
        </g>
        <g id="Group_209" data-name="Group 209" transform="translate(7.071 8.64)">
          <g id="Group_207" data-name="Group 207">
            <path id="Path_338" data-name="Path 338" d="M1683.706,1507.659s36.13,11.7,40.259,24.775a27.448,27.448,0,0,0,3.441,12.559v2.581s-3.785-8.775-5.85-9.979C1721.556,1537.6,1729.643,1526.24,1683.706,1507.659Z" transform="translate(-1683.706 -1507.659)" fill="#aec3ff"/>
          </g>
          <g id="Group_208" data-name="Group 208" transform="translate(41.974 35.728)">
            <path id="Path_339" data-name="Path 339" d="M1831.165,1633.313a23.829,23.829,0,0,1,2.4,18.76l-1.433-.385s1.391-11.344-1.524-17.05S1831.165,1633.313,1831.165,1633.313Z" transform="translate(-1829.438 -1631.706)" fill="#aec3ff"/>
          </g>
        </g>
      </g>
      <g id="Group_215" data-name="Group 215" transform="translate(56.677 0)">
        <g id="Group_211" data-name="Group 211">
          <path id="Path_340" data-name="Path 340" d="M1867.118,1450.193s-17.009-9.525-9.071-22.452c0,0,6.35-7.938,13.153-9.978,0,0-3.628,19.277,0,19.73s2.495-21.772,2.495-21.772,17.916-8.618,24.947-7.938c0,0-11.113,18.824-7.484,18.37s16.1-19.5,16.1-19.5,18.37-3.4,21.318,7.484-1.814,16.329-4.536,17.009-20.185.453-19.731,2.721,12.246,5.9,18.823,3.855c0,0-7.257,17.917-16.782,17.009s-12.474-6.8-18.37-7.257-10.205,1.134-7.257,2.721,12.927.521,17.69,4.569,8.618,6.544-.227,8.358-24.72.68-27.9-6.124Z" transform="translate(-1855.936 -1406.146)" fill="#d2e0ff"/>
        </g>
        <g id="Group_214" data-name="Group 214" transform="translate(2.199 11.389)">
          <g id="Group_212" data-name="Group 212" transform="translate(4.447)">
            <path id="Path_341" data-name="Path 341" d="M1936.616,1445.689s-47.626,15.421-53.069,32.658a36.183,36.183,0,0,1-4.536,16.556v3.4s4.99-11.566,7.711-13.154C1886.722,1485.15,1876.062,1470.182,1936.616,1445.689Z" transform="translate(-1879.011 -1445.689)" fill="#d2e0ff"/>
          </g>
          <g id="Group_213" data-name="Group 213" transform="translate(0 47.096)">
            <path id="Path_342" data-name="Path 342" d="M1868.017,1611.324s-7.344,11.153-3.157,24.729l1.889-.507s-1.834-14.954,2.009-22.475S1868.017,1611.324,1868.017,1611.324Z" transform="translate(-1863.569 -1609.207)" fill="#d2e0ff"/>
          </g>
        </g>
      </g>
      <g id="Group_216" data-name="Group 216" transform="translate(33.967 81.456)">
        <path id="Path_343" data-name="Path 343" d="M1810.407,1722.278a33.319,33.319,0,0,0,33.318-33.319h-66.637A33.319,33.319,0,0,0,1810.407,1722.278Z" transform="translate(-1777.089 -1688.959)" fill="#c0d4ff"/>
      </g>
      <g id="Group_217" data-name="Group 217" transform="translate(33.507 112.359)">
        <path id="Path_344" data-name="Path 344" d="M1843.048,1800.365h-67.557a4.111,4.111,0,0,1,4.111-4.11h59.335a4.111,4.111,0,0,1,4.111,4.11Z" transform="translate(-1775.491 -1796.255)" fill="#c0d4ff"/>
      </g>
      <g id="Group_218" data-name="Group 218" transform="translate(32.872 81.455)">
        <rect id="Rectangle_37" data-name="Rectangle 37" width="68.49" height="1.022" fill="#86a2e2"/>
      </g>
    </g>
    <g id="Group_227" data-name="Group 227" transform="translate(450.028 252.523)">
      <g id="Group_220" data-name="Group 220" transform="translate(50.135)">
        <path id="Path_345" data-name="Path 345" d="M1291.885,537.158H1243.1v-25.37c0-9.7,7.613-17.571,17-17.571h31.78Z" transform="translate(-1243.101 -494.217)" fill="#b3c2ff"/>
      </g>
      <g id="Group_221" data-name="Group 221" transform="translate(32.157 42.941)">
        <rect id="Rectangle_38" data-name="Rectangle 38" width="90.319" height="336.88" rx="45.16" fill="#8c9df4"/>
      </g>
      <g id="Group_222" data-name="Group 222" transform="translate(62.497 42.941)">
        <rect id="Rectangle_39" data-name="Rectangle 39" width="90.319" height="336.88" rx="45.159" fill="#7187e2"/>
      </g>
      <g id="Group_223" data-name="Group 223" transform="translate(81.229 0)">
        <path id="Rectangle_40" data-name="Rectangle 40" d="M32.872,0h0A32.873,32.873,0,0,1,65.745,32.873V54.91A32.872,32.872,0,0,1,32.873,87.783h0A32.872,32.872,0,0,1,0,54.911V32.872A32.872,32.872,0,0,1,32.872,0Z" fill="#b3c2ff"/>
      </g>
      <g id="Group_224" data-name="Group 224" transform="translate(104.476 0)">
        <path id="Rectangle_41" data-name="Rectangle 41" d="M32.872,0h0A32.873,32.873,0,0,1,65.745,32.873V54.91A32.873,32.873,0,0,1,32.873,87.783h0A32.872,32.872,0,0,1,0,54.911V32.872A32.872,32.872,0,0,1,32.872,0Z" fill="#8c9df4"/>
      </g>
      <g id="Group_225" data-name="Group 225" transform="translate(0 351.396)">
        <path id="Rectangle_42" data-name="Rectangle 42" d="M14.212,0H175.28a14.212,14.212,0,0,1,14.212,14.212v0a14.212,14.212,0,0,1-14.212,14.212H14.212A14.212,14.212,0,0,1,0,14.212v0A14.212,14.212,0,0,1,14.212,0Z" fill="#b3c2ff"/>
      </g>
      <g id="Group_226" data-name="Group 226" transform="translate(52.229 351.396)">
        <path id="Rectangle_43" data-name="Rectangle 43" d="M14.212,0H123.051a14.212,14.212,0,0,1,14.212,14.212v0a14.212,14.212,0,0,1-14.212,14.212H14.212A14.212,14.212,0,0,1,0,14.212v0A14.212,14.212,0,0,1,14.212,0Z" fill="#4c6ac9"/>
      </g>
    </g>
    <g id="Group_228" data-name="Group 228" transform="translate(524.555 431.201)">
      <rect id="Rectangle_44" data-name="Rectangle 44" width="65.503" height="7.294" fill="#2b478b"/>
    </g>
    <g id="Group_249" data-name="Group 249" transform="translate(534.966 356.042)">
      <g id="Group_229" data-name="Group 229" transform="translate(60.191 44.684)">
        <path id="Path_346" data-name="Path 346" d="M1591.155,1065.134c-2.36,5.83-12.873,27.18-12.873,27.18l-5.365-3.688s7.875-24.745,7.45-28.287-3.2-18.651-3.2-18.651l-.744-32.914s7.645,3.015,9.124,11.2S1593.519,1059.3,1591.155,1065.134Z" transform="translate(-1572.917 -1008.775)" fill="#ffb27d"/>
      </g>
      <g id="Group_230" data-name="Group 230" transform="translate(21.796 42.74)">
        <path id="Path_347" data-name="Path 347" d="M1485.457,1022.7l-9.951,44.168-35.285-1.636s-2.49-30.942,2.608-43.045,8.3-16.762,8.3-16.762,5.854-6.553,30.386-1.453Z" transform="translate(-1439.612 -1002.026)" fill="#ffb27d"/>
      </g>
      <g id="Group_231" data-name="Group 231" transform="translate(18.364 170.471)">
        <path id="Path_348" data-name="Path 348" d="M1427.695,1450.553c.008,4.106,3.328,26.428,5,82.982.034,1.135,1.111,2,4.414,1.067,4.583-1.294,5.124-.474,5.124-.474a710.709,710.709,0,0,0,6.323-71.978C1449.078,1444.09,1427.678,1441.566,1427.695,1450.553Z" transform="translate(-1427.695 -1445.508)" fill="#ffb27d"/>
      </g>
      <g id="Group_232" data-name="Group 232" transform="translate(39.17 28.294)">
        <path id="Path_349" data-name="Path 349" d="M1516.2,968.424a62.634,62.634,0,0,1,.041-16.554l-.819.038-13.783.648s-.326,4.258-.91,8.228c0,.033-.01.066-.015.1-.5,3.449-.944,6.217-.723,7.21C1500.771,971.592,1516.712,971.015,1516.2,968.424Z" transform="translate(-1499.934 -951.87)" fill="#ffb27d"/>
      </g>
      <g id="Group_233" data-name="Group 233" transform="translate(39.966 28.332)">
        <path id="Path_350" data-name="Path 350" d="M1503.607,952.649s-.326,4.258-.91,8.228c7.523.91,12.5-5.332,14.694-8.876Z" transform="translate(-1502.697 -952.001)" fill="#e8945b"/>
      </g>
      <g id="Group_234" data-name="Group 234" transform="translate(34.367 3.115)">
        <path id="Path_351" data-name="Path 351" d="M1486.7,893.7s17.679,2.944,19.343-8.095,5.067-18.093-6.151-20.439-14.051,1.534-15.5,5.083S1482.148,892.648,1486.7,893.7Z" transform="translate(-1483.26 -864.45)" fill="#ffb27d"/>
      </g>
      <g id="Group_235" data-name="Group 235" transform="translate(43.012 170.867)">
        <path id="Path_352" data-name="Path 352" d="M1513.275,1451.764c-.1,4.1,2.657,26.5,2.891,83.082,0,1.135,1.06,2.027,4.385,1.179,4.615-1.177,5.135-.344,5.135-.344a710.654,710.654,0,0,0,8.146-71.794C1534.815,1445.846,1513.486,1442.78,1513.275,1451.764Z" transform="translate(-1513.272 -1446.882)" fill="#ffb27d"/>
      </g>
      <g id="Group_236" data-name="Group 236" transform="translate(24.993 228.726)">
        <path id="Path_353" data-name="Path 353" d="M1482.847,1690.372c-.164,3.713-3.927,3-9.88,2.48s-3.751.591-12.054.949-9.712-1-10.148-2.176c-.389-1.043,1.287-1.786,5.537-2.953.535-.145,11.78-4.772,14.164-7.766,3.213-4.034,2.907-33.139,2.907-33.139l8.493,11.142s-.337,13.277-.724,19.8c-.158,2.671,1.955,5.819,2.482,8.124C1483.906,1688.085,1482.906,1689.064,1482.847,1690.372Z" transform="translate(-1450.71 -1647.767)" fill="#ffb27d"/>
      </g>
      <g id="Group_237" data-name="Group 237" transform="translate(22.722 267.79)">
        <path id="Path_354" data-name="Path 354" d="M1467.172,1790.632c-5.953-.515-4.332.941-12.636,1.3s-11.248-2.3-11.684-3.48c-.389-1.042,3.586-2.046,7.836-3.213l.053.077a23.29,23.29,0,0,0,12.254,1.827c5.559-.721,11.181-3.215,15.015-3.745a14.557,14.557,0,0,1,.506,3.843C1478.353,1790.955,1473.126,1791.147,1467.172,1790.632Z" transform="translate(-1442.826 -1783.398)" fill="#e5803c"/>
      </g>
      <g id="Group_238" data-name="Group 238" transform="translate(2.797 228.358)">
        <path id="Path_355" data-name="Path 355" d="M1405.748,1688.841c-.069,3.717-3.849,3.094-9.813,2.73s-3.735.685-12.027,1.254-9.734-.754-10.2-1.918c-.416-1.033,1.241-1.817,5.46-3.092.531-.159,11.655-5.07,13.963-8.123,3.11-4.114,2.066-33.2,2.066-33.2l8.772,10.923s0,13.281-.221,19.811c-.091,2.674,2.1,5.768,2.687,8.058C1406.75,1686.528,1405.775,1687.532,1405.748,1688.841Z" transform="translate(-1373.647 -1646.49)" fill="#ffb27d"/>
      </g>
      <g id="Group_239" data-name="Group 239" transform="translate(0.537 267.15)">
        <path id="Path_356" data-name="Path 356" d="M1390.2,1788.682c-5.964-.364-4.307,1.05-12.6,1.618s-11.3-2.018-11.769-3.182c-.416-1.032,3.533-2.136,7.752-3.411l.055.076a23.291,23.291,0,0,0,12.3,1.516c5.54-.863,11.1-3.5,14.916-4.124a14.526,14.526,0,0,1,.6,3.829C1401.383,1788.721,1396.162,1789.046,1390.2,1788.682Z" transform="translate(-1365.8 -1781.175)" fill="#f49656"/>
      </g>
      <g id="Group_240" data-name="Group 240" transform="translate(22.164 65.307)">
        <path id="Path_357" data-name="Path 357" d="M1453.6,1122.651s-4.517-9.944-3.956-17.868c.738-10.433,3.453-25.78-.175-24.3-8.116,3.3-8.576,39.547-8.576,39.547Z" transform="translate(-1440.889 -1080.379)" fill="#f4a671"/>
      </g>
      <g id="Group_241" data-name="Group 241" transform="translate(1.814 104.284)">
        <path id="Path_358" data-name="Path 358" d="M1390.583,1216.377s-9.767,55.979-13.608,88.2-6.742,44.691-6.742,44.691,24.709,5.41,43.868,3.364,21.893,5.225,36.238-2.973c0,0-11.294-30.415-8.7-64.006,3.68-47.683-14.229-69.947-14.229-69.947S1420.251,1219.082,1390.583,1216.377Z" transform="translate(-1370.233 -1215.708)" fill="#f99746"/>
      </g>
      <g id="Group_242" data-name="Group 242" transform="translate(45.173 86.094)">
        <path id="Path_359" data-name="Path 359" d="M1522.916,1168.164a.664.664,0,0,1-.614-.412,24.267,24.267,0,0,1-.667-14.724.664.664,0,1,1,1.274.374,23.345,23.345,0,0,0,.623,13.846.664.664,0,0,1-.615.915Z" transform="translate(-1520.777 -1152.551)" fill="#f4a671"/>
      </g>
      <g id="Group_243" data-name="Group 243" transform="translate(0 137.802)">
        <path id="Path_360" data-name="Path 360" d="M1369.986,1333.247c-.877,2.631-6.05,6.345-6.05,9.3s1.586,10.682,2.61,10.7c3.846.061,2.629-5.46,4.1-7.231s4.574-2.8,4.722-4.279.664-8.78.664-8.78S1370.8,1330.812,1369.986,1333.247Z" transform="translate(-1363.936 -1332.083)" fill="#ffb27d"/>
      </g>
      <g id="Group_244" data-name="Group 244" transform="translate(7.735 147.452)">
        <path id="Path_361" data-name="Path 361" d="M1394.493,1365.584s-3.542,7.378-3.652,6.936,0-4.648,0-4.648Z" transform="translate(-1390.791 -1365.584)" fill="#ffb27d"/>
      </g>
      <g id="Group_245" data-name="Group 245" transform="translate(24.939 101.043)">
        <path id="Path_362" data-name="Path 362" d="M1484.574,1207.7s-4.612,6.5-34.051.853v-3.21s25.744,3.91,34.223-.885Z" transform="translate(-1450.523 -1204.454)" fill="#2b478b"/>
      </g>
      <g id="Group_246" data-name="Group 246" transform="translate(5.534 43.35)">
        <path id="Path_363" data-name="Path 363" d="M1411.485,1004.143s-10.4,2.721-13.432,11.727c-2.795,8.3-2.846,38.993-5.219,44.675-1.881,4.506-9.685,40.256-9.685,40.256l6.567-1.336s13.834-32.316,15.826-39.178.553-23.02,3.652-28.775S1411.485,1004.143,1411.485,1004.143Z" transform="translate(-1383.149 -1004.143)" fill="#ffb27d"/>
      </g>
      <g id="Group_247" data-name="Group 247" transform="translate(64.444 68.658)">
        <path id="Path_364" data-name="Path 364" d="M1590.882,1119.605c-.425-3.542-3.2-18.651-3.2-18.651s2.475-9.08,3.953-8.938S1592.489,1117.835,1590.882,1119.605Z" transform="translate(-1587.686 -1092.015)" fill="#f4a671"/>
      </g>
      <g id="Group_248" data-name="Group 248" transform="translate(27.224 0)">
        <path id="Path_365" data-name="Path 365" d="M1473.1,855.292s-6.967.664-9.4,5.091-.091,9.075,6.706,13.059,6.554,13.669,1.128,14.914-15.632,6.624-12.483,11.411,13.526,1.665,11.355,8.5c-4.124,12.986,14.543,17.345,21.848,14.025s8.374-12.482,14.166-12.4c10.624.148,7.315-16.346.664-23.943-9.01-10.292-.222-14.4-6.893-22.466C1493.9,855.882,1484.495,850.866,1473.1,855.292Z" transform="translate(-1458.458 -853.634)" fill="#163560"/>
      </g>
    </g>
    <g id="Group_250" data-name="Group 250" transform="translate(250.427 630.74)">
      <rect id="Rectangle_45" data-name="Rectangle 45" width="624.105" height="1.81" rx="0.905" fill="#233862"/>
    </g>
  </g>
</svg>
